<svg xmlns="http://www.w3.org/2000/svg" id="Слой_1" data-name="Слой 1" viewBox="0 0 43.43 27.72" width="43.43" height="27.72"><metadata><rdf:RDF xmlns:rdf="http://www.w3.org/1999/02/22-rdf-syntax-ns#" xmlns:dc="http://purl.org/dc/elements/1.1/"><rdf:Description><dc:creator>RealFaviconGenerator</dc:creator><dc:source>https://realfavicongenerator.net</dc:source></rdf:Description></rdf:RDF></metadata><defs><style>.cls-1{fill:#0fb133;fill-rule:evenodd;}</style></defs><title>1Монтажная область 1</title><path class="cls-1" d="M42.62,7.72,22.12.91c-7.4-2.24-16-.38-20.13,6C-1.13,11.28-2.69,26,13.93,27.72,9.31,25.41,7.74,21.58,9.37,18q2-5,11.37-7.5Q29.68,7.65,29.87,8c-2.44,2.31-3.66,3.22-5.38,6.19-3.34,5.37-7,8.18-9.56,6.5-1.72-1.32-.69-5.72,4.38-7.53.49-.15.12-1-1.19-.54q-8.93,2.81-7.81,9.5c.68,3.82,4,5.45,8.31,5.38,5.37-.31,8.56-3.56,10.5-7.81,3.06-8.13,6-10.13,13.12-10.69C43.6,8.93,43.87,8.16,42.62,7.72ZM5.11,18.47h.67v.64l-.61.05C5.16,18.91,5.13,18.69,5.11,18.47Zm.19,1.26h.55l.06.59H5.45C5.39,20.13,5.35,19.93,5.3,19.73Zm.41,1.46-.15-.48L6,20.66l.09.59C6,21.29,5.79,21.35,5.71,21.19Zm15.6-12a2.13,2.13,0,1,1,2.12-2.14h0a2.13,2.13,0,0,1-2.1,2.16h0Zm7.5-3.38C16,1.81,6.34,7.63,5.8,17.3l-.75-.06C5.11,7.85,16.32-.93,28.85,5.69Zm5.31.69a.63.63,0,1,1-.63.63.63.63,0,0,1,.63-.63Zm5,1.6c-3.89.25-7.31,2.13-10.87,5.34-.68.59-.94-.51-.6-.78Q33,7.88,38.87,7.5c.55,0,.8.5.28.63Z"></path></svg>