<svg xmlns="http://www.w3.org/2000/svg" height="800" width="1200" id="svg36" version="1.1" viewBox="-15.20985 -6.119175 131.8187 36.71505"><defs id="defs4"><style id="style2">.c{fill:#fff}.e{fill:#e0001a}</style></defs><path id="path22" d="M24.487 6.103h-2.132l-.518.651c-.091.091-.061.188.03.218l.7.308 1.98-.924a.133.133 0 00-.06-.253z" fill="#4a835b"/><circle id="circle24" transform="rotate(-45.078)" r=".591" cy="18.8918" cx="9.1714" class="c" fill="#fff"/><path id="path26" d="M16.573 16.565h-2.624a13.284 13.284 0 01-1.831.86c-.065.028-.091.041-.06.131l2.345 6.506h1.281l-2.149-5.928h.058c1.4 0 4.741-.349 6.549-3.27a4.279 4.279 0 01-3.569 1.701zm.372-3.891c.144-.218.281-.459.411-.685-.06-.032-.114-.07-.174-.007a9.319 9.319 0 01-7.347 3.188H6.751c-.093 0-.17-.084-.1-.175a45.176 45.176 0 016.975-7.536L8.46 11.803a2.316 2.316 0 01-1.557.577h-6.5c-.184 0-.123.133-.093.224a3.777 3.777 0 003.814 2.644l-1.521 1.591c-.06.06-.06.249.091.249h5.8a9.459 9.459 0 008.451-4.415zm-1.715 6.558l1.738 4.83h1.283l-1.836-5.1a8.792 8.792 0 01-1.185.27zm9.273-13.129h-2.136l-.518.648c-.091.093-.06.187.03.217l.7.306 1.982-.919a.132.132 0 00-.058-.252zm-4.232 1.161a.591.591 0 110-.839 1.063 1.063 0 10.007.007.59.59 0 01-.007.832z" fill="#00985f"/><circle id="circle28" transform="rotate(-45)" r=".499" cy="18.8876" cx="9.2436" class="c" fill="#fff"/><path id="path30" d="M20.14 14.864a23.185 23.185 0 002.44-7.576l-.7-.31c-.091-.03-.121-.124-.03-.217l.518-.643a3.729 3.729 0 00-3.2-1.676 4.793 4.793 0 00-2.7.79 34.078 34.078 0 00-2.847 2.245 44.967 44.967 0 00-6.975 7.519c-.065.091.012.175.1.175h3.089a9.335 9.335 0 007.351-3.2.126.126 0 01.174-.02.147.147 0 01.04.19 9.632 9.632 0 01-3.446 4.424h2.624a4.279 4.279 0 003.562-1.701zm-1.374-6.93a1.064 1.064 0 111.5 0 1.065 1.065 0 01-1.499 0zm2.456 7.576a7.7 7.7 0 01-3.656 3.062l1.969 5.49h5.73c-1.146-3.313-2.373-6.569-3.53-9.523-.156.321-.328.674-.512.971zM0 24.062h5.8l1.876-5.754H2.017C1.376 20.052.697 21.97 0 24.062zm7.635-13.284l3.347-2.777c.553-1.492 1.122-2.969 1.717-4.243.3.679.579 1.365.874 2.088 1.292-1.067 2.14-1.643 2.182-1.671l.019-.01a6.109 6.109 0 011.717-.8C16.729 1.699 16.191.523 15.932 0H9.435c-.541 1.221-2.56 5.406-4.922 10.985h2.39a1.036 1.036 0 00.732-.207z" class="e" fill="#e0001a"/><path id="path32" d="M32.482 20.686a1.98 1.98 0 01-2.222-2.132V9.59h-4.708v9.6c0 3.533 1.576 5.27 4.9 5.27" class="e" fill="#e0001a"/><path id="path34" d="M34.793 19.652a3.359 3.359 0 01-2.313 1.009 1.981 1.981 0 01-2.221-2.141v-9.1h-4.707v9.747c0 3.548 1.563 5.291 4.9 5.291a6.067 6.067 0 004.942-1.97l.292 1.578h3.818V9.416h-4.711zm14.961.733c-2.355 0-3.58-1.467-3.58-3.7 0-2.14 1.224-3.456 3.549-3.456a5.541 5.541 0 013.15.917l.674-4.008a11.556 11.556 0 00-4.986-.979c-4.741 0-7.342 2.723-7.342 7.709 0 5.016 2.447 7.586 7.22 7.586a11.135 11.135 0 005.414-1.315l-.673-3.732a7.2 7.2 0 01-3.426.978zm14.59-11.226a6.588 6.588 0 00-4.268 1.254v-6.4h-4.883v20.049h4.882v-10.1a3.141 3.141 0 012.225-1.009 1.916 1.916 0 012.135 2.141v8.968h4.882v-9.611c0-3.548-1.639-5.292-4.973-5.292zm32.119 0a6.122 6.122 0 00-4.976 1.9l-.326-1.646h-3.885v14.649h4.882v-10.1a3.141 3.141 0 012.225-1.009 1.916 1.916 0 012.134 2.141v8.968h4.882v-9.611c0-3.548-1.633-5.292-4.936-5.292zm-25.492 8.2c0 4.956 1.835 7.1 5.385 7.1a5.167 5.167 0 004.5-1.97l.245 1.578h3.913V10.076a20.344 20.344 0 00-6.683-.917c-4.747 0-7.36 2.906-7.36 8.199zm9.156 2.294a3.1 3.1 0 01-2.308 1.009c-1.284 0-1.995-1.193-1.995-3.487 0-2.814.776-4.221 2.3-4.221a7.82 7.82 0 012 .214z" class="e" fill="#e0001a"/></svg>