<svg width="150" height="50" viewBox="0 0 150 50" fill="none" xmlns="http://www.w3.org/2000/svg">
<path d="M9.65416 46.9742H94.0309C98.8011 46.9742 102.685 43.0904 102.685 38.3202V11.6804C102.685 6.91025 98.8011 3.02637 94.0309 3.02637H9.65416C4.88402 3.02637 1.00013 6.91025 1.00013 11.6804V38.3202C0.974064 43.0904 4.85795 46.9742 9.65416 46.9742Z" fill="#00B15E"/>
<path d="M48.4671 16.6587H48.3629C46.3036 16.6587 44.5311 17.3364 43.0714 18.6658C41.6117 19.9952 40.8818 21.6374 40.8818 23.5141V26.3814C40.8818 28.2582 41.6117 29.9004 43.0714 31.2298C44.5311 32.5592 46.3036 33.2369 48.3629 33.2369H48.4671C50.5264 33.2369 52.2989 32.5592 53.7586 31.2298C55.2183 29.9004 55.9482 28.2582 55.9482 26.3814V23.5141C55.9482 21.6374 55.2183 19.9952 53.7586 18.6658C52.325 17.3103 50.5264 16.6587 48.4671 16.6587ZM48.4671 29.1705H48.3629C47.5027 29.1705 46.7989 28.9099 46.1994 28.3625C45.5998 27.8151 45.3131 27.1634 45.3131 26.3814V23.5141C45.3131 22.7321 45.5998 22.0805 46.1994 21.5331C46.7989 20.9857 47.5027 20.725 48.3629 20.725H48.4671C49.3013 20.725 50.0051 20.9857 50.6046 21.5331C51.2041 22.0805 51.5169 22.7321 51.5169 23.5141V26.3814C51.5169 27.1634 51.2302 27.8151 50.6046 28.3625C50.0051 28.9099 49.3273 29.1705 48.4671 29.1705Z" fill="white"/>
<path d="M37.3367 18.6664C35.9291 17.337 34.2088 16.6593 32.2277 16.6593H32.1234C31.0026 16.6593 29.9339 16.8938 28.9434 17.363C28.5784 16.7114 27.8746 16.2422 27.0666 16.2422C26.2585 16.2422 25.5547 16.6853 25.1898 17.363C24.1993 16.8938 23.1306 16.6593 22.0097 16.6593H21.8794C19.8983 16.6593 18.204 17.337 16.7964 18.6664C15.3889 19.9957 14.6851 21.6379 14.6851 23.5147V26.382C14.6851 28.2588 15.3889 29.901 16.7964 31.2303C18.204 32.5597 19.9244 33.2374 21.8794 33.2374H21.9836C23.0263 33.2374 23.9907 33.0289 24.9291 32.6379V35.2967C24.9291 35.8441 25.1377 36.3393 25.5547 36.7564C25.9718 37.1474 26.4931 37.3559 27.0666 37.3559C27.5879 37.3559 28.0571 37.1995 28.4742 36.8607C28.8652 36.5479 29.0998 36.1308 29.178 35.6616C29.178 35.5574 29.204 35.427 29.204 35.3228V32.664C30.1163 33.055 31.1069 33.2635 32.1234 33.2635H32.2277C34.2088 33.2635 35.9291 32.5858 37.3367 31.2564C38.7443 29.927 39.4481 28.2848 39.4481 26.4081V23.5408C39.4742 21.6379 38.7443 19.9957 37.3367 18.6664ZM24.9552 26.382C24.9552 27.164 24.6685 27.8156 24.0689 28.363C23.4955 28.9104 22.8178 29.1711 22.0097 29.1711H21.8794C21.0713 29.1711 20.3936 28.9104 19.7941 28.363C19.2206 27.8156 18.9339 27.164 18.9339 26.382V23.5147C18.9339 22.7327 19.2206 22.0811 19.7941 21.5337C20.3675 20.9863 21.0452 20.7256 21.8794 20.7256H21.9836C22.7917 20.7256 23.4694 20.9863 24.0429 21.5597C24.6163 22.1071 24.9031 22.7588 24.9031 23.5408V26.382H24.9552ZM35.1993 26.382C35.1993 27.164 34.9125 27.8156 34.3391 28.363C33.7656 28.9104 33.0879 29.1711 32.2538 29.1711H32.1495C31.3415 29.1711 30.6637 28.9104 30.0903 28.363C29.5168 27.8156 29.2301 27.164 29.2301 26.382V23.5147C29.2301 22.7327 29.5168 22.0811 30.0903 21.5337C30.6637 20.9863 31.3415 20.7256 32.1495 20.7256H32.2538C33.0618 20.7256 33.7656 20.9863 34.3391 21.5337C34.9125 22.0811 35.1993 22.7327 35.1993 23.5147V26.382Z" fill="white"/>
<path d="M70.2331 18.6664C68.7734 17.337 66.9748 16.6593 64.9156 16.6593H64.8113C63.5862 16.6593 62.4132 16.9199 61.3445 17.4152C60.9796 16.7114 60.2758 16.2422 59.4416 16.2422C58.2687 16.2422 57.3042 17.2066 57.3042 18.3796V18.6664V20.0218V35.3228C57.3042 35.8701 57.5127 36.3654 57.9559 36.7825C58.3729 37.1474 58.9203 37.3559 59.5198 37.3559C60.1194 37.3559 60.6407 37.1474 61.1099 36.7564C61.5269 36.3654 61.7355 35.8701 61.7355 35.3228V32.6379C62.6739 33.0289 63.7165 33.2374 64.7852 33.2374H64.8895C66.9487 33.2374 68.7473 32.5597 70.207 31.2303C71.6668 29.901 72.3966 28.2588 72.3966 26.382V23.5147C72.4487 21.6379 71.6928 19.9957 70.2331 18.6664ZM67.9914 26.3559C67.9914 27.1379 67.7047 27.7896 67.0791 28.337C66.4796 28.8844 65.7758 29.145 64.9416 29.145H64.8374C63.9772 29.145 63.2734 28.8844 62.6739 28.337C62.0743 27.7896 61.7876 27.1379 61.7876 26.3559V23.4886C61.7876 22.7066 62.0743 22.055 62.6739 21.5076C63.2734 20.9602 63.9772 20.6995 64.8374 20.6995H64.9416C65.7758 20.6995 66.4796 20.9602 67.1051 21.5337C67.7047 22.0811 68.0175 22.7327 68.0175 23.5147V26.3559H67.9914Z" fill="white"/>
<path d="M127.5 47C139.65 47 149.5 37.1503 149.5 25C149.5 12.8497 139.65 3 127.5 3C115.35 3 105.5 12.8497 105.5 25C105.5 37.1503 115.35 47 127.5 47Z" fill="#E5412E"/>
<path d="M137.978 20.178C137.587 19.7088 137.04 19.4221 136.414 19.4221H134.746L130.602 14.5216C130.184 14.0263 129.429 13.9742 128.933 14.3912C128.699 14.5998 128.542 14.8865 128.516 15.1993C128.49 15.5121 128.594 15.8249 128.803 16.0595L131.67 19.4481H123.303L126.17 16.0595C126.379 15.8249 126.483 15.5121 126.457 15.1993C126.431 14.8865 126.274 14.5998 126.04 14.3912C125.805 14.1827 125.493 14.0785 125.18 14.1045C124.867 14.1306 124.58 14.287 124.372 14.5216L120.227 19.4221H118.559C117.959 19.4221 117.386 19.7088 116.995 20.178C116.604 20.6472 116.474 21.2728 116.63 21.8723L118.95 31.6993C119.158 32.6116 119.966 33.2372 120.879 33.2372H134.094C135.007 33.2372 135.815 32.6116 136.023 31.6993L138.343 21.8723C138.5 21.2728 138.369 20.6472 137.978 20.178ZM124.606 29.3794C124.606 29.8747 124.215 30.2657 123.72 30.2657H123.564C123.068 30.2657 122.677 29.8747 122.677 29.3794V23.2799C122.677 22.7846 123.068 22.3936 123.564 22.3936H123.72C124.215 22.3936 124.606 22.7846 124.606 23.2799V29.3794ZM128.438 29.3794C128.438 29.8747 128.047 30.2657 127.552 30.2657H127.395C126.9 30.2657 126.509 29.8747 126.509 29.3794V23.2799C126.509 22.7846 126.9 22.3936 127.395 22.3936H127.552C128.047 22.3936 128.438 22.7846 128.438 23.2799V29.3794ZM132.296 29.3794C132.296 29.8747 131.905 30.2657 131.41 30.2657H131.253C130.758 30.2657 130.367 29.8747 130.367 29.3794V23.2799C130.367 22.7846 130.758 22.3936 131.253 22.3936H131.41C131.905 22.3936 132.296 22.7846 132.296 23.2799V29.3794Z" fill="white"/>
<path d="M86.7854 16.3979C86.0034 16.3979 85.3256 16.815 84.9607 17.4145C84.9607 17.4145 84.9607 17.4406 84.9346 17.4406C83.8659 16.9193 82.6929 16.6586 81.4418 16.6586H81.3375C79.2782 16.6586 77.5057 17.3363 76.046 18.6657C74.5863 19.9951 73.8564 21.6373 73.8564 23.5141V26.3814C73.8564 28.2581 74.5863 29.9003 76.046 31.2297C77.5057 32.5591 79.2782 33.2368 81.3375 33.2368H81.4418C82.6929 33.2368 83.8659 32.9761 84.9346 32.4548C85.3256 33.0804 86.0034 33.4975 86.7854 33.4975C87.9844 33.4975 88.9489 32.533 88.9489 31.334V31.2036V30.7605V19.1349V18.6657V18.5615C88.9489 17.3624 87.9844 16.3979 86.7854 16.3979ZM84.5176 26.3814C84.5176 27.1633 84.2309 27.815 83.6053 28.3624C83.0057 28.9098 82.3019 29.1705 81.4678 29.1705H81.3636C80.5034 29.1705 79.7996 28.9098 79.2 28.3624C78.6005 27.815 78.3138 27.1633 78.3138 26.3814V23.5141C78.3138 22.7321 78.6005 22.0804 79.2 21.533C79.7996 20.9856 80.5034 20.725 81.3636 20.725H81.4678C82.3019 20.725 83.0057 20.9856 83.6313 21.533C84.2309 22.0804 84.5436 22.7321 84.5436 23.5141V26.3814H84.5176Z" fill="white"/>
</svg>
