<svg width="148" height="56" viewBox="0 0 148 56" fill="none" xmlns="http://www.w3.org/2000/svg">
<path d="M147.581 4.45942C147.581 2.47264 145.974 0.865967 143.999 0.865967H4.47758C2.50255 0.865967 0.895874 2.46872 0.895874 4.45942V51.5819C0.895874 53.5609 2.49863 55.1636 4.47758 55.1636H143.999C145.974 55.1636 147.581 53.5569 147.581 51.5819V4.45942Z" fill="#E40024"/>
<path d="M47.893 15.1352C47.552 14.7159 47.0426 14.473 46.5018 14.473H21.6101L20.5521 8.98679C20.3914 8.14035 19.6587 7.53687 18.8044 7.53687H8.7568C7.76929 7.53687 6.96985 8.3402 6.96985 9.31988C6.96985 10.2996 7.76929 11.1029 8.7568 11.1029C8.7568 11.1029 15.1835 11.1029 17.3231 11.1029C17.7855 13.4933 22.5742 38.3183 23.5578 43.3891H18.5457C17.907 42.1626 16.6217 41.3279 15.1404 41.3279C13.0243 41.3279 11.3 43.0521 11.3 45.1682C11.3 47.2843 13.0243 49.0203 15.1404 49.0203C16.6178 49.0203 17.8991 48.1778 18.5457 46.9591H37.9237C38.5703 48.1778 39.8518 49.0203 41.3291 49.0203C43.4491 49.0203 45.1733 47.2922 45.1733 45.1722C45.1733 43.0521 43.4491 41.3279 41.3291 41.3279C39.8518 41.3279 38.5703 42.1626 37.9237 43.3891H27.1865L24.5335 29.6188H44.0644C44.9108 29.6188 45.6358 29.0192 45.816 28.1924L48.2496 16.6204C48.3632 16.0992 48.2221 15.5467 47.889 15.1352H47.893ZM42.6184 26.0449C40.4866 26.0449 27.6803 26.0449 23.8438 26.0528L22.3038 18.0429C27.6058 18.0429 41.3448 18.039 44.3073 18.0429C43.794 20.4647 42.9789 24.3246 42.6184 26.0489V26.0449Z" fill="white"/>
<path d="M83.8897 4.16675C79.4929 4.16675 76.8713 7.79547 76.8713 11.2988V44.8351C76.8674 48.7068 80.0141 51.8535 83.8858 51.8535C87.2598 51.8535 90.9003 49.1614 90.9003 44.8312V11.2988C90.9003 7.79547 88.2747 4.16675 83.8897 4.16675ZM86.7817 44.8312C86.7817 46.3399 85.4572 47.6096 83.8858 47.6096C82.3144 47.6096 81.0996 46.383 81.0486 44.8194V11.2988C81.0486 9.7274 82.3497 8.40287 83.8897 8.40287C85.4298 8.40287 86.7817 9.7274 86.7817 11.2988V44.8351V44.8312Z" fill="white"/>
<path d="M107.355 4.38236L107.312 4.37061H96.7354C96.2064 4.37061 94.8701 5.02895 94.8701 6.58076C94.8701 7.88961 95.9713 8.61065 96.7354 8.61065C96.7354 8.61065 103.217 8.61065 104.204 8.61065C101.994 17.5179 94.5409 46.92 93.9296 48.993C93.8748 49.181 93.8513 49.3692 93.8513 49.5494C93.8513 50.4781 94.4508 51.2854 95.4109 51.5871L95.4736 51.6028H105.909C107.539 51.6028 108.108 50.4781 108.108 49.5141C108.108 48.4443 107.437 47.3667 105.909 47.3667H98.6673C98.9377 46.2851 108.895 6.90993 108.895 6.90993C108.934 6.72575 108.962 6.54941 108.962 6.37699C108.962 5.96552 108.852 5.58149 108.633 5.24448C108.339 4.80166 107.884 4.48425 107.359 4.38236H107.355Z" fill="white"/>
<path d="M124.092 4.38628L124.049 4.37061H113.464C112.939 4.37061 111.603 5.02895 111.603 6.58076C111.603 7.88961 112.704 8.61065 113.464 8.61065C113.464 8.61065 119.954 8.61065 120.941 8.61065C118.731 17.5257 111.278 46.92 110.658 48.9969C110.611 49.185 110.588 49.3731 110.588 49.5533C110.588 50.4821 111.187 51.2893 112.144 51.5911L112.21 51.6067H122.646C124.268 51.6067 124.848 50.4821 124.848 49.5181C124.848 48.4483 124.166 47.3706 122.646 47.3745C122.646 47.3745 116.395 47.3745 115.408 47.3745C115.682 46.293 125.632 6.91777 125.632 6.91777C125.675 6.73359 125.698 6.55725 125.698 6.38482C125.698 5.97336 125.585 5.58932 125.369 5.2484C125.079 4.80558 124.625 4.49209 124.096 4.3902L124.092 4.38628Z" fill="white"/>
<path d="M71.969 8.60673C73.125 8.60673 73.9989 7.70543 73.9989 6.51806C73.9989 5.33069 73.1446 4.37061 71.969 4.37061H64.4138C64.0062 4.37452 63.634 4.48425 63.3205 4.67627C62.7797 4.98976 62.427 5.53054 62.3486 6.20456C62.3408 6.26726 62.3368 6.32604 62.329 6.38482C62.329 6.42009 62.3212 6.44752 62.3212 6.47495V49.7728C62.3212 50.9641 63.2147 51.8575 64.4099 51.8575C65.6051 51.8575 66.4985 50.9249 66.4985 49.7728C66.4985 49.7728 66.5024 22.189 66.5024 21.319H71.3812C72.5608 21.319 73.4151 20.4608 73.4151 19.2813C73.4151 18.0234 72.5372 17.079 71.3812 17.079H66.5024V8.60673H71.9651H71.969Z" fill="white"/>
<path d="M143.133 4.51876C142.631 4.20135 142.063 4.09162 141.526 4.2131C141.017 4.32283 140.574 4.64024 140.272 5.1144C140.272 5.1144 137.278 10.1813 135.946 12.4306C134.617 10.1813 131.62 5.11049 131.62 5.11049C131.322 4.64024 130.875 4.32283 130.362 4.2131C129.829 4.09162 129.264 4.20135 128.763 4.52268C128.077 4.95374 127.717 5.616 127.717 6.29785C127.717 6.66621 127.826 7.03457 128.046 7.38726C128.046 7.38726 128.355 7.87318 128.814 8.59422C128.814 8.60597 128.822 8.61381 128.826 8.62165L133.849 16.5257V50.1482C133.849 51.3395 134.751 52.2369 135.942 52.2369C137.133 52.2369 138.035 51.3042 138.035 50.1482V16.5257L143.054 8.62165C143.054 8.62165 143.062 8.60206 143.066 8.59422C143.529 7.86926 143.838 7.37942 143.838 7.37942C144.062 7.03065 144.167 6.66229 144.167 6.29002C144.167 5.60816 143.803 4.94982 143.121 4.51876H143.133Z" fill="white"/>
</svg>
