<svg width="667" height="157" xmlns="http://www.w3.org/2000/svg"><g fill="none"><path d="M666.718 76.612c-.196.056-.168.231-.168.372-.871 13.6-6.045 25.434-14.896 35.667-9.21 10.636-20.815 17.513-34.282 21.313-6.004 1.694-12.14 2.496-18.384 2.496-25.694-.015-51.406-.015-77.109-.015h-.287c-.696-.015-.711-.015-.711-.73-.013-2.477-.013-4.95 0-7.424 0-.696.015-.703.733-.712.224-.006.45 0 .661 0 25.544 0 51.1-.006 76.644 0 7.387 0 14.614-1.02 21.567-3.583 14.749-5.436 25.735-15.12 32.567-29.35 2.433-5.062 3.91-10.418 4.471-16.028 1.49-14.587-2.567-27.55-11.824-38.832-8.738-10.658-19.992-17.265-33.511-20.007-4.562-.928-9.173-1.295-13.826-1.295H151.03c-.132-.28.108-.352.225-.462 2.617-2.65 5.254-5.293 7.874-7.952.302-.309.611-.51 1.065-.452.151.02.311 0 .471 0h437.839c16.24 0 30.79 5.002 43.647 14.842 10.24 7.845 17.539 17.891 21.63 30.178 1.392 4.17 2.25 8.464 2.7 12.842.054.493.028.999.054 1.505.015.162-.076.387.177.464.006 2.397.006 4.779.006 7.163zM.142 71.719C.23 70.258.429 68.8.568 67.34A57.992 57.992 0 015.49 48.818c5.263-11.585 13.374-20.731 23.999-27.654 7.852-5.118 16.41-8.537 25.613-10.33 1.56-.304 3.136-.567 4.714-.703.201.166.117.352.063.523-.631 2.582-1.301 5.167-1.885 7.754-.151.675-.467.906-1.093 1.012-4.753.746-9.367 2.019-13.757 3.964-13.873 6.164-24.088 16.034-30.07 30.078-2.15 5.053-3.387 10.34-3.75 15.823-.955 14.636 3.599 27.438 13.188 38.41 8.756 10.012 19.796 16.156 32.839 18.713 4.219.83 8.496 1.174 12.801 1.174 25.575-.007 51.152 0 76.733 0 1.255 0 1.255 0 1.255 1.216v6.962c0 .674-.015.674-.657.687-.151.015-.309 0-.467 0H68.378c-15.585.015-29.644-4.696-42.182-13.847C15.31 114.664 7.568 104.322 3.27 91.486 1.75 86.958.797 82.298.488 77.524.418 76.469.116 75.43.15 74.36c-.008-.884-.008-1.755-.008-2.641z" fill="#C32329"/><path d="M94.186.068c-.043.047-.09.097-.136.151H64.486c-1.375 0-2.747-.01-4.13-.017a4.12 4.12 0 01-.219-.14c11.353.006 22.7.006 34.05.006zm22.549.125c-.059-.043-.108-.084-.169-.127h32.35c-.05.047-.101.105-.144.157H116.92c-.067.002-.124-.023-.186-.03z" fill="#80B247"/><path d="M116.735.193c.062.007.119.032.186.032h31.85c1.14-.017 2.24.208 3.305.603 2.857 1.06 4.113 3.506 3.326 6.465-.315 1.202-.942 2.248-1.683 3.222-1.05 1.375-2.274 2.583-3.54 3.75-8.721 8.077-17.436 16.147-26.154 24.217a2.08 2.08 0 01-.208.182c-.942.9-.851.605-.438 1.723 2.829 7.698 5.673 15.388 8.515 23.084 1.913 5.168 3.821 10.327 5.743 15.492.38 1.027.851 2.02 1.409 2.961.988 1.667 2.457 2.531 4.348 2.778 1.284.16 2.564.175 3.845.175h1.848c-.51 2.11-.99 4.162-1.498 6.185-.88 3.584-1.733 7.176-2.639 10.755a19.775 19.775 0 01-1.683 4.372c-1.613 3.052-4.148 4.768-7.554 5.24-.748.105-1.498.174-2.245.174-5.55-.015-11.1-.015-16.642-.015-1.066 0-2.123-.134-3.167-.365-1.34-.31-2.301-1.074-2.946-2.278-.447-.837-.775-1.708-1.065-2.602-3.568-11.058-7.612-21.937-11.388-32.912a418.114 418.114 0 00-1.863-5.328c-.102-.281-.123-.62-.42-.852-.172.106-.358.219-.537.331-2.732 1.891-5.451 3.795-8.187 5.673-.426.288-.647.627-.763 1.105-1.794 7.748-3.592 15.488-5.378 23.24-.259 1.126-.417 2.278-.596 3.43-.13.809-.05 1.632.166 2.419.31 1.152 1.044 1.969 2.101 2.518.785.406 1.643.596 2.535.855-.358 1.479-.728 2.938-1.059 4.4-.071.312-.222.407-.516.396-.19-.015-.376 0-.57 0-10.403 0-20.812-.015-31.212 0-1.67 0-3.32-.1-4.917-.618-2.094-.69-3.62-1.954-4.176-4.19-.322-1.35-.179-2.678.057-4.02.432-2.404 1.139-4.738 1.685-7.113 2.654-11.6 5.326-23.191 7.997-34.784l9.48-41.263c.626-2.715 1.305-5.421 1.722-8.177.143-.94.151-1.867-.039-2.807-.257-1.256-.983-2.148-2.083-2.747a8.789 8.789 0 00-2.103-.791c-.268-.056-.497-.151-.404-.489.393-1.47.568-3.002 1.18-4.413 1.374.01 2.747.017 4.13.017h29.562C95 .217 95.92.36 96.834.583c3.86.963 5.316 3.72 4.787 7.313-.506 3.34-1.284 6.629-2.066 9.912-.77 3.226-1.54 6.447-2.302 9.673-.045.182-.102.372-.032.562.302.078.432-.19.596-.337 5.976-5.152 11.943-10.311 17.913-15.475.832-.72 1.575-1.521 2.15-2.472a5.64 5.64 0 00.634-1.455c.32-1.121 0-2.027-.86-2.777-.483-.41-1.051-.676-1.635-.905-.23-.096-.41-.18-.322-.46.387-1.32.46-2.707 1.038-3.969zm236.596 81.016c-.335.084-.484.38-.694.605-3.317 3.458-6.615 6.944-9.941 10.398-.35.372-.588.765-.703 1.286-.668 3.022-1.377 6.045-2.05 9.069-.176.752-.312 1.532-.297 2.319.015 1.692.696 2.622 2.293 3.134.322.114.661.199 1.053.296-.238 1.007-.484 1.962-.703 2.94-.062.25-.181.377-.443.377-.188-.012-.372 0-.562 0-8.619 0-17.24-.012-25.855 0-1.105 0-2.19-.084-3.247-.419-2.204-.732-3.26-2.425-2.917-4.727.527-3.557 1.435-7.043 2.245-10.56 2.912-12.555 5.838-25.122 8.743-37.677a3209.3 3209.3 0 003.296-14.468c.18-.787.33-1.595.337-2.403 0-1.714-.612-2.61-2.19-3.234-.358-.147-.905-.084-1.035-.492-.097-.31.08-.731.19-1.083.208-.69.078-1.61.631-2.004.504-.359 1.34-.104 2.021-.104h24.447c1.06 0 2.122.07 3.157.394 2.22.702 3.262 2.304 3.108 4.631-.155 2.244-.83 4.36-1.335 6.525-1.373 6.074-2.784 12.14-4.176 18.198-.043.184-.056.372-.084.562.35 0 .456-.268.603-.428 3.408-3.557 6.8-7.121 10.207-10.663.312-.322.55-.662.647-1.111.724-3.333 1.61-6.635 2.196-9.996.047-.281.097-.562.112-.845.127-2.019-.564-3.022-2.468-3.67-.175-.063-.36-.134-.543-.177-.238-.063-.266-.219-.225-.428.204-.886.422-1.77.619-2.657.062-.268.224-.337.47-.337h26.144c1.062 0 2.123.056 3.158.366 2.179.68 3.186 2.038 3.171 4.303-.015 1.588-.421 3.092-.772 4.625-1.534 6.579-3.036 13.173-4.556 19.767-2.902 12.624-5.807 25.25-8.716 37.877-.266 1.152-.519 2.319-.504 3.529.022 1.692.681 2.594 2.304 3.112.169.056.359.14.534.147.396.043.465.231.38.57-.19.824-.395 1.654-.577 2.469-.069.311-.23.428-.527.415-.19-.009-.387 0-.562 0H354.14c-1.068 0-2.13-.037-3.165-.344-2.5-.739-3.611-2.461-3.183-5.057a71.08 71.08 0 01.771-3.97c1.548-6.763 3.121-13.54 4.682-20.304.065-.25.18-.488.086-.756zm-52.051 27.144c-.226.961-.466 1.897-.673 2.846-.083.337-.268.456-.597.434-.158-.012-.309 0-.467 0h-25.672c-1.128 0-2.252-.054-3.339-.406-2.137-.702-3.166-2.172-2.974-4.415.197-2.25.763-4.435 1.275-6.636 3.605-15.606 7.234-31.21 10.854-46.83l.022-.091c.173-.78.173-.795-.599-.795-1.634-.013-3.257 0-4.884 0h-2.168c-.84 0-.847 0-1.037.83-.631 2.742-1.258 5.496-1.885 8.238-3.047 13.238-6.084 26.476-9.127 39.712-.268 1.16-.527 2.325-.54 3.523-.013 1.876.635 2.755 2.429 3.296.151.047.292.12.454.134.322.03.436.19.359.499-.201.852-.411 1.707-.612 2.552-.056.232-.18.402-.454.38-.186-.014-.376 0-.562 0H235.32c-1.1 0-2.187-.055-3.244-.395-2.109-.676-3.131-2.081-3.032-4.288.082-1.644.493-3.218.858-4.809 1.986-8.69 4.018-17.376 6.026-26.067 2.384-10.305 4.772-20.61 7.15-30.917.222-.977.39-1.97.576-2.952a4.9 4.9 0 00.029-1.498c-.167-1.386-1.031-2.15-2.268-2.594-1.044-.38-1.044-.38-.776-1.435.072-.302.152-.605.223-.905.316-1.302.316-1.302 1.677-1.302h63.47c1.129 0 2.253.029 3.346.366 2.19.68 3.255 2.11 3.182 4.4-.043 1.442-.387 2.847-.72 4.245a8430.537 8430.537 0 00-4.714 20.4l-8.262 35.964c-.33 1.427-.7 2.853-.852 4.331-.05.493-.036.99.035 1.49.145 1.04.713 1.73 1.634 2.13.482.221.998.353 1.623.565zm-113.041 3.239c-4.383 0-8.773.03-13.162-.013-2.823-.015-5.63-.268-8.386-.944-6.365-1.517-9.754-6.819-10.294-11.924-.268-2.516-.028-5.003.302-7.493 1.8-13.167 4.909-26.067 8.565-38.832.837-2.924 1.835-5.786 3.212-8.507 1.684-3.345 4.204-5.807 7.612-7.353 1.794-.814 3.694-1.18 5.617-1.463 3.1-.47 6.225-.618 9.363-.603 8.15.013 16.298 0 24.446.028 2.767.013 5.507.281 8.157 1.126 1.623.521 3.14 1.265 4.506 2.278 2.812 2.082 4.405 4.894 4.989 8.31.454 2.629.358 5.25.088 7.88-.65 6.117-2.088 12.084-3.46 18.058-1.459 6.383-2.864 12.767-4.528 19.093-.702 2.684-1.476 5.369-2.59 7.936-.522 1.202-1.145 2.363-1.812 3.493-2.693 4.537-6.661 7.206-11.805 8.191-2.626.506-5.276.724-7.94.752-4.289.016-8.581-.013-12.88-.013zm-1.388-20.975c.022.344.013.687.074 1.027.151.914.599 1.644 1.44 2.081 2.01 1.068 4.4.38 5.534-1.582.303-.519.528-1.068.735-1.623.391-1.061.679-2.16.93-3.249 2.06-8.9 4.119-17.806 6.161-26.698.418-1.8.887-3.586 1.066-5.427.212-2.068-.81-3.501-2.721-3.854-1.95-.365-3.447.36-4.375 2.11-.605 1.139-.955 2.375-1.245 3.626-2.39 10.234-4.765 20.47-7.134 30.712-.227.95-.452 1.892-.465 2.877zm327.903-36.949c.268-.044.395-.281.564-.456 3.499-3.424 6.985-6.84 10.48-10.264.605-.597 1.189-1.217 1.638-1.933.901-1.489.618-2.552-.942-3.289-.497-.225-.662-.437-.478-.97.197-.597.294-1.217.42-1.829.07-.33.224-.493.579-.462.153.013.309 0 .47 0h23.127c1.02 0 2.003.069 2.974.386 2.306.753 3.248 2.65 2.446 4.956-.28.815-.76 1.505-1.305 2.166-.633.78-1.351 1.49-2.082 2.163a36945.05 36945.05 0 00-17.46 16.169c-.297.281-.565.59-.902.815-.503.352-.493.752-.294 1.28a3026.65 3026.65 0 014.273 11.534c1.757 4.76 3.516 9.518 5.271 14.265.338.914.69 1.813 1.161 2.669.696 1.281 1.757 1.984 3.212 2.137a22.07 22.07 0 002.72.14h1.075c-.119 1.053-.413 1.968-.631 2.903-.696 2.862-1.386 5.721-2.081 8.57a19.363 19.363 0 01-.943 2.756c-1.139 2.714-3.248 4.048-6.131 4.216-.999.056-2.004.043-3.009.043-3.57-.012-7.15-.012-10.72-.028-.88 0-1.738-.127-2.593-.337-1.183-.296-2.097-.955-2.79-1.954-.649-.927-1.105-1.953-1.514-3.01-1.66-4.36-3.118-8.799-4.68-13.188-1.321-3.752-2.623-7.5-3.95-11.248-.099-.296-.136-.618-.402-.886-.29.112-.47.361-.71.562-1.25 1.126-2.501 2.272-3.753 3.408-.29.247-.492.528-.59.923-1.273 5.61-2.678 11.198-3.851 16.835-.147.682-.281 1.357-.281 2.046-.015 1.757.674 2.728 2.362 3.277.956.311.956.311.716 1.32-.147.577-.322 1.154-.407 1.738-.075.456-.315.57-.709.527-.134-.015-.252 0-.386 0h-25.575c-1.096 0-2.194-.043-3.248-.365-2.432-.746-3.543-2.524-3.14-5.02.455-2.853 1.257-5.618 1.903-8.436 2.769-12.138 5.568-24.28 8.367-36.42 1.264-5.518 2.552-11.03 3.816-16.555.253-1.096.5-2.207.521-3.333.022-1.857-.626-2.784-2.349-3.402-.977-.352-.977-.352-.74-1.33.141-.583.312-1.145.41-1.737.069-.421.237-.618.674-.562.127.013.253 0 .38 0h25.856c1.104 0 2.202.07 3.248.406 1.967.632 2.944 1.997 2.98 4.077.016.724-.084 1.441-.237 2.137-.871 3.854-1.786 7.684-2.672 11.528-.084.344-.28.703-.084 1.068-.056-.071-.112-.071-.147 0-.006.028.007.09.015.09.078.016.128-.027.128-.096zm88.74-19.206h12.696c1.41 0 2.82.07 4.203.394 2.038.462 3.288 1.7 3.81 3.704.35 1.286.435 2.602.52 3.91.23 3.817.42 7.64.64 11.45.282 4.822.578 9.631.857 14.453.218 3.692.413 7.38.625 11.079.29 4.999.59 10.009.877 15.017.147 2.537.29 5.061.43 7.605.054 1.055.182 2.116.38 3.164.282 1.595 1.034 2.745 2.741 3.037.396.078.605.225.48.702-.184.733-.322 1.463-.471 2.203-.063.315-.205.512-.57.464-.154-.021-.312 0-.465 0-7.937 0-15.86 0-23.796-.008-1.033 0-2.066-.028-3.102-.197-1.951-.337-3.218-1.42-3.745-3.354-.402-1.455-.54-2.953-.584-4.46-.071-2.662-.1-5.32-.147-7.99-.006-.786.037-.76-.78-.76-4.294.006-8.576.015-12.877-.007-.52-.008-.774.16-.992.625-1.236 2.63-2.51 5.245-3.76 7.88a6.863 6.863 0 00-.662 2.438c-.063.839.275 1.442.983 1.885a5.81 5.81 0 001.267.59c.266.09.402.224.296.564-.225.771-.437 1.56-.59 2.362-.084.365-.268.456-.584.44-.155-.006-.315 0-.473 0-5.636 0-11.275 0-16.927-.006-1.25 0-2.5-.056-3.752-.175-2.684-.259-4.104-2.7-3.635-5.042a13.041 13.041 0 011.258-3.53c7.184-13.903 14.38-27.802 21.58-41.712a9273.27 9273.27 0 009.013-17.433c.533-1.035 1.011-2.094 1.28-3.236.336-1.376-.085-2.362-1.434-2.671-.421-.097-.542-.274-.408-.73.19-.653.324-1.336.428-2.01.07-.457.246-.662.739-.632.59.044 1.182.013 1.785.013 4.277-.026 8.572-.026 12.866-.026zm-5.515 31.212c-.063-.013-.137-.044-.2-.057-2.2 4.738-4.391 9.476-6.656 14.325h6.644c.752 0 .752-.006.724-.786-.147-4.22-.311-8.436-.458-12.661-.022-.272-.035-.54-.054-.821zm-167.243-.078c-.154.33-.316.627-.45.936-4.456 9.764-8.907 19.542-13.363 29.3-1.12 2.453-2.287 4.878-3.454 7.312-.38.8-.646 1.623-.745 2.516-.106.961.274 1.631 1.091 2.103.134.077.272.147.413.22 1.104.519 1.126.534.802 1.742-.156.605-.1 1.388-.543 1.757-.471.407-1.258.14-1.92.14-5.348.014-10.713.014-16.07 0-1.25 0-2.501 0-3.752-.198-2.257-.357-3.642-2.058-3.508-4.344.09-1.505.624-2.868 1.3-4.189 10.159-19.635 20.315-39.268 30.475-58.902.618-1.195 1.21-2.403 1.455-3.745.24-1.264-.154-1.969-1.377-2.375-.48-.156-.67-.338-.506-.858.197-.655.35-1.336.45-2.019.062-.456.296-.568.687-.527h26.988c1.16 0 2.321.013 3.467.168 3.22.437 4.726 1.885 5.202 5.097.197 1.27.246 2.552.322 3.838.303 4.969.555 9.946.845 14.924.406 6.974.83 13.946 1.236 20.921.281 4.95.543 9.884.83 14.833.169 3.01.353 6.01.55 9.012.068.9.196 1.8.455 2.678.346 1.224 1.12 1.99 2.363 2.287.823.203.851.084.611 1.061a28.86 28.86 0 00-.406 1.935c-.056.309-.205.427-.506.406h-24.154c-1.096 0-2.2-.015-3.288-.205-1.913-.344-3.157-1.399-3.691-3.29a15.528 15.528 0 01-.54-3.614c-.078-1.975-.141-3.95-.163-5.926-.106-8.455-.402-16.912-.655-25.376-.069-2.312-.181-4.633-.28-6.946-.03-.201.06-.432-.171-.672z" fill="#C32329"/><path d="M343.219 134.783c-.422.203-.534.556-.73.821-2.547 3.729-5.104 7.452-7.626 11.194-.359.534-.735.758-1.368.73-1.16-.056-2.317-.015-3.475-.015-.776 0-.785-.013-1.01-.778-1.029-3.676-2.044-7.353-3.064-11.031-.09-.303-.182-.597-.288-.956-.36.48-.341.993-.439 1.464-1.296 6.241-2.57 12.498-3.853 18.755-.214 1.053-.214 1.053-1.31 1.053h-3.661c-.31 0-.627.043-1.003-.097.274-1.33.54-2.63.823-3.945 1.662-7.83 3.34-15.67 5.008-23.506.186-.899.18-.899 1.152-.899 1.915 0 3.821-.009 5.736 0 1.085.006.9-.136 1.187.893 1.139 4.09 2.26 8.202 3.384 12.306.078.274.158.542.249.852.41-.16.52-.54.713-.837a1921.95 1921.95 0 007.89-12.358c.394-.627.794-.9 1.57-.878 2.066.054 4.132.013 6.199.022.315 0 .633-.05.998.076.1.395-.1.773-.168 1.145-1.87 8.76-3.74 17.51-5.611 26.255-.043.182-.113.372-.138.55-.044.309-.212.419-.506.419-1.716-.013-3.445 0-5.308 0 1.513-7.122 3.13-14.129 4.649-21.235zm-103.872-1.463c-.316-.162-.538-.134-.756-.134h-9.68c-.852 0-.852 0-1.032.83-1.495 7.037-2.987 14.072-4.478 21.118-.186.87-.186.884-1.072.884-1.6 0-3.199.008-4.794 0-.763-.013-.77-.028-.627-.716 1.567-7.41 3.128-14.817 4.7-22.22.33-1.562.667-3.12 1-4.675.18-.823.18-.83 1.02-.83h22.652c.182 0 .37.015.6.028.088.374 0 .703-.072 1.027-1.848 8.747-3.709 17.506-5.557 26.255-.006.028-.006.057-.013.091-.322 1.167.013 1.029-1.325 1.048-1.441.007-2.879 0-4.327 0-.309-.008-.624.048-1.03-.147 1.612-7.508 3.202-15.03 4.791-22.56zm215.485-5.743c-.646.718-1.152 1.265-1.651 1.807-3.58 3.817-7.15 7.655-10.72 11.466-.62.661-.627.497-.169 1.348 2.235 4.247 4.47 8.486 6.707 12.726.168.322.395.633.464 1.105h-1.729c-1.694 0-3.389-.037-5.083.013-.648.015-.992-.176-1.288-.794-1.829-3.942-3.711-7.873-5.568-11.809-.138-.274-.212-.59-.534-.871-.268 1.217-.533 2.384-.786 3.542-.662 3.037-1.295 6.07-1.954 9.097-.169.815-.182.824-1.04.824h-4.703c-.914-.009-.929-.022-.752-.88l1.855-8.723c1.245-5.812 2.487-11.634 3.732-17.454.022-.12.05-.238.078-.366.218-1.026.218-1.026 1.236-1.026 1.479 0 2.94-.007 4.416 0 .311 0 .633-.057 1.026.106-.899 4.225-1.785 8.455-2.684 12.701.063.029.121.048.169.078.717-.817 1.433-1.638 2.15-2.455 2.847-3.287 5.695-6.579 8.548-9.881.275-.325.519-.556 1.014-.556 2.325.017 4.672.002 7.266.002zm-72.038 28.343c-.238.17-.534.098-.802.098-1.601.008-3.196.008-4.809.008-.87 0-.886-.008-.998-.935-.212-1.548-.402-3.108-.603-4.647-.093-.696-.1-.71-.802-.71-2.937-.008-5.885.014-8.838-.014-.512 0-.778.183-1.011.633-.839 1.645-1.738 3.261-2.553 4.92-.296.59-.66.78-1.307.764-1.82-.047-3.635-.013-5.453-.013-.246-.008-.5.048-.746-.078-.062-.28.154-.456.266-.676 5.202-9.004 10.398-18.01 15.585-27.02.281-.48.59-.703 1.174-.69 2.031.037 4.063.009 6.116.015.78 0 .793.007.9.73.648 4.529 1.28 9.054 1.934 13.582.648 4.513 1.294 9.047 1.947 13.567.028.157.07.298 0 .466zm-8.786-23.218c-.68.936-5.904 11.213-6.116 11.934.028.022.043.057.063.057 2.213.134 4.437.034 6.65.054.274 0 .402-.147.387-.413a54.14 54.14 0 01-.154-1.589c-.276-3.287-.549-6.592-.83-10.043zm-91.198 23.305c.232-1.098.426-2.11.64-3.108l5.205-24.43c.186-.892.186-.898 1.065-.898 3.037 0 6.084.006 9.12 0 1.038 0 2.06.112 3.066.356 3.652.887 5.781 3.227 6.049 6.975.25 3.473-.836 6.497-3.666 8.716-1.43 1.126-3.07 1.8-4.837 2.194-1.132.253-2.282.409-3.449.402-1.251 0-2.514 0-3.756.009-1.094.006-.88-.063-1.085.862-.493 2.166-.914 4.353-1.368 6.519-.137.652-.275 1.292-.405 1.938-.056.26-.15.465-.473.465h-6.105zm9.605-14.68c1.29 0 2.477.037 3.655-.013 2.436-.084 4.802-1.588 5.103-4.653.203-2.038-.84-3.577-2.825-4.013-1.21-.26-2.436-.12-3.653-.16-.386-.015-.466.238-.531.518-.569 2.72-1.146 5.445-1.749 8.321zm100.894 14.581c.428-2.052.858-4.105 1.294-6.152 1.49-7.009 2.968-14.009 4.485-21.012.296-1.35-.028-1.152 1.405-1.16 3.01-.007 6.002 0 9.012 0 1.265 0 2.51.175 3.698.586 2.847.976 4.645 2.865 5.131 5.891.586 3.668-.646 7.88-4.392 10.15-1.575.955-3.27 1.532-5.09 1.813-2.018.322-4.056.156-6.092.199-.923.013-.936 0-1.133.936-.555 2.662-1.104 5.327-1.679 7.99-.175.858-.181.87-1.068.87h-4.696c-.298-.001-.58.057-.875-.111zm9.574-14.561c1.055 0 1.963 0 2.868-.007.409 0 .817 0 1.223-.043 2.475-.26 4.17-1.828 4.626-4.232.443-2.34-.681-3.994-3.022-4.456-1.152-.231-2.304-.084-3.458-.136-.274-.007-.38.155-.436.402-.139.676-.297 1.342-.435 2.012-.45 2.124-.893 4.234-1.366 6.46zm75.695-2.001c-.337 1.51-.676 3.036-.983 4.569-.1.499-.38.564-.787.555-2.546-.007-5.083 0-7.62-.007-1.062 0-.978.029-1.153.93-.322 1.532-.676 3.05-1.02 4.582a5.093 5.093 0 00-.069.564c-.022.175.09.294.266.309.246.015.5.015.754.015h8.267c.335 0 .687-.056 1.037.076.169.231.072.486.016.71-.253 1.265-.52 2.517-.778 3.768-.093.428-.268.625-.755.618-5.358-.015-10.713-.006-16.071-.015-.097 0-.182-.043-.335-.07-.015-.645.197-1.272.335-1.897 1.8-8.507 3.614-17.011 5.429-25.525.035-.177.106-.367.134-.549.037-.315.225-.415.512-.402.128.007.253 0 .38 0H480.9c.238 0 .5-.056.73.113.1.512-.125.983-.209 1.47a38.654 38.654 0 01-.564 2.664c-.28 1.038.028.984-1.18.984-2.572.013-5.146.013-7.718.013-.246 0-.493 0-.746-.013-.374-.015-.57.134-.648.512-.359 1.744-.746 3.48-1.096 5.237-.127.618-.084.67.631.67 2.477.006 4.95 0 7.424.006.337-.006.69-.084 1.055.113zm-201.893-11.641c-.108 1.21-.473 2.369-.706 3.562-.091.486-.028 1.113-.402 1.413-.404.329-1.031.128-1.556.128-2.51.013-5.017 0-7.522.013-.797 0-.804 0-.97.78-.361 1.68-.72 3.37-1.072 5.055a.763.763 0 00.063.562h9.107c-.356 1.673-.691 3.22-1.016 4.78-.095.45-.41.465-.776.465-1.627-.006-3.26 0-4.888 0-1.036 0-2.067.016-3.1-.015-.425-.006-.629.154-.713.564-.376 1.745-.763 3.471-1.132 5.23-.117.548-.063.604.596.604 2.918.015 5.831 0 8.749.015.337 0 .69-.071 1.02.07.169.252 0 .492-.043.717-.253 1.264-.532 2.515-.776 3.767-.089.45-.287.676-.756.603-.124-.013-.253 0-.376 0h-15.043c-.31 0-.627.05-.949-.113.007-.914.294-1.785.482-2.656a5988.33 5988.33 0 015.22-24.52c.287-1.335-.04-1.145 1.409-1.152 4.698-.006 9.401 0 14.102 0 .32 0 .675-.069 1.048.128zM174.5 149.244c-.433 1.926-.83 3.668-1.196 5.4-.11.492-.363.745-.83.898-2.749.878-5.55 1.202-8.429.9-1.735-.182-3.39-.612-4.932-1.434-3.116-1.646-4.98-4.294-5.6-7.705-.83-4.525-.13-8.857 2.339-12.814 2.362-3.776 5.885-5.911 10.152-6.868 3.968-.887 7.903-.67 11.785.518.741.225.776.24.64.871-.376 1.773-.778 3.545-1.174 5.315-.482.015-.806-.266-1.173-.435-2.62-1.182-5.339-1.54-8.155-.9-4.096.922-7.054 4.103-7.726 8.251-.223 1.372-.303 2.743-.035 4.113.605 3.227 2.918 5.293 6.207 5.559 2.453.199 4.8-.203 7.046-1.21.318-.122.635-.264 1.08-.459zm23.032-7.96c.37-.294.5-.661.68-.968 2.288-3.994 4.575-7.977 6.835-11.993.32-.577.672-.78 1.319-.76 1.757.042 3.507.008 5.262.014.273 0 .556-.069.856.106-.013.329-.246.556-.41.809-4.124 6.397-8.244 12.792-12.374 19.183-1.16 1.792-2.347 3.564-3.795 5.14-1.554 1.686-3.36 2.993-5.669 3.458-1.874.387-3.737.402-5.572-.182-.864-.274-.901-.352-.728-1.204.311-1.489.64-2.98.964-4.512.495.175.936.343 1.38.47 1.71.498 3.221.113 4.559-1.026.791-.676 1.396-1.52 2.027-2.334.296-.38.11-.724.015-1.061a1435.11 1435.11 0 00-1.904-7.163c-.966-3.592-1.936-7.184-2.896-10.782-.069-.266-.186-.534-.119-.9h2.7c1.156 0 2.317-.006 3.475 0 .72.007.726.016.854.681.748 3.93 1.504 7.867 2.263 11.803.084.378.18.759.278 1.221zm295.775 14.636c1.617-7.676 3.225-15.325 4.842-22.959-.36-.231-.716-.14-1.053-.14-2.096-.013-4.189 0-6.3-.013-.737 0-.744-.015-.588-.74.28-1.285.588-2.567.821-3.857.093-.506.33-.67.824-.64.52.028 1.054.006 1.601.006h19.262c.337 0 .696-.069 1.076.128-.33 1.547-.67 3.093-.992 4.644-.097.459-.422.459-.787.459-1.997 0-4.007-.015-6.01 0-1.608.028-1.271-.268-1.623 1.363-1.505 7.044-2.996 14.075-4.485 21.118-.097.443-.169.753-.746.746-1.82-.043-3.642-.015-5.453-.028-.108 0-.214-.058-.389-.087z" fill="#80B247"/><path d="M514.754 53.668c0 .077-.048.119-.121.112-.007 0-.022-.07-.013-.084.034-.085.09-.085.147 0l-.013-.028zm83.225 12.006c.021.268.034.549.047.814l.465 12.653c.028.78.028.786-.733.793h-6.642c2.257-4.844 4.457-9.588 6.657-14.334.07.033.14.06.206.074zm-223.971 67.028c.281 3.451.556 6.756.83 10.043.043.528.098 1.055.154 1.589.015.266-.113.413-.387.413-2.213-.022-4.437.077-6.65-.054-.022 0-.037-.037-.063-.057.21-.721 5.433-10.998 6.116-11.934zm-81.593 8.625c.603-2.874 1.18-5.602 1.757-8.323.057-.28.143-.534.532-.518 1.217.054 2.442-.1 3.65.16 1.987.436 3.03 1.975 2.827 4.013-.302 3.08-2.675 4.569-5.102 4.653-1.187.05-2.376.015-3.664.015zm110.468.02c.473-2.241.917-4.35 1.366-6.445.138-.68.296-1.349.435-2.025.056-.238.153-.402.436-.394 1.152.044 2.304-.105 3.458.128 2.34.471 3.46 2.12 3.022 4.457-.45 2.418-2.15 3.978-4.626 4.231-.406.048-.814.048-1.223.048h-2.868z" fill="#FFFEFE"/></g></svg>