<svg width="310" height="65" viewBox="0 0 310 65" fill="none" xmlns="http://www.w3.org/2000/svg">
<path d="M32.5 65C50.4493 65 65 50.4492 65 32.5C65 14.5507 50.4493 0 32.5 0C14.5507 0 0 14.5507 0 32.5C0 50.4492 14.5507 65 32.5 65Z" fill="#ECECEC"/>
<path d="M50.4438 15.017C46.6034 11.1766 40.4129 11.1766 36.6299 15.017L31.9297 19.7172L32.5029 46.8292L46.3168 33.0153L50.4438 28.8883C54.2842 24.9906 54.2842 18.8001 50.4438 15.017Z" fill="#E3000B"/>
<path d="M46.3725 32.958L32.5586 46.7719L36.6856 50.8989C38.5771 52.7905 41.0992 53.7649 43.6212 53.7649C46.1433 53.7649 48.608 52.7905 50.5568 50.8989C54.3972 47.0585 54.3972 40.8681 50.5568 37.085L46.3725 32.958Z" fill="#F39100"/>
<path d="M28.3739 15.017C24.5335 11.1766 18.343 11.1766 14.56 15.017C10.7196 18.8574 10.7196 25.0479 14.56 28.8309L18.687 32.9579L32.5009 46.7719V19.0867L28.3739 15.017Z" fill="#951A75"/>
<path d="M14.5613 28.8309C12.6697 26.9394 11.6953 24.4174 11.6953 21.9526C11.6953 21.9526 11.6953 43.1607 11.6953 43.9632C11.6953 46.4853 12.6124 49.0073 14.5613 50.9562C16.4528 52.8477 18.9749 53.8221 21.4969 53.8221C24.0189 53.8221 26.4837 52.8477 28.4325 50.9562L32.5595 46.8292L18.7456 33.0153L14.5613 28.8309Z" fill="#009EE3"/>
<path d="M126.775 55.9999C117.331 55.9999 109.672 48.0368 109.672 38.2177C109.672 28.3986 117.331 20.4355 126.775 20.4355C136.219 20.4355 143.878 28.3986 143.878 38.2177C143.878 48.0368 136.162 55.9999 126.775 55.9999ZM126.775 30.0152C122.399 30.0152 118.886 33.7273 118.886 38.2177C118.886 42.7082 122.456 46.4203 126.775 46.4203C131.152 46.4203 134.665 42.7082 134.665 38.2177C134.665 33.7273 131.094 30.0152 126.775 30.0152Z" fill="#484847"/>
<path d="M98.5009 38.098L107.139 29.1171C108.924 27.261 108.924 24.2075 107.139 22.3515C105.354 20.4954 102.417 20.4954 100.632 22.3515L89.8053 33.6075H87.2139V25.7044C87.2139 23.07 85.1408 20.9146 82.6069 20.9146C80.0731 20.9146 78 23.07 78 25.7044V50.791C78 53.4254 80.0731 55.5808 82.6069 55.5808C85.1408 55.5808 87.2139 53.4254 87.2139 50.791V42.4088H89.8053L100.574 54.084C101.495 55.0419 102.705 55.5808 103.914 55.5808C105.066 55.5808 106.218 55.1617 107.081 54.2636C108.924 52.4075 108.982 49.4139 107.196 47.498L98.5009 38.098Z" fill="#484847"/>
<path d="M265.04 38.098L273.678 29.1171C275.463 27.261 275.463 24.2075 273.678 22.3515C271.893 20.4954 268.956 20.4954 267.171 22.3515L256.344 33.6075H253.753V25.7044C253.753 23.07 251.68 20.9146 249.146 20.9146C246.612 20.9146 244.539 23.07 244.539 25.7044V50.791C244.539 53.4254 246.612 55.5808 249.146 55.5808C251.68 55.5808 253.753 53.4254 253.753 50.791V42.4088H256.344L267.113 54.084C268.035 55.0419 269.244 55.5808 270.453 55.5808C271.605 55.5808 272.757 55.1617 273.62 54.2636C275.463 52.4075 275.521 49.4139 273.736 47.498L265.04 38.098Z" fill="#484847"/>
<path d="M174.804 55.5808C172.271 55.5808 170.197 53.4254 170.197 50.791V30.4942H157.644V50.791C157.644 53.4254 155.57 55.5808 153.037 55.5808C150.503 55.5808 148.43 53.4254 148.43 50.791V25.7044C148.43 23.07 150.503 20.9146 153.037 20.9146H174.804C177.338 20.9146 179.411 23.07 179.411 25.7044V50.791C179.411 53.4254 177.338 55.5808 174.804 55.5808Z" fill="#484847"/>
<path d="M192.255 55.5808C189.722 55.5808 187.648 53.4254 187.648 50.791V25.7044C187.648 23.07 189.722 20.9146 192.255 20.9146C194.789 20.9146 196.862 23.07 196.862 25.7044V50.791C196.805 53.4254 194.789 55.5808 192.255 55.5808Z" fill="#484847"/>
<path d="M209.642 55.5805C209.066 55.5805 208.548 55.4607 207.972 55.2811C206.187 54.5626 205.035 52.7664 205.035 50.7906V25.704C205.035 23.0696 207.108 20.9142 209.642 20.9142C212.176 20.9142 214.249 23.0696 214.249 25.704V38.3372L228.012 22.4709C229.279 20.9741 231.295 20.4951 233.08 21.2136C234.865 21.9321 236.017 23.7282 236.017 25.704V50.7906C236.017 53.425 233.944 55.5805 231.41 55.5805C228.876 55.5805 226.803 53.425 226.803 50.7906V38.1575L213.04 54.0238C212.176 55.0416 210.909 55.5805 209.642 55.5805Z" fill="#484847"/>
<path d="M309.729 49.1747C309.671 48.9951 303.221 30.255 302.53 28.2193C301.033 23.7289 297.578 20.9149 293.489 20.855C293.432 20.855 293.432 20.855 293.374 20.855C289.343 20.855 285.83 23.6091 284.16 28.0996C282.548 32.5301 277.135 48.5161 276.904 49.1747C276.04 51.6894 277.307 54.3836 279.726 55.2817C280.244 55.4613 280.763 55.5811 281.223 55.5811C283.124 55.5811 284.909 54.3238 285.542 52.348C285.542 52.2881 285.945 51.2104 286.464 49.4741H299.997C300.515 51.0906 300.918 52.1684 300.976 52.348C301.839 54.8626 304.488 56.1199 306.849 55.2218C309.326 54.3836 310.593 51.6894 309.729 49.1747ZM289.113 41.6906C290.495 37.5594 291.877 33.4282 292.568 31.5722C292.913 30.6142 293.777 30.9735 293.892 31.4524C294.238 32.4104 295.793 37.0804 297.348 41.7505H289.113V41.6906Z" fill="#484847"/>
<path d="M220.527 20.1363C223.485 20.1363 225.883 17.6434 225.883 14.5681C225.883 11.4929 223.485 9 220.527 9C217.57 9 215.172 11.4929 215.172 14.5681C215.172 17.6434 217.57 20.1363 220.527 20.1363Z" fill="#484847"/>
</svg>
