<svg id="RGB_1-104-155" data-name="RGB 1-104-155" xmlns="http://www.w3.org/2000/svg" xmlns:xlink="http://www.w3.org/1999/xlink" viewBox="0 0 60.42 68.43"><defs><style>.cls-1{fill:#01689b;}.cls-2{fill:url(#ro_verloop_co_3);}.cls-3{fill:#fff;}.cls-4{fill:url(#ro_verloop_co_3-2);}.cls-5{fill:url(#ro_verloop_co_3-3);}</style><linearGradient id="ro_verloop_co_3" x1="33.15" y1="56.47" x2="33.15" y2="-38.48" gradientUnits="userSpaceOnUse"><stop offset="0" stop-color="#01689b"/><stop offset="0.15" stop-color="#01689b"/><stop offset="1" stop-color="#fff"/></linearGradient><linearGradient id="ro_verloop_co_3-2" x1="37.27" y1="48.87" x2="27.04" y2="38.68" xlink:href="#ro_verloop_co_3"/><linearGradient id="ro_verloop_co_3-3" x1="27.84" y1="44.54" x2="33.53" y2="39.58" xlink:href="#ro_verloop_co_3"/></defs><title>1Tekengebied 1</title><path class="cls-1" d="M.11,54.28H.84v-.14l-.73-.61v-.21L.89,54l.87-.68v.24L1,54.13v.15h.77v.17H.11Z"/><path class="cls-1" d="M.51,52.62c0-.3.17-.46.49-.46h.14V53c.33,0,.48-.17.48-.4a1,1,0,0,0-.08-.38h.15a.87.87,0,0,1,.08.4c0,.33-.18.55-.62.55S.51,52.89.51,52.62ZM1,52.34c-.23,0-.34.1-.34.28a.34.34,0,0,0,.34.32Z"/><path class="cls-1" d="M1.35,51.65a.25.25,0,0,0,.27-.28.67.67,0,0,0-.07-.31h-1l0-.16H1.76v.16H1.69a.6.6,0,0,1,.08.33.38.38,0,0,1-.41.43H.54l0-.17Z"/><path class="cls-1" d="M.7,49.9a.78.78,0,0,0,0,.14.32.32,0,0,0,.14.24h.94v.17H.54l0-.17H.67A.33.33,0,0,1,.52,50a.66.66,0,0,1,0-.14Z"/><path class="cls-1" d="M.94,48.08a.25.25,0,0,0-.27.28.7.7,0,0,0,.07.31h1v.17H.94c-.17,0-.27.07-.27.28a.63.63,0,0,0,.07.3h1v.17H.54l0-.16H.6a.68.68,0,0,1-.08-.34.44.44,0,0,1,.12-.34.72.72,0,0,1-.12-.41.37.37,0,0,1,.41-.42h.83v.16Z"/><path class="cls-1" d="M.51,47.06A.43.43,0,0,1,1,46.6h.14v.79c.33,0,.48-.17.48-.4a1,1,0,0,0-.08-.38h.15a.8.8,0,0,1,.08.39c0,.33-.18.55-.62.55S.51,47.33.51,47.06ZM1,46.78c-.23,0-.34.1-.34.29a.34.34,0,0,0,.34.31Z"/><path class="cls-1" d="M.7,45.7a.68.68,0,0,0,0,.14c0,.08,0,.14.14.24h.94v.16H.54l0-.16H.67a.36.36,0,0,1-.15-.26.76.76,0,0,1,0-.15Z"/><path class="cls-1" d="M1.76,45.22v.16H0l0-.16H1v-.11l-.48-.43v-.21l.53.49.7-.54v.22l-.59.44v.14Z"/><path class="cls-1" d="M1.76,43.46v.17H.11v-.42c0-.35.17-.55.44-.55A.46.46,0,0,1,1,43l.74-.44v.21l-.71.41v.3Zm-.86,0v-.25c0-.23-.1-.37-.32-.37s-.32.12-.32.38v.24Z"/><path class="cls-1" d="M0,42.15c0-.07,0-.11.12-.11a.11.11,0,1,1,0,.22C0,42.26,0,42.22,0,42.15Zm1.76-.08v.16H.54l0-.16Z"/><path class="cls-1" d="M0,41.54a.11.11,0,0,1,.12-.12.11.11,0,0,1,.11.12.1.1,0,0,1-.11.11A.11.11,0,0,1,0,41.54Zm1.85-.09a.38.38,0,0,1,.4.34l-.15,0a.23.23,0,0,0-.25-.2H.54l0-.17Z"/><path class="cls-1" d="M1.76,40.84V41H0l0-.16H1v-.11L.53,40.3v-.21l.53.49.7-.54v.22l-.59.44v.14Z"/><path class="cls-1" d="M1.58,39.89a1.29,1.29,0,0,0,0-.35c0-.18-.08-.28-.2-.28s-.16.06-.2.22l0,.14a.32.32,0,0,1-.31.26.38.38,0,0,1-.35-.43,1,1,0,0,1,0-.3l.14,0a1.37,1.37,0,0,0,0,.29c0,.16.08.26.18.26s.15-.06.19-.18l0-.15c.06-.19.16-.29.31-.29a.41.41,0,0,1,.39.45,1.13,1.13,0,0,1,0,.34Z"/><path class="cls-1" d="M1.78,38.3c0,.33-.21.53-.62.53a.59.59,0,0,1-.65-.56c0-.32.21-.53.62-.53A.59.59,0,0,1,1.78,38.3Zm-1.12,0c0,.22.19.37.49.37s.48-.14.48-.38-.19-.36-.49-.36S.66,38.05.66,38.29Z"/><path class="cls-1" d="M.53,37.53v-.19L1.58,37h0l-1-.34v-.17l1.23.42v.2Z"/><path class="cls-1" d="M.51,35.75A.43.43,0,0,1,1,35.29h.14v.79c.33,0,.48-.17.48-.4a1,1,0,0,0-.08-.38h.15a.87.87,0,0,1,.08.4c0,.33-.18.55-.62.55S.51,36,.51,35.75ZM1,35.48c-.23,0-.34.1-.34.28s.13.29.34.32Z"/><path class="cls-1" d="M.7,34.39a.78.78,0,0,0,0,.14.32.32,0,0,0,.14.24h.94v.17H.54l0-.17H.67a.33.33,0,0,1-.15-.26.66.66,0,0,1,0-.14Z"/><path class="cls-1" d="M.94,33.32a.25.25,0,0,0-.27.28.67.67,0,0,0,.07.31h1v.17H0l0-.17H.6a.62.62,0,0,1-.08-.33.38.38,0,0,1,.41-.43h.83v.17Z"/><path class="cls-1" d="M.51,32.29A.43.43,0,0,1,1,31.83h.14v.8c.33,0,.48-.17.48-.4a1,1,0,0,0-.08-.38h.15a.85.85,0,0,1,.08.39c0,.33-.18.56-.62.56S.51,32.57.51,32.29ZM1,32c-.23,0-.34.1-.34.28s.13.29.34.32Z"/><path class="cls-1" d="M0,31.39c0-.07,0-.11.12-.11a.11.11,0,1,1,0,.22C0,31.5,0,31.46,0,31.39Zm1.76-.08v.17H.54l0-.17Z"/><path class="cls-1" d="M1.76,29.94v.16H1.68a.57.57,0,0,1,.09.32.52.52,0,0,1-.59.52.59.59,0,0,1-.66-.61.65.65,0,0,1,0-.22H0l0-.17Zm-.6.82c.31,0,.46-.15.46-.37a.49.49,0,0,0-.08-.28H.69a.9.9,0,0,0,0,.23C.67,30.6.85,30.76,1.16,30.76Z"/><path class="cls-2" d="M60.07.42A1.22,1.22,0,0,0,59.9.27,1.34,1.34,0,0,0,58.74.05L34.57,6.84,34.12,7a3.93,3.93,0,0,1-1,.11A4.94,4.94,0,0,1,32.27,7l-.68-.19L8.52.32l-1-.27A1.33,1.33,0,0,0,5.87,1.33V53.64A2.77,2.77,0,0,0,7.1,55.76l.14.09h0l.27.14h0L30.84,67.8l.56.28h0a4.4,4.4,0,0,0,1.74.35,4.61,4.61,0,0,0,1.71-.33l.64-.33L58.88,55.94l.15-.07a2.7,2.7,0,0,0,1.39-2.23V1.25A1.3,1.3,0,0,0,60.07.42Z"/><path class="cls-3" d="M31.86,55H29.65V42.94h3.53c3,0,4.5,1.37,4.5,3.36a3.63,3.63,0,0,1-2.18,3.47L38.69,55H36.12l-2.75-4.61H31.86Zm0-6.34H33.2a2,2,0,0,0,2.19-2.09c0-1.23-.7-1.86-2.37-1.86H31.86Z"/><rect class="cls-3" x="41.01" y="42.95" width="2.21" height="12.06"/><path class="cls-3" d="M50.93,51.41c0,2.57-1.41,3.69-3.74,3.69a5.45,5.45,0,0,1-.94-.07V53.14a8.8,8.8,0,0,0,.94.07c.93,0,1.52-.63,1.52-1.84V42.94h2.22Z"/><path class="cls-3" d="M17.55,24.94a.31.31,0,0,0,.29-.22,9.12,9.12,0,0,1,8.46-6.55l1.59-.05a.31.31,0,0,0,.29-.31v-4a.28.28,0,0,0-.09-.22.31.31,0,0,0-.22-.09l-1.7,0a13.8,13.8,0,0,0-13.07,11,.32.32,0,0,0,.07.25.27.27,0,0,0,.23.12Z"/><path class="cls-3" d="M43.09,19.15a9.12,9.12,0,0,1,5.46,5.58.31.31,0,0,0,.29.21H53a.3.3,0,0,0,.24-.12.3.3,0,0,0,.06-.26,13.71,13.71,0,0,0-10-10.2.32.32,0,0,0-.27.06.33.33,0,0,0-.12.24v4.2A.31.31,0,0,0,43.09,19.15Z"/><path class="cls-3" d="M37.46,36.52a9.18,9.18,0,0,1-6.28-6.16.3.3,0,0,0-.3-.21H26.74a.32.32,0,0,0-.24.11.3.3,0,0,0-.06.26,13.69,13.69,0,0,0,2.78,5.88L28,36.5l-1.68,0A9.19,9.19,0,0,1,18,30.35a.31.31,0,0,0-.29-.2H13.51a.29.29,0,0,0-.24.11.31.31,0,0,0-.06.26,13.79,13.79,0,0,0,13,10.56l1.3.09a.33.33,0,0,0,.25-.11l2.78-3.29a13.76,13.76,0,0,0,6.83,3.47h.06a.32.32,0,0,0,.19-.07.33.33,0,0,0,.12-.24V36.82A.32.32,0,0,0,37.46,36.52Z"/><path class="cls-3" d="M53.34,30.26a.32.32,0,0,0-.24-.11H49a.3.3,0,0,0-.3.21,9.19,9.19,0,0,1-5.57,5.93.3.3,0,0,0-.2.29v4.2a.3.3,0,0,0,.31.3h.08A13.84,13.84,0,0,0,53.4,30.52.3.3,0,0,0,53.34,30.26Z"/><path class="cls-3" d="M37.32,14.19a13.77,13.77,0,0,0-10.8,10.37.34.34,0,0,0,.05.26.33.33,0,0,0,.24.12H31a.31.31,0,0,0,.29-.21,9.13,9.13,0,0,1,6.17-5.81.32.32,0,0,0,.23-.3V14.49a.31.31,0,0,0-.12-.23A.32.32,0,0,0,37.32,14.19Z"/><path class="cls-4" d="M29.22,36.4l.6.76L26.49,41.1A14.76,14.76,0,0,1,24.86,41C24.74,40.9,29.22,36.4,29.22,36.4Z"/><path class="cls-5" d="M37.46,41.23l0-2.28-6.06-2.57-.24,2S34.18,41,37.46,41.23Z"/><path class="cls-3" d="M14.61,43.6a1.3,1.3,0,0,0-.27,1.65l5.45,9.17a1.25,1.25,0,0,0,1.09.62h0A1.27,1.27,0,0,0,22,54.42L31.5,38.86a1.31,1.31,0,0,0-.33-1.71,1.28,1.28,0,0,0-1.72.18l-8.67,10.9-4.51-4.62A1.27,1.27,0,0,0,14.61,43.6Z"/></svg>