<svg id="Слой_1" data-name="Слой 1" xmlns="http://www.w3.org/2000/svg" xmlns:xlink="http://www.w3.org/1999/xlink" viewBox="0 0 503.79 169.36"><defs><style>.cls-1{fill:none;}.cls-2{clip-path:url(#clip-path);}.cls-3{clip-path:url(#clip-path-2);}.cls-4{fill:#372462;}</style><clipPath id="clip-path"><rect class="cls-1" width="503.79" height="169.36"/></clipPath><clipPath id="clip-path-2"><rect class="cls-1" width="503.79" height="169.36"/></clipPath></defs><title>1Монтажная область 1</title><g class="cls-2"><g class="cls-3"><path class="cls-4" d="M104.6,64.76V46.71h56.45a84.35,84.35,0,0,0-6.59-10.89H133.54V14.9a84.8,84.8,0,0,0-10.89-6.59V35.53H104.6V2c-3.73-.86-7.45-1.44-10.89-2V75.65h75.65a72,72,0,0,0-2-10.89Z"/><path class="cls-4" d="M75.94,0A73.26,73.26,0,0,0,65.05,2V39.26L64.76,39,39,13.18a104.13,104.13,0,0,0-8.88,6.59l35,35V80l-.29-.28-47-47.29a103.94,103.94,0,0,0-6.31,9.17L35,65.05H2C1.15,68.78.57,72.5,0,75.94H31.52a32.9,32.9,0,0,1,33,32.67v58.75c3.72.86,7.45,1.43,10.89,2V104.6h18v64.76a71.51,71.51,0,0,0,10.89-2V135l.29.28,22.92,22.93a101.06,101.06,0,0,0,9.17-6.31L104.88,119.5V104.6h10l35,35a102.57,102.57,0,0,0,6.59-8.88L130.39,104.6h37.25c.86-3.73,1.44-7.45,2-10.89H75.94Z"/><path class="cls-4" d="M31,93.71H.29a72,72,0,0,0,2,10.89h29a4.83,4.83,0,0,1,4.87,4.87v13.18H8.88a86,86,0,0,0,6.59,10.89H36.11v20.64A84.72,84.72,0,0,0,47,160.76V109.47A16,16,0,0,0,31,93.71"/><polygon class="cls-4" points="196.01 96.58 205.47 96.58 205.47 55.6 219.8 55.6 219.8 47 181.69 47 181.69 55.6 196.01 55.6 196.01 96.58"/><path class="cls-4" d="M234.13,97.43a18.51,18.51,0,0,0,16.33-8.88l.29-.29-6.59-4.87-.29.57a10.62,10.62,0,0,1-9.46,5.74c-6.59,0-8.31-4.88-8.88-7.74h24.64V79.09c0-11.46-6.3-18.34-16.62-18.34-10,0-17.19,7.45-17.19,18.06.29,11.17,7.45,18.62,17.77,18.62m-8.31-22.64c.57-3.72,4-6.3,8-6.3s7.16,2.58,7.45,6.3Z"/><path class="cls-4" d="M272.81,97.43a16.58,16.58,0,0,0,15.48-9.74l.29-.57-7.46-4-.28.57c-1.44,3.72-4,5.44-7.74,5.44-5.16,0-8.31-4-8.31-10.31s3.15-10.32,8.31-10.32c4.59,0,6.59,3.15,7.45,5.73l.29.58,7.74-4-.29-.28c-2.58-6.31-8-10-15.48-10-10.31,0-17.19,7.45-17.19,18.34-.29,11.75,6.3,18.62,17.19,18.62"/><path class="cls-4" d="M315.23,72.5a20.68,20.68,0,0,1,.57,6.31V96.57H325V76.8c0-6.88-.86-9.46-2.29-11.75-2.29-2.86-5.45-4.3-9.75-4.3s-8,1.44-10,4V47h-9.17V96.57h9.17V78c0-5.73,2.58-8.89,6.88-8.89,3.15-.28,4.88.86,5.45,3.44"/><path class="cls-4" d="M354.77,72.5a20.68,20.68,0,0,1,.57,6.31V96.57h9.17V76.8c0-6.88-.85-9.46-2.28-11.75-2.3-2.86-5.45-4.3-9.75-4.3s-8,1.44-10,4V61.61h-9.17v35h9.17V78c0-5.73,2.58-8.89,6.88-8.89,2.87-.28,4.58.86,5.44,3.44"/><rect class="cls-4" x="372.54" y="61.61" width="9.17" height="34.96"/><rect class="cls-4" x="372.54" y="47" width="9.17" height="9.46"/><path class="cls-4" d="M422.12,88.55l.28-.29-6.59-4.87-.28.57a10.62,10.62,0,0,1-9.46,5.74c-6.59,0-8.31-4.88-8.89-7.74h24.65V79.09c0-11.46-6.3-18.34-16.62-18.34-10,0-17.2,7.45-17.2,18.06,0,11.17,7.17,18.62,17.49,18.62a19,19,0,0,0,16.62-8.88M397.47,74.79c.57-3.72,4-6.3,8-6.3s7.16,2.58,7.45,6.3Z"/><polygon class="cls-4" points="437.88 85.69 442.46 81.67 452.5 96.58 463.96 96.58 449.05 75.37 463.1 61.61 451.06 61.61 437.88 74.8 437.88 47 428.71 47 428.71 96.58 437.88 96.58 437.88 85.69"/><path class="cls-4" d="M216.36,131.54V147.3c-.86-1.44-2-3.16-2.87-4.3l-18.62-28.09H186v49.58h9.46V131.82a38.37,38.37,0,0,1,2,3.44l19.2,29.52h8.88V114.63h-9.46v16.91Z"/><path class="cls-4" d="M259.34,151.59a10.59,10.59,0,0,1-9.45,5.74c-6.59,0-8.31-4.87-8.89-7.74h24.65v-2.86c0-11.47-6.31-18.35-16.62-18.35-10,0-17.2,7.45-17.2,18.06,0,11.17,7.17,18.62,17.49,18.62,9.45,0,14.32-5.44,16.33-8.88l.29-.29-6.6-4.87Zm-18-9.16c.57-3.73,4-6.31,8-6.31s7.16,2.58,7.45,6.31Z"/><path class="cls-4" d="M295.74,132.11a13.1,13.1,0,0,0-9.46-3.73c-9.45,0-15.47,7.46-15.47,18.63,0,10.89,6.3,18.34,15.47,18.34,3.73,0,7.17-1.14,9.46-3.72v2.86h9.17V114.63h-9.17ZM288,157c-5.16,0-8-4-8-10.31s3.15-10.32,8-10.32,8,4.3,8,10.32c0,6.3-3.16,10.31-8,10.31"/><path class="cls-4" d="M338.15,151.59a10.61,10.61,0,0,1-9.46,5.74c-6.59,0-8.3-4.87-8.88-7.74h24.65v-2.86c0-11.47-6.31-18.35-16.62-18.35-10,0-17.2,7.45-17.2,18.06,0,11.17,7.17,18.62,17.48,18.62,9.46,0,14.33-5.44,16.34-8.88l.29-.29-6.6-4.87Zm-18-9.16c.57-3.73,4-6.31,8-6.31s7.17,2.58,7.45,6.31Z"/><path class="cls-4" d="M370,128.38c-4.87,0-8,2.3-9.45,4.3v-3.44h-9.18v35h9.18V148.44a20.54,20.54,0,0,1,.85-6.59c1.15-2.86,3.44-4.3,7.46-4.3h2.86V128.1h-.57a2.21,2.21,0,0,1-1.15.28"/><rect class="cls-4" x="377.7" y="114.63" width="9.17" height="49.58"/><path class="cls-4" d="M423.84,155.89V139c0-6.88-4.59-10.6-14-10.6-5.44,0-9.74,1.43-12.32,4a10,10,0,0,0-2.87,8v.28l8.6.58v-.58a6,6,0,0,1,1.15-4,7,7,0,0,1,5.16-1.73c4.87,0,5.73,2,5.73,3.73v.57c0,.86,0,.86-1.72,1.43l-7.45,1.15c-5.16.86-8.31,2.3-10.32,4.88a9.24,9.24,0,0,0-2,6.3c0,6.88,4.87,11.18,12.61,11.18,4.3,0,7.73-1.15,10-3.16,1.14,2.87,4,3.16,6.3,3.16,2,0,3.15-.29,3.73-.29H427v-6.3h-.86c-2,.57-2.29.28-2.29-1.73M415,148.16v3.43c0,4-2.58,6.31-7.16,6.31-3.44,0-5.45-1.43-5.45-4.3,0-2.29,1.15-3.15,5.16-4l3.16-.57a22.22,22.22,0,0,0,4.29-.86"/><path class="cls-4" d="M451.64,128.38c-4.3,0-8,1.44-10,4v-3.16h-9.17v35h9.17V145.58c0-5.73,2.58-8.89,6.88-8.89,3.16,0,4.87,1.15,5.45,3.44a20.68,20.68,0,0,1,.57,6.31v17.77h9.17V144.43c0-6.88-.86-9.45-2.29-11.75-2-2.86-5.16-4.3-9.74-4.3"/><path class="cls-4" d="M494.62,114.63v17.48a13.1,13.1,0,0,0-9.46-3.73c-9.45,0-15.47,7.46-15.47,18.63,0,10.89,6.3,18.34,15.47,18.34,3.73,0,7.17-1.14,9.46-3.72v2.86h9.17V114.63ZM486.88,157c-5.16,0-8-4-8-10.31s3.15-10.32,8-10.32,8,4.3,8,10.32c0,6.3-3.16,10.31-8,10.31"/><polygon class="cls-4" points="188.56 4.01 188.56 24.07 198.88 24.07 198.88 28.09 184.26 28.09 184.26 4.01 188.56 4.01"/><path class="cls-4" d="M206.33,8.31h-4v-4h4Zm0,19.77h-4V11.18h4Z"/><path class="cls-4" d="M210.05,19.77c0-5.15,2.87-8.88,7.46-8.88a6.13,6.13,0,0,1,4.87,2.29V4h4V28.08h-4V26.37a5.74,5.74,0,0,1-4.87,2.29c-4.59,0-7.46-3.73-7.46-8.89m8.32-5.44c-2.58,0-4.3,2-4.3,5.44s1.72,5.45,4.3,5.45,4.29-2,4.29-5.45-1.72-5.44-4.29-5.44"/><path class="cls-4" d="M253.33,11.18l-5.45,16.91h-4.3l-5.44-16.91h4.3L245,19.77a26.38,26.38,0,0,1,.86,3.44,24.62,24.62,0,0,1,.86-3.44l2.58-8.59Z"/><path class="cls-4" d="M269.37,24.36c0,1.15,0,1.43,1.15,1.43h.29v2.58a10.12,10.12,0,0,1-2,.29c-1.43,0-2.58-.29-2.86-1.72-.58.86-2,1.72-5.16,1.72s-6-1.72-6-5.16a4.31,4.31,0,0,1,.86-2.87,8.72,8.72,0,0,1,4.87-2.29l3.73-.57c.86-.29,1.14-.29,1.14-.86v-.29c0-1.43-.85-2-2.86-2-2.29,0-3.44.86-3.44,2.86l-3.73-.29c0-4,3.44-5.73,7.45-5.73,3.73,0,6.59,1.15,6.59,4.88Zm-3.72-2.29v-2a12,12,0,0,1-2.29.57l-1.44.29c-2,.29-2.86.86-2.86,2.29s.86,2.3,2.86,2.3c2.3,0,3.73-1.15,3.73-3.44"/><path class="cls-4" d="M289.15,28.08h-4V19.49a10.56,10.56,0,0,0-.29-3.15,2.63,2.63,0,0,0-2.87-2c-2.57,0-3.72,2-3.72,4.58V27.8h-4V10.89h4v2.29a5.74,5.74,0,0,1,5.16-2.58,5.34,5.34,0,0,1,4.58,2c.86,1.15,1.15,2.29,1.15,5.73Z"/></g></g></svg>