<svg id="Слой_1" data-name="Слой 1" xmlns="http://www.w3.org/2000/svg" xmlns:xlink="http://www.w3.org/1999/xlink" viewBox="0 0 230.32 258.66"><defs><style>.cls-1,.cls-4{fill:none;}.cls-2{fill:#004f9f;}.cls-3{clip-path:url(#clip-path);}.cls-4{stroke:#004f9f;stroke-miterlimit:10;stroke-width:3.54px;}.cls-5{fill:#fff;}</style><clipPath id="clip-path"><rect class="cls-1" x="1.77" y="1.77" width="226.78" height="255.12"/></clipPath></defs><title>1Монтажная область 1</title><rect class="cls-2" x="15.94" y="182.7" width="198.43" height="54.35"/><g class="cls-3"><rect class="cls-4" x="1.77" y="1.77" width="226.78" height="255.12"/></g><rect class="cls-2" x="28.7" y="191.2" width="172.92" height="26"/><path class="cls-5" d="M39.33,217.2A7.61,7.61,0,0,0,44,216a4.05,4.05,0,0,0,1.56-3.41,4,4,0,0,0-1-2.68,4.7,4.7,0,0,0-3-1.35v0a4.05,4.05,0,0,0,2.62-1.36,3.77,3.77,0,0,0,.86-2.49,4.1,4.1,0,0,0-1.51-3.43,7.83,7.83,0,0,0-4.68-1.2H30.6V217.2Zm-4.42-6.94h3.67a2.87,2.87,0,0,1,1.82.47,1.75,1.75,0,0,1,.6,1.4,1.8,1.8,0,0,1-.6,1.43,2.75,2.75,0,0,1-1.82.49H34.91Zm0-6.94h3.25c1.59,0,2.4.62,2.4,1.87s-.81,1.87-2.4,1.87H34.91Zm17.87,4.44v-4.34H56a3.15,3.15,0,0,1,1.95.52,1.93,1.93,0,0,1,.65,1.64,2,2,0,0,1-.65,1.66,3.15,3.15,0,0,1-1.95.52ZM48.38,200V217.2h4.4v-6.27h2.67l3.67,6.27h4.94l-4.47-6.94a5.1,5.1,0,0,0,1.77-.94,5.4,5.4,0,0,0,0-7.85A7.23,7.23,0,0,0,56.57,200Zm22.39,0H66.3V217.2H79.37v-3.46h-8.6Zm18.61,0V217.2h4.48v-4.84l2.08-2.54,4.26,7.38h5.07L99.13,207l5.83-7h-5l-6.13,7.62V200Zm30.55,17.16v-3.41h-5.2c-.44,0-.85,0-1.24.06s-.76,0-1,.05v0a30.68,30.68,0,0,0,4-2.7,11.21,11.21,0,0,0,2.47-2.78,6,6,0,0,0,.86-3.1,5.8,5.8,0,0,0-.37-2,5.56,5.56,0,0,0-1.17-1.77,6.13,6.13,0,0,0-2-1.27,8.43,8.43,0,0,0-2.94-.47,8.53,8.53,0,0,0-3.43.65,5.43,5.43,0,0,0-2.37,2,5.75,5.75,0,0,0-.93,3.22l3.82,1.17a4.65,4.65,0,0,1,.73-2.63,2.56,2.56,0,0,1,3.64-.23,2.43,2.43,0,0,1,.57,1.66,4.38,4.38,0,0,1-.47,1.88,8.22,8.22,0,0,1-1.43,2,21,21,0,0,1-2.55,2.27,42.5,42.5,0,0,1-3.77,2.57v2.86Zm11.08-.1a6.73,6.73,0,0,0,2.16-1.12,5.3,5.3,0,0,0,1.48-1.93,6.58,6.58,0,0,0,.52-2.73,5.31,5.31,0,0,0-.65-2.67,4.64,4.64,0,0,0-1.85-1.85,5.9,5.9,0,0,0-2.88-.68,6.48,6.48,0,0,0-2.08.32,3.18,3.18,0,0,0-1.46.91h0l.07-.42.45-3.43h7.56V200H123.49l-1.09,9.57,3.38.62a3.51,3.51,0,0,1,.76-.57,3.94,3.94,0,0,1,.88-.34,4.86,4.86,0,0,1,1.12-.1,3.39,3.39,0,0,1,1.43.26,2,2,0,0,1,.88.8,3.1,3.1,0,0,1,0,2.66,2.07,2.07,0,0,1-.91.85,3.06,3.06,0,0,1-1.38.29,2.6,2.6,0,0,1-1.9-.62,3.41,3.41,0,0,1-.93-1.67l-3.93,2a6.8,6.8,0,0,0,2.78,2.84,8.05,8.05,0,0,0,3.88.88,9.33,9.33,0,0,0,2.57-.36Zm18.85-1.88c1.2-1.48,1.79-3.69,1.79-6.6s-.59-5.12-1.79-6.6a6.48,6.48,0,0,0-5.33-2.24,6.42,6.42,0,0,0-5.31,2.24c-1.22,1.48-1.82,3.69-1.82,6.6s.6,5.12,1.82,6.6a6.42,6.42,0,0,0,5.31,2.24,6.48,6.48,0,0,0,5.33-2.24ZM143,213.43a3,3,0,0,1-.88-1.72,14.13,14.13,0,0,1-.29-3.09,14.63,14.63,0,0,1,.29-3.12,3.22,3.22,0,0,1,.88-1.72,2.57,2.57,0,0,1,3.1,0,3.36,3.36,0,0,1,.88,1.72,14.24,14.24,0,0,1,.26,3.12,13.77,13.77,0,0,1-.26,3.09,3.13,3.13,0,0,1-.88,1.72,2.46,2.46,0,0,1-3.1,0Zm23.61,1.79c1.2-1.48,1.8-3.69,1.8-6.6s-.6-5.12-1.8-6.6a6.48,6.48,0,0,0-5.33-2.24A6.38,6.38,0,0,0,156,202c-1.22,1.48-1.82,3.69-1.82,6.6s.6,5.12,1.82,6.6a6.38,6.38,0,0,0,5.3,2.24,6.48,6.48,0,0,0,5.33-2.24Zm-6.86-1.79a3,3,0,0,1-.89-1.72,14.21,14.21,0,0,1-.28-3.09,14.72,14.72,0,0,1,.28-3.12,3.23,3.23,0,0,1,.89-1.72,2.32,2.32,0,0,1,1.53-.52,2.35,2.35,0,0,1,1.56.52,3.37,3.37,0,0,1,.89,1.72,14.89,14.89,0,0,1,.26,3.12,14.39,14.39,0,0,1-.26,3.09,3.14,3.14,0,0,1-.89,1.72,2.21,2.21,0,0,1-1.56.55,2.19,2.19,0,0,1-1.53-.55Zm23.61,1.79c1.19-1.48,1.79-3.69,1.79-6.6s-.6-5.12-1.79-6.6a6.48,6.48,0,0,0-5.33-2.24,6.42,6.42,0,0,0-5.31,2.24c-1.22,1.48-1.82,3.69-1.82,6.6s.6,5.12,1.82,6.6a6.42,6.42,0,0,0,5.31,2.24,6.48,6.48,0,0,0,5.33-2.24Zm-6.87-1.79a3,3,0,0,1-.88-1.72,14.13,14.13,0,0,1-.29-3.09,14.63,14.63,0,0,1,.29-3.12,3.22,3.22,0,0,1,.88-1.72,2.57,2.57,0,0,1,3.1,0,3.36,3.36,0,0,1,.88,1.72,14.89,14.89,0,0,1,.26,3.12,14.39,14.39,0,0,1-.26,3.09,3.13,3.13,0,0,1-.88,1.72,2.46,2.46,0,0,1-3.1,0Z"/><path class="cls-2" d="M28.07,170.76a3.45,3.45,0,0,0,1.31-1.42l.14,2h2.23v-8H25v2.32h4V166a3.13,3.13,0,0,1-.27,1.33,2.61,2.61,0,0,1-.76.94,3.06,3.06,0,0,1-1.13.55,5.43,5.43,0,0,1-1.43.19,4.32,4.32,0,0,1-2.34-.6,3.48,3.48,0,0,1-1.45-1.77,7.68,7.68,0,0,1-.48-2.9,7.1,7.1,0,0,1,.5-2.85,3.76,3.76,0,0,1,3.68-2.37,4,4,0,0,1,2.19.58,3.32,3.32,0,0,1,1.24,1.81l2.94-1.26a6.4,6.4,0,0,0-2.41-2.83,7.77,7.77,0,0,0-4-.9,8,8,0,0,0-3.93,1,6.31,6.31,0,0,0-2.6,2.69,8.86,8.86,0,0,0-.92,4.2,9.52,9.52,0,0,0,.87,4.21,6.19,6.19,0,0,0,2.46,2.67,7,7,0,0,0,3.66.92,5.83,5.83,0,0,0,3.22-.83Zm18.88.6v-2.55H38.42v-3.87h6.46v-2.43H38.42v-3.77h8.21v-2.56H35.25v15.18Zm12.93-5.06A3.35,3.35,0,0,1,56.45,169a4.1,4.1,0,0,1-2.25-.6,3.5,3.5,0,0,1-1.38-1.77,7.47,7.47,0,0,1-.49-2.85,7.19,7.19,0,0,1,.51-2.87,3.77,3.77,0,0,1,3.61-2.35,3.41,3.41,0,0,1,2.07.58,3.56,3.56,0,0,1,1.2,2l2.87-1.21a5.52,5.52,0,0,0-1.29-2.21,5.83,5.83,0,0,0-2.16-1.31,9,9,0,0,0-2.83-.42,7.62,7.62,0,0,0-3.84,1,6.1,6.1,0,0,0-2.53,2.69,10.28,10.28,0,0,0,0,8.37,6.16,6.16,0,0,0,2.53,2.69,7.73,7.73,0,0,0,3.89.94,8,8,0,0,0,2.83-.48,5.87,5.87,0,0,0,2.23-1.47,6.2,6.2,0,0,0,1.38-2.47Zm17.34,5.06v-2.55H68.69v-3.87h6.46v-2.43H68.69v-3.77H76.9v-2.56H65.51v15.18Zm6-8.23v-4.42h3.2a3.25,3.25,0,0,1,2,.53,2.08,2.08,0,0,1,.64,1.68,2,2,0,0,1-.64,1.66,3.12,3.12,0,0,1-2,.55Zm-3.13-6.95v15.18H83.2v-5.82h2.85l3.57,5.82h3.56l-4.09-6.3a5.21,5.21,0,0,0,1.72-.9,4.59,4.59,0,0,0,0-6.73,6.07,6.07,0,0,0-4-1.25Zm14.29,0v2.56h5.1v12.62h3.17V158.74h5.09v-2.56Zm16,0v15.18h3.17V156.18Zm18.49,0H117.45v15.18h3.17v-6.21h6.46v-2.57h-6.46v-3.84h8.19Zm2.71,0v15.18h3.18V156.18Zm17.21,10.12A3.35,3.35,0,0,1,145.3,169a4.1,4.1,0,0,1-2.25-.6,3.45,3.45,0,0,1-1.38-1.77,7.28,7.28,0,0,1-.49-2.85,7,7,0,0,1,.51-2.87,3.89,3.89,0,0,1,1.45-1.75,4,4,0,0,1,2.16-.6,3.41,3.41,0,0,1,2.07.58,3.5,3.5,0,0,1,1.19,2l2.88-1.21a5.52,5.52,0,0,0-1.29-2.21,5.83,5.83,0,0,0-2.16-1.31,9,9,0,0,0-2.83-.42,7.62,7.62,0,0,0-3.84,1,6.1,6.1,0,0,0-2.53,2.69,10.18,10.18,0,0,0,0,8.37,6.16,6.16,0,0,0,2.53,2.69,7.73,7.73,0,0,0,3.89.94,8,8,0,0,0,2.83-.48,5.87,5.87,0,0,0,2.23-1.47,6.2,6.2,0,0,0,1.38-2.47Zm17.34,5.06v-2.55h-8.53v-3.87H164v-2.43h-6.46v-3.77h8.21v-2.56H154.36v15.18Zm14.56,0v-2.55h-8.54v-3.87h6.47v-2.43h-6.47v-3.77h8.21v-2.56H168.92v15.18Zm6-8.23v-4.42h3.19a3.21,3.21,0,0,1,2,.53,2.05,2.05,0,0,1,.65,1.68,2,2,0,0,1-.65,1.66,3.08,3.08,0,0,1-2,.55Zm-3.13-6.95v15.18h3.13v-5.82h2.85l3.56,5.82h3.57l-4.1-6.3a5.17,5.17,0,0,0,1.73-.9,4.59,4.59,0,0,0,0-6.73,6.07,6.07,0,0,0-4.05-1.25Zm15.64,0v15.18H205a7.47,7.47,0,0,0,5.52-2,9,9,0,0,0,0-11.24,7.46,7.46,0,0,0-5.52-2Zm3.17,12.65V158.71h2.53a4.1,4.1,0,0,1,3.27,1.29,5.86,5.86,0,0,1,1.08,3.77,5.76,5.76,0,0,1-1.08,3.75,4,4,0,0,1-3.27,1.31Z"/><path class="cls-2" d="M65.77,40.12H44.85l-11,15.79.38-9.13V21.68H15.94V87.85H34.39S34.2,81.19,34.2,78c0-2.47,3.61-6.28,3.61-6.28l8.94,16.16H66.91L49.42,59.72Z"/><polygon class="cls-2" points="155.52 40.12 150.58 59.33 149.06 66.56 147.34 59.14 141.46 40.12 125.47 40.12 119.4 59.33 117.68 66.75 115.97 59.33 110.65 40.12 109.87 40.12 97.33 40.12 92.75 40.12 97.87 55.22 108.74 87.85 124.9 87.85 131.94 65.03 132.7 61.42 133.66 65.03 140.88 87.85 156.47 87.85 172.64 40.12 155.52 40.12"/><path class="cls-2" d="M195.93,75.88c0,.19-.19.19-.38.38a22.88,22.88,0,0,1-4.57.38,9.46,9.46,0,0,1-3.61-.76,4.6,4.6,0,0,1-1.15-1.52,6.9,6.9,0,0,1-.38-2.1,4.29,4.29,0,0,1,3-4.37,22.58,22.58,0,0,1,7-1.14Zm18.44,8.17V58.19c0-6.27-1.9-12.17-5.33-15a19.26,19.26,0,0,0-7.23-3.05,42.4,42.4,0,0,0-8.74-.95,73.35,73.35,0,0,0-13.5,1.14L176,51c1.51,0,6.84-.76,11-.76,3.61,0,5.7.38,7.61,1.9,1.9,1.33,1.52,5.7,1.52,5.7-3.43,0-6.47.19-9.13.38a51.78,51.78,0,0,0-5.33,1,47.8,47.8,0,0,0-5.89,1.71,15.12,15.12,0,0,0-5.9,4.56,11.47,11.47,0,0,0-2.66,7.42A14.24,14.24,0,0,0,172,84.05c3,2.85,7.22,4.18,12.35,4.18a23.25,23.25,0,0,0,12.75-3.42,3.36,3.36,0,0,0,1.71,2.66c.75.38,2.08.38,4.18.38h11.41Z"/><polygon class="cls-2" points="71.36 40.12 71.36 77.2 71.36 87.85 78.78 87.85 89.64 87.85 89.64 40.12 71.36 40.12"/><path class="cls-2" d="M80.42,19.38a8.44,8.44,0,1,0,8.52,8.34,8.38,8.38,0,0,0-8.52-8.34"/></svg>