<svg width="110" height="24" viewBox="0 0 110 24" fill="none" xmlns="http://www.w3.org/2000/svg">
<path fill-rule="evenodd" clip-rule="evenodd" d="M83.7638 13.7477C83.7638 14.5434 83.6978 16.3001 83.1042 17.4937C82.3522 19.0198 80.9728 19.417 79.8216 19.417C78.6727 19.417 77.2926 19.0198 76.5413 17.4937C75.9477 16.3001 75.8807 14.5434 75.8807 13.7477V0.387695H69.7734V14.7764C69.7734 16.5314 70.005 19.0198 71.8433 21.0755C74.2073 23.7264 77.7859 23.9932 79.8216 23.9932C81.8589 23.9932 85.4385 23.7264 87.8019 21.0755C89.6435 19.0198 89.871 16.5314 89.871 14.7764V0.387695H83.7638V13.7477Z" fill="#45B759"/>
<path fill-rule="evenodd" clip-rule="evenodd" d="M57.157 18.6271H57.0883L52.0591 0.394531H45.6289L53.2273 23.5998H60.6926L68.4237 0.394531H62.2207L57.157 18.6271Z" fill="#45B759"/>
<mask id="mask0" mask-type="alpha" maskUnits="userSpaceOnUse" x="23" y="0" width="24" height="24">
<path fill-rule="evenodd" clip-rule="evenodd" d="M46.3363 0H23.356L23.356 23.9999H46.3363V0Z" fill="white"/>
</mask>
<g mask="url(#mask0)">
<path fill-rule="evenodd" clip-rule="evenodd" d="M38.6247 17.536C37.9015 18.5627 36.6873 19.4241 34.8497 19.4241C33.0091 19.4241 31.7939 18.5627 31.072 17.536C29.8246 15.8447 29.6601 13.491 29.6601 11.9992C29.6601 10.5066 29.8246 8.15361 31.072 6.46431C31.7939 5.43732 33.0091 4.57456 34.8497 4.57456C36.6873 4.57456 37.9015 5.43732 38.6247 6.46431C39.8707 8.15361 40.037 10.5066 40.037 11.9992C40.037 13.491 39.8707 15.8447 38.6247 17.536ZM34.7578 0C32.7933 0.00880374 29.0941 0.308808 26.3782 3.08266C23.6881 5.83417 23.356 9.71289 23.356 11.9992C23.356 14.2871 23.6881 18.1652 26.3782 20.915C29.1371 23.7328 32.9111 24 34.8499 24C36.787 24 40.5637 23.7328 43.3218 20.915C46.0133 18.1652 46.3363 14.2871 46.3363 11.9992C46.3363 9.71289 46.0133 5.83417 43.3218 3.08266C40.607 0.308808 36.9048 0.00880374 34.942 0H34.7578Z" fill="#45B759"/>
</g>
<mask id="mask1" mask-type="alpha" maskUnits="userSpaceOnUse" x="91" y="0" width="19" height="24">
<path fill-rule="evenodd" clip-rule="evenodd" d="M109.002 24H91.8672L91.8672 0H109.002V24Z" fill="white"/>
</mask>
<g mask="url(#mask1)">
<path fill-rule="evenodd" clip-rule="evenodd" d="M106.935 11.4699C105.721 10.4748 103.521 9.74472 102.372 9.44742L102.012 9.34584C100.107 8.81728 98.9905 8.38691 98.4979 7.75643C98.2995 7.52584 98.1667 7.10969 98.1667 6.67696C98.1667 6.10776 98.4403 5.42175 99.3521 5.00425C100.298 4.57083 101.37 4.54036 102.155 4.57422C103.497 4.63551 105.959 5.28529 107.152 6.61431C107.152 6.61431 107.988 4.89352 107.593 3.4426C107.14 1.77497 105.889 0.858026 104.625 0.44188C103.638 0.117496 102.196 0.00507908 101.379 0H101.222C99.1266 0.0101582 97.286 0.3447 95.5443 1.22575C92.9463 2.55173 91.8672 4.64329 91.8672 7.19231C91.8672 8.08826 92.0605 9.18264 92.4238 10.0115C93.2768 11.8698 95.2166 13.0275 97.0186 13.5909L97.972 13.8899C99.646 14.4185 100.928 14.7175 101.813 15.414C102.372 15.8444 102.701 16.3407 102.701 17.1382C102.701 17.9346 102.305 18.414 101.897 18.7293C101.211 19.2619 99.8736 19.4244 98.9228 19.4244C97.3497 19.4244 94.7175 18.8095 92.6202 16.4948C92.6202 16.4948 91.9542 18.4692 92.306 20.0102C92.6588 21.5505 93.9942 22.5325 95.1678 23.0831C96.446 23.6892 98.1887 24 99.4717 24C101.736 24 104.343 23.6353 106.378 22.1099C107.688 21.1168 109.002 19.3594 109.002 16.3407C109.002 14.686 108.61 12.8294 106.935 11.4699Z" fill="#45B759"/>
</g>
<path fill-rule="evenodd" clip-rule="evenodd" d="M15.6393 16.0889H15.5726C15.5726 16.0889 11.9277 8.68194 10.2966 5.37309C8.67038 2.06221 5.33929 0.300781 2.34984 0.300781H0V23.567H5.62811L5.4324 7.67831H5.49911C5.49911 7.67831 9.81043 16.2535 11.0239 18.6166C12.7897 22.0521 15.2137 23.567 18.4713 23.567H21.1367V0.300781H15.5401L15.6393 16.0889Z" fill="#45B759"/>
</svg>
