<svg id="Слой_1" data-name="Слой 1" xmlns="http://www.w3.org/2000/svg" viewBox="0 0 348.81 107.7"><defs><style>.cls-1,.cls-2{fill:#798c43;}.cls-1{fill-rule:evenodd;}.cls-3{fill:#fbbe3f;}.cls-4{fill:#fff;}.cls-5{fill:#515c34;}</style></defs><title>1Монтажная область 2</title><path class="cls-1" d="M186.45,30.06H200.5V71.19a17.2,17.2,0,0,1-14.05,0Z"/><path class="cls-2" d="M159.38,45.27V31.19a23.08,23.08,0,0,1,16.37,0V58.05c.33,9.59,2.63,14.32,6.25,15.32-11.81,4.19-22.62-3.68-22.62-13.43-14,5.56-23.82.73-23.88-11.38V31.19a23.11,23.11,0,0,1,16.38,0V44.12C151.88,48,157.59,48,159.38,45.27Z"/><circle class="cls-2" cx="193.5" cy="18.94" r="7.5"/><path class="cls-2" d="M107.62,44.69v26.5a23.11,23.11,0,0,1-16.38,0V30H131.5V71.19a23.08,23.08,0,0,1-16.37,0V44.66A10.78,10.78,0,0,0,107.62,44.69Z"/><path class="cls-2" d="M259,30.56a23.11,23.11,0,0,1,16.38,0V44.19a48.82,48.82,0,0,0,8.37-13.63,23.11,23.11,0,0,1,16.38,0q-2.34,8.64-9.95,16.78,5.91,8.46,11.07,23.85a23.08,23.08,0,0,1-16.37,0,82,82,0,0,0-5.44-14.46q-1.95,1.43-4.06,2.83V71.19a23.11,23.11,0,0,1-16.38,0Z"/><path class="cls-2" d="M217.85,30H253.5V71.19a23.08,23.08,0,0,1-16.37,0V43.33a10.57,10.57,0,0,0-4.23,0l-1.71,13.84C229.26,70.8,220,76.12,205.94,70.31a19.83,19.83,0,0,1,2.94-12.5c4.68.75,6-.6,6.56-4.94l2.37-22.93Z"/><path class="cls-1" d="M336.38,57V41.5c-.34-7.61-4.88-12.31-14.57-12.38q-9,.16-13.12,2.94A8.66,8.66,0,0,0,311,40.69l3.94-.88c3.5-.64,6.08-.55,7.75.25.81.44.58,3.63,0,3.88l-7.69.31q-12,.87-11.56,12.56.06,15.21,19.25,15.5,19.8-.16,26.12-7.31C341,66.5,336.44,63,336.38,57Zm-13.69,2.06c-2.75,2.75-6.44-.12-6.38-3.37.32-2.82,3.07-4.38,6.38-3.82C323.38,52.62,323.5,58.06,322.69,59.06Z"/><polygon class="cls-3" points="172.75 94.56 178.63 102.45 175.38 102.45 170.92 96.41 168.25 99.12 168.25 102.45 165.38 102.45 165.38 88.6 168.25 88.6 168.25 95.68 175.31 88.6 178.63 88.6 172.75 94.56"/><polygon class="cls-3" points="219.12 88.6 219.12 91.47 214.25 91.47 214.25 102.45 211.38 102.45 211.38 91.47 206.63 91.47 206.63 88.6 219.12 88.6"/><polygon class="cls-3" points="91.69 88.6 94.56 88.6 99.62 97.67 104.63 88.6 107.5 88.6 107.5 102.45 104.63 102.45 104.63 93.81 101.06 100.27 98.19 100.27 94.56 93.76 94.56 102.45 91.69 102.45 91.69 88.6"/><path class="cls-3" d="M128.63,88.6V90a7.28,7.28,0,1,0,0,11.11v1.37h2.87V88.6ZM123.93,100a4.51,4.51,0,1,1,4.51-4.51A4.51,4.51,0,0,1,123.93,100Z"/><path class="cls-3" d="M148.86,88.25a7.23,7.23,0,0,0-4.67,1.7V88.6h-2.88v19.1h2.88v-6.6a7.28,7.28,0,1,0,4.67-12.85Zm0,11.79a4.51,4.51,0,1,1,4.52-4.51A4.51,4.51,0,0,1,148.86,100Z"/><path class="cls-3" d="M199.56,93.79a7.28,7.28,0,1,0-7.07,9,8.73,8.73,0,0,0,6.74-3L197,98.16a6.07,6.07,0,0,1-4.53,1.88,4.52,4.52,0,0,1-4.37-3.39h11.43Zm-11.23,0a4.52,4.52,0,0,1,8.32,0Z"/><ellipse class="cls-3" cx="25.31" cy="44.81" rx="25.31" ry="23.38"/><circle class="cls-4" cx="35.75" cy="39.31" r="6.87"/><path class="cls-5" d="M31,39.31a4.75,4.75,0,0,1,6.11-4.55A2.12,2.12,0,1,0,40,37.28a4.58,4.58,0,0,1,.46,2,4.75,4.75,0,0,1-9.5,0Z"/><circle class="cls-4" cx="12.5" cy="39.31" r="6.87"/><path class="cls-5" d="M7.75,39.31a4.75,4.75,0,0,1,6.11-4.55,2.12,2.12,0,1,0,2.93,2.52,4.58,4.58,0,0,1,.46,2,4.75,4.75,0,0,1-9.5,0Z"/><path class="cls-4" d="M37.62,49.92A12.88,12.88,0,0,1,12.8,52.54a21.54,21.54,0,0,0,24.82-2.62Z"/><path class="cls-2" d="M27.5,19.62C29.43,10.4,33.5,3.51,38.29.45A2.91,2.91,0,1,1,39.9,5.81c-5.56,1.21-9.08,5.71-10.29,14a1.06,1.06,0,0,1-1.05.91A1.07,1.07,0,0,1,27.5,19.62Z"/><path class="cls-2" d="M19.76,19.87C17.83,10.65,13.76,3.76,9,.7A2.91,2.91,0,1,0,7.36,6.06c5.56,1.21,9.08,5.71,10.29,14a1.06,1.06,0,0,0,1.05.91A1.07,1.07,0,0,0,19.76,19.87Z"/><path class="cls-2" d="M58.73,35.13C64.47,27.66,71,24.05,77.4,24.57A9.25,9.25,0,0,1,82.85,41C76,46.75,66.77,45.69,57.19,43.25c-1.25-.44-1.92-.55-2.15-1.09-.59-.62-1.63-2-1.79-6.1-.47-12,2.64-16.27,9.07-19.93a9,9,0,0,1,12.21,2.69,7.79,7.79,0,0,1,1.35,3.85C68,21.89,61.07,26.6,58.73,35.13Z"/><path class="cls-1" d="M74.06,65l.82,13.37L60.13,81.44l-1.6.24q11.93-11.9,11-29.06A24,24,0,0,1,74.06,65Z"/><path class="cls-1" d="M40.61,80.14A21.52,21.52,0,0,1,28.72,68c12.37-1.54,21.91-11.33,21.91-23.17a30.71,30.71,0,0,1,9.1,1.2Q58.86,66.49,40.61,80.14Z"/><path class="cls-3" d="M40.61,80.14Q58.87,66.49,59.73,46a19.09,19.09,0,0,1,9.84,6.61q.87,17.17-11,29.06C51.45,82.64,45.46,82.13,40.61,80.14Z"/></svg>