<svg xmlns="http://www.w3.org/2000/svg" width="96" height="40" viewBox="0 0 96 40" fill="none">
<path d="M95.9975 14.1786C95.9975 14.1786 95.9632 15.2184 95.8914 15.6929C95.6537 17.6844 94.9488 19.5775 93.8434 21.1933C92.7381 22.8092 91.2688 24.0943 89.5744 24.9273C87.2541 25.9496 84.8511 26.7382 82.396 27.283C75.5048 28.7234 22.8465 38.8966 19.4852 39.5091C16.4796 40.0543 9.00469 40.9192 4.47293 37.1534C3.15041 36.1036 2.06337 34.7469 1.29199 33.1836C0.520612 31.6203 0.0845881 29.8902 0.0160839 28.121C-0.255447 21.875 2.91865 15.5449 8.96099 10.2849C12.3941 7.31 17.1319 5.46246 20.4215 4.73892C23.6989 3.97684 27.1076 4.20154 30.2746 5.38842C30.2746 5.38842 30.3526 5.42544 30.4463 5.45909C30.5024 5.37832 30.5649 5.30429 30.5649 5.30429C31.9974 3.36925 35.0685 0.128469 39.4661 0.00395301C43.152 -0.0902752 45.2494 1.51833 46.3605 2.87791C47.3122 4.0581 47.9144 5.51854 48.0895 7.07107C48.0895 7.07107 48.0895 7.19222 48.1176 7.32346C48.2362 7.32346 48.3548 7.32346 48.3548 7.32346C52.0252 7.2427 84.3311 6.57973 87.3398 6.57973C89.5026 6.57973 92.6081 6.85905 94.4495 9.17101C95.4937 10.5931 96.0416 12.3654 95.9975 14.1786Z" fill="#FF8522"/>
  <path d="M39.4274 11.6313C41.2595 11.5438 43.0541 10.6588 43.2039 8.60256C43.3069 7.23289 42.3206 5.80601 40.3107 5.68486C39.3001 5.58678 38.2896 5.87376 37.4549 6.49589C36.8915 6.95441 36.4977 7.61405 36.3438 8.3569C36.2344 8.72293 36.2037 9.11102 36.2539 9.49176C36.3042 9.8725 36.4342 10.2359 36.6341 10.5544C37.1428 11.3049 38.1478 11.6852 39.4274 11.6313Z" fill="white"/>
<path d="M91.9664 14.9863C91.851 15.2956 91.6766 15.5752 91.4545 15.8071C91.2325 16.039 90.9677 16.218 90.6774 16.3325L90.4621 16.3863C90.4621 16.3863 90.6493 15.0065 90.6587 14.5892C90.6961 12.6744 90.281 10.6889 87.522 10.8538C86.3343 11.0069 85.2327 11.6 84.4056 12.5317C83.5784 13.4635 83.0771 14.6761 82.9872 15.9623V15.9858V16.006C82.9841 16.0295 82.9841 16.0533 82.9872 16.0767C82.5689 17.2579 81.798 18.9305 81.2456 19.0011C81.1889 19.0135 81.1301 19.0094 81.0752 18.9893C81.0204 18.9692 80.9715 18.9338 80.9335 18.8867C80.8781 18.8232 80.8355 18.7479 80.8086 18.6656C80.7818 18.5833 80.7711 18.4958 80.7775 18.4088C80.8357 17.848 80.9402 17.294 81.0896 16.7531C81.3246 15.8139 81.4916 14.8564 81.5889 13.8893C81.798 11.5605 80.4654 11.0994 79.0921 11.197C78.2694 11.2818 77.4943 11.6514 76.8824 12.2504L76.3893 12.8527C76.3893 12.8527 76.6202 11.6985 76.6858 11.3855C76.2956 11.4057 73.8519 11.4932 73.6022 11.5066L72.5129 16.2483C72.1855 16.7605 71.7155 17.1471 71.1709 17.3521L70.9649 17.4127L70.9462 17.1771C70.9286 16.9309 70.892 16.6866 70.8369 16.4469C70.7745 15.9219 70.3407 14.0912 68.6959 14.246C64.4606 14.6633 64.5792 20.3069 67.1042 19.5228L67.3944 19.4218L67.3445 19.7583C67.0074 21.9962 66.1148 23.1876 64.9007 23.3659C64.8114 23.3781 64.7206 23.3683 64.6353 23.3374C64.5499 23.3066 64.4721 23.2553 64.4076 23.1876C64.2875 23.0356 64.1978 22.8585 64.1441 22.6674C64.0903 22.4763 64.0738 22.2753 64.0955 22.077C64.1205 20.9698 66.1523 11.7859 66.1523 11.7859C66.1523 11.7859 62.4913 11.9273 62.2197 11.9475C62.0294 12.7888 61.2148 16.4469 61.2148 16.4502L61.0962 16.9315C60.937 17.544 60.8309 17.9411 60.7591 18.3819V18.4055V18.4324C60.7476 18.4569 60.7392 18.4829 60.7341 18.5098C60.1099 20.2396 59.0363 22.1107 58.2092 22.2116C58.1336 22.2233 58.0566 22.216 57.984 22.1903C57.9115 22.1646 57.8454 22.1213 57.791 22.0636C57.7308 21.9944 57.6843 21.9129 57.6543 21.8238C57.6242 21.7347 57.6113 21.6399 57.6162 21.5453L57.688 20.7948C57.688 20.7948 59.7822 12.56 59.9195 12.0249C59.4514 12.0249 55.4377 12.109 55.4377 12.109L55.0445 13.6099C54.9383 12.385 52.5476 10.7494 50.753 12.496C48.8585 14.3368 48.3405 17.0997 48.0533 19.8357L48.0284 19.9434C47.6195 23.2145 46.9141 25.4726 44.7981 25.762C44.3837 25.8583 43.9513 25.8002 43.5715 25.5971C44.1792 25.14 44.696 24.5565 45.0914 23.8808C45.878 22.4741 45.5253 21.2424 44.7044 20.667C43.0659 19.4992 41.2713 20.9194 40.9592 22.7198C40.8087 23.6161 40.9781 24.5406 41.4336 25.3077C40.894 25.7214 40.2791 26.007 39.6296 26.1457C39.4316 26.1733 39.2304 26.1502 39.0422 26.0783C38.8541 26.0064 38.6843 25.8876 38.5466 25.7317C38.0785 25.0587 38.7183 22.851 38.8025 22.5751C38.8025 22.5751 41.702 13.2532 41.8737 12.6811L35.7502 12.9066C35.5691 13.4888 34.895 15.7705 34.1896 17.8704C32.7945 21.9761 28.8246 27.5995 24.7298 28.7302C22.545 29.346 20.8503 29.2384 19.7642 28.5148C18.2942 27.5389 17.4546 25.1933 18.0195 21.9256C18.2456 20.3595 18.6951 18.8406 19.3522 17.4228C22.7853 9.57158 28.2846 11.3451 27.9476 11.9441C27.5838 12.0757 27.2334 12.2471 26.902 12.4556C26.0219 12.9638 24.6049 14.4445 24.5487 16.2853C24.5039 16.7876 24.5571 17.2944 24.705 17.7732C24.8528 18.2519 25.0919 18.692 25.407 19.0651C25.7319 19.3789 26.1164 19.6125 26.5336 19.7497C26.9508 19.8869 27.3907 19.9243 27.8227 19.8593C28.9049 19.7749 29.9181 19.2552 30.6616 18.4031C31.405 17.551 31.8243 16.4288 31.8364 15.2589C31.8829 14.6368 31.8102 14.011 31.6228 13.4205C31.4354 12.83 31.1373 12.2873 30.7471 11.8263C29.5362 10.4533 28.0911 9.76341 24.9077 9.86773C19.992 10.0091 12.4859 13.8018 10.3417 22.2352C9.61766 25.0721 10.5727 28.4946 12.1488 30.0595C14.3336 32.22 17.0645 33.0176 21.8241 32.0517C26.0749 31.1835 29.558 28.0706 32.1235 24.7928C32.1235 24.8467 32.1235 24.8938 32.1235 24.9442C31.4993 27.3437 32.3389 29.9047 36.0623 29.3932C38.302 29.0094 40.4253 28.0579 42.2575 26.6168C42.8382 27.0893 43.5043 27.4252 44.2129 27.6026C44.9215 27.7799 45.6568 27.7949 46.3711 27.6466C47.0733 27.5322 48.8866 27.0038 50.4753 24.5606C51.7237 22.6188 52.3635 18.8396 52.7099 16.7868C52.7826 16.1569 52.9187 15.5374 53.1157 14.9392C53.2123 14.6393 53.4124 14.391 53.6743 14.246C54.3422 13.9431 54.6887 14.6464 54.5513 15.1681C54.414 15.6897 53.7336 18.2911 53.7336 18.3012L53.5994 18.7084C53.1024 20.0661 52.7973 21.4966 52.6943 22.952C52.6496 23.4128 52.6976 23.8786 52.8349 24.3177C52.9723 24.7567 53.1958 25.1587 53.4902 25.4962C53.7707 25.7585 54.104 25.9468 54.4637 26.0461C54.8234 26.1454 55.1996 26.153 55.5626 26.0683C57.9033 25.6947 59.5637 23.1371 60.3534 21.6463L60.4626 21.4376L60.6249 21.1381L60.7154 21.7068C61.093 23.9313 62.7191 24.8231 65.166 24.4361C68.3401 23.9313 70.2439 22.1578 70.8307 19.0684L70.8588 18.9372L70.9711 18.8901C71.2795 18.7682 71.5722 18.6042 71.8419 18.4021L72.0791 18.2271L70.9524 23.1775C71.4018 23.1034 74.3856 22.565 74.6165 22.5246C74.6821 22.2285 75.9804 16.2349 75.9804 16.2349C76.2051 15.1916 76.8356 13.2061 77.5409 13.1657C77.6116 13.1607 77.6825 13.1732 77.748 13.2024C77.8134 13.2316 77.8718 13.2766 77.9186 13.334C78.0845 13.5534 78.1681 13.8321 78.1527 14.1147C78.0888 14.8788 77.9421 15.6321 77.7157 16.3594C77.3999 17.5031 77.1764 18.6741 77.0478 19.8593C76.8762 21.9458 78.5053 21.9323 78.986 21.8515C80.1376 21.6698 81.6701 21.027 82.9716 17.9377L83.034 18.2742C83.1661 19.062 83.5784 19.763 84.1831 20.2276C84.7877 20.6922 85.5368 20.8837 86.2705 20.7612C87.1068 20.657 87.9008 20.3086 88.5669 19.7535C89.233 19.1984 89.7458 18.4577 90.0501 17.6113L90.1 17.4901L90.2124 17.4733C90.6755 17.3521 91.1009 17.1018 91.4461 16.7474C91.7912 16.393 92.0438 15.947 92.1786 15.4541C92.125 15.2898 92.0538 15.1328 91.9664 14.9863ZM42.579 24.5068C41.7519 23.1068 42.5572 21.5285 43.3936 21.5621C44.0459 21.5991 44.3081 22.0333 43.9429 22.9082C43.5986 23.5394 43.1337 24.0843 42.579 24.5068ZM67.744 17.8132C67.5317 18.049 67.2433 18.1875 66.9388 18.2002C66.5049 18.281 66.3988 18.0286 66.3801 17.9175C66.3784 17.66 66.4417 17.4069 66.5632 17.1852C66.6847 16.9634 66.8598 16.7815 67.0698 16.6589C67.1502 16.6127 67.2408 16.5914 67.3317 16.5973C67.4226 16.6032 67.5102 16.6362 67.5848 16.6925C67.7712 17.0294 67.8293 17.4311 67.7471 17.8132H67.744ZM88.2742 16.2719C88.1001 16.1008 87.9876 15.8688 87.9568 15.6169C87.9259 15.365 87.9787 15.1095 88.1057 14.8955C88.1473 14.8341 88.2069 14.7896 88.275 14.7695C88.343 14.7493 88.4153 14.7546 88.4802 14.7844C88.4679 15.2874 88.3987 15.7869 88.2742 16.2719ZM88.5364 13.408V13.4888C88.5364 13.4888 87.288 13.5393 87.1506 15.5652C87.1314 15.9184 87.2007 16.2706 87.3511 16.585C87.5016 16.8994 87.7277 17.1644 88.0058 17.3521L87.9496 17.618C87.6875 18.4728 87.3254 19.3982 86.6138 19.4958C86.5096 19.5187 86.4019 19.5155 86.2991 19.4863C86.1963 19.4571 86.1011 19.4028 86.0208 19.3276C85.7836 19.0954 85.6806 18.88 85.7087 18.0959C85.7462 16.2719 86.645 11.7018 87.8373 11.648C87.9189 11.6439 88.0003 11.6603 88.075 11.6959C88.1498 11.7315 88.2158 11.7854 88.268 11.8533C88.4098 12.0785 88.5083 12.3322 88.5576 12.5993C88.607 12.8663 88.6061 13.1413 88.5551 13.408H88.5364Z" fill="white"/>
</svg>
