<svg xmlns="http://www.w3.org/2000/svg" width="276.162" height="261.728" viewBox="0 0 276.162 261.728">
  <g id="Сгруппировать_19528"  transform="translate(6003.054 7732)">
    <path id="Контур_91872"  d="M1198.078,522.421l-64.03-48.7,22.729,69.081-46.417-63.75-5.213,64.287-21.736-69.091-32.361,49.706,6.253-63.915-54.583,27.558,28.887-45.779-64.091.015,51.936-32.161-68.538-24.65,63.29-3.561-59.1-41.817,71.9,26.241-47.21-63.358,64.03,48.7-22.729-69.081,46.416,63.75,5.213-64.287L1094.46,350.7l32.361-49.706-6.253,63.915,54.583-27.558-33.29,48.5,68.191-.048-41.558,24.409,58.581,26.886-68.816.216,64.5,47.989-71.9-26.241Z" transform="translate(-6953.967 -8013.608)" fill="#ef2525"/>
    <ellipse id="Эллипс_533"  cx="60.002" cy="40.151" rx="60.002" ry="40.151" transform="translate(-5864.909 -7718.684)"/>
    <g id="Сгруппировать_19278"  transform="translate(-5847.327 -7692.744)">
      <path id="Контур_10541"  d="M1102.58,328.143c0-.6.066-9.059.066-9.059l-3.786,9.059h-2.686l-3.821-9.059s.067,8.61.067,9.059h-2.8V316.365h4.271l3.654,8.643,3.62-8.643h4.221v11.778Z" transform="translate(-1088.683 -316.365)" fill="#3bc775"/>
      <path id="Контур_10542"  d="M1116.131,328.143l-1-2.219h-6.039l-1,2.219h-3.22l5.689-11.778h3.186l5.689,11.778Zm-4-8.909-2.086,4.6h4.137Z" transform="translate(-1086.708 -316.365)" fill="#3bc775"/>
      <path id="Контур_10543"  d="M1126.335,316.365c1.5,0,3.035.167,3.87,1.586a4.057,4.057,0,0,1,.517,2.1,3.669,3.669,0,0,1-.785,2.4c-1,1.135-2.217,1.251-3.919,1.251h-4.1v4.438h-2.9V316.365Zm-4.422,5.271h3.621a4.142,4.142,0,0,0,1.433-.166,1.417,1.417,0,0,0,.818-1.419,1.5,1.5,0,0,0-1.551-1.651h-4.321Z" transform="translate(-1084.877 -316.365)" fill="#3bc775"/>
      <path id="Контур_10544"  d="M1133.661,316.365V320.8h3.321c1.9,0,2.3-1.285,2.685-2.519a6.811,6.811,0,0,1,.884-1.919h3.053a7.4,7.4,0,0,0-1.3,2.619c-.35,1.035-.617,2.336-2.1,2.753,2,.367,2.351,2.152,2.653,3.487a8.32,8.32,0,0,0,1.25,2.92h-3.053a6.1,6.1,0,0,1-1.018-2.435c-.318-1.352-.584-2.737-2.853-2.737h-3.519v5.172h-2.952V316.365Z" transform="translate(-1083.363 -316.365)" fill="#3bc775"/>
      <path id="Контур_10545"  d="M1143.958,328.143V316.365h10.977v2.119h-8.025v2.652h7.757v2.1h-7.757v2.8h8.358v2.1Z" transform="translate(-1081.648 -316.365)" fill="#3bc775"/>
      <path id="Контур_10546"  d="M1162.176,318.534v9.609h-2.952v-9.609h-4.372v-2.169h11.7v2.169Z" transform="translate(-1080.238 -316.365)" fill="#3bc775"/>
      <path id="Контур_10547"  d="M1091.476,339.326c.7,1.484,2.536,1.835,3.987,1.835.567,0,2.937-.068,2.937-1.552,0-.968-1.135-1.135-2.586-1.352a16.325,16.325,0,0,1-4.287-.95,3.038,3.038,0,0,1-1.852-2.8c0-2.619,2.586-3.688,5.506-3.688,3.453,0,5.238,1.152,6.172,2.82l-2.786.7c-.634-1.2-2.269-1.417-3.47-1.417-.55,0-2.569.033-2.569,1.368,0,.6.418.85.935,1.018.833.251,2.935.567,3.786.717,1.535.267,3.971.733,3.971,3.353,0,3.236-3,3.954-5.99,3.954-3.437,0-5.289-1.152-6.439-3.321Z" transform="translate(-1088.79 -314.494)" fill="#3bc775"/>
      <path id="Контур_10548"  d="M1104.535,331.143v7.172c0,2,1.618,2.62,3.437,2.62,1.485,0,3.387-.485,3.387-2.319v-7.474h2.937v7.489c0,3.22-2.721,4.688-6.291,4.688-3.653,0-6.406-1.5-6.406-4.721v-7.457Z" transform="translate(-1087.132 -314.452)" fill="#3bc775"/>
      <path id="Контур_10549"  d="M1122.547,331.143c1.5,0,3.036.166,3.872,1.585a4.074,4.074,0,0,1,.516,2.1,3.671,3.671,0,0,1-.784,2.4c-1,1.135-2.219,1.253-3.92,1.253h-4.1v4.437h-2.9V331.143Zm-4.421,5.271h3.62a4.116,4.116,0,0,0,1.434-.167,1.417,1.417,0,0,0,.818-1.419,1.5,1.5,0,0,0-1.551-1.651h-4.321Z" transform="translate(-1085.368 -314.452)" fill="#3bc775"/>
      <path id="Контур_10550"  d="M1126.963,342.92V331.143h10.976v2.119h-8.024v2.651h7.757v2.1h-7.757v2.8h8.357v2.1Z" transform="translate(-1083.848 -314.452)" fill="#3bc775"/>
      <path id="Контур_10551"  d="M1148.322,342.92l-3.135-4.737h-3.37v4.737h-2.936V331.143h8.106a5.985,5.985,0,0,1,1.953.216,3.276,3.276,0,0,1,2.353,3.3,3.686,3.686,0,0,1-.317,1.552,3.241,3.241,0,0,1-2.753,1.785l3.587,4.921Zm-6.506-6.823h4.854c.55,0,1.634-.133,1.634-1.4,0-1.25-.934-1.484-1.751-1.484h-4.738Z" transform="translate(-1082.305 -314.452)" fill="#3bc775"/>
    </g>
    <g id="Сгруппировать_19279"  transform="translate(-5522.036 -8756.568)">
      <path id="Контур_10553"  d="M402.472,599.057h-8.1v21.56h-4.462v-21.56h-8.1V595.2h20.667Z" transform="translate(-794.805 534.298)"/>
      <path id="Контур_10554"  d="M457.669,620.617h-4.462V609.194H441.57v11.423h-4.461V595.2h4.461v10.1h11.637V595.2h4.462Z" transform="translate(-826.954 534.298)"/>
      <path id="Контур_10555"  d="M509.964,595.2a10.187,10.187,0,0,1,6,1.57,6.292,6.292,0,0,1,2.57,5.5q0,4.784-4.212,6.247a4.12,4.12,0,0,1,3.033,2.176,11.051,11.051,0,0,1,.75,3.606q.429,5.319,1.357,6.318h-4.784q-.571-.856-.821-5.069-.18-3.105-1.249-4.212-1.178-1.214-4.319-1.214h-5.925v10.494h-4.427V595.2Zm-7.6,11.6h5.889a9.2,9.2,0,0,0,4.033-.677,3.461,3.461,0,0,0,1.821-3.391q0-3.89-5.283-3.891h-6.461Z" transform="translate(-862.312 534.298)"/>
      <path id="Контур_10556"  d="M627.533,602q-.393-4.462-5.533-4.462a6,6,0,0,0-3.569.928,3.088,3.088,0,0,0-1.285,2.606,2.406,2.406,0,0,0,1.392,2.356,44.036,44.036,0,0,0,5.069,1.5,25.14,25.14,0,0,1,6.211,2.176,5.964,5.964,0,0,1,2.963,5.426,6.96,6.96,0,0,1-3.177,6.139,12.183,12.183,0,0,1-6.925,1.82,11.982,11.982,0,0,1-7.6-2.212,8,8,0,0,1-3.107-6.782h4.391a4.91,4.91,0,0,0,1.928,4.212,7.716,7.716,0,0,0,4.641,1.251,6.71,6.71,0,0,0,4.033-1.071,3.4,3.4,0,0,0,1.428-2.927,2.893,2.893,0,0,0-1.57-2.677,25.128,25.128,0,0,0-4.355-1.392,30.926,30.926,0,0,1-6.818-2.321,5.605,5.605,0,0,1-2.748-5.139,6.571,6.571,0,0,1,2.57-5.426,12.649,12.649,0,0,1,13.421-.142A7.559,7.559,0,0,1,631.781,602Z" transform="translate(-929.089 534.992)"/>
      <path id="Контур_10557"  d="M690.638,620.617h-4.462V609.194H674.54v11.423h-4.462V595.2h4.462v10.1h11.636V595.2h4.462Z" transform="translate(-962.869 534.298)"/>
      <path id="Контур_10558"  d="M402.472,669.53h-8.1v21.56h-4.462V669.53h-8.1v-3.855h20.667Z" transform="translate(-794.805 493.331)"/>
      <path id="Контур_10559"  d="M448.3,665.675a9.748,9.748,0,0,1,6.389,1.891,7.1,7.1,0,0,1,2.463,5.855,7.622,7.622,0,0,1-2.178,5.747,8.435,8.435,0,0,1-6.069,2.142h-7.174v9.78h-4.462V665.675ZM441.733,677.7h6.211q4.855,0,4.855-4.177,0-4.14-5.247-4.141h-5.819Z" transform="translate(-827.048 493.331)"/>
      <path id="Контур_10560"  d="M505.639,691.041h-4.783l-2.427-6.746H488.363l-2.5,6.746h-4.6l9.817-25.451h4.747Zm-12.172-20.81-3.962,10.708h7.746Z" transform="translate(-852.619 493.381)"/>
      <path id="Контур_10561"  d="M544.816,665.675h4.462v21.559h7.245V665.675h4.461v21.559h7.245V665.675h4.461V691.09H544.816Z" transform="translate(-889.565 493.331)"/>
      <path id="Контур_10562"  d="M627.354,691.09h-4.639v-4.533h4.639Zm-.142-18.133-1.142,11.1h-2.106l-1.107-11.066v-7.317h4.355Z" transform="translate(-934.848 493.331)"/>
      <path id="Контур_10563"  d="M734.371,620.7h-4.64v-4.533h4.64Zm-.142-18.133-1.142,11.1H730.98L729.873,602.6v-7.317h4.355Z" transform="translate(-997.546 534.249)"/>
    </g>
    <path id="Контур_91873"  d="M1530.058,415.782l-.774-2.568h.987v2.568Zm11.3,0v-2.568h1l-.774,2.568Zm-12.587-4.252-.774-2.574h2.271v2.574Zm12.587,0v-2.574h2.271l-.774,2.574Zm-8.529,11.936v-1.71h-2.6l1,2.09a.7.7,0,0,0,.3.335.852.852,0,0,0,1.045-.129A.791.791,0,0,0,1532.833,423.466Zm9.381,0v-1.71h-2.6a11.033,11.033,0,0,1,.49,1.045,11.04,11.04,0,0,0,.5,1.045.979.979,0,0,0,.316.335.739.739,0,0,0,.432.129.819.819,0,0,0,.6-.252A.8.8,0,0,0,1542.213,423.466Zm-11.091-7.684v-2.568h2.568v2.568Zm3.407,0v-2.568h2.568v2.568Zm3.419,0v-2.568h2.568v2.568Zm-3.419-4.252v-2.574h2.568v2.574Zm3.419,0v-2.574h2.568v2.574Zm-6.826,0v-2.574h2.568v2.574Zm11.981,5.129,2.5-8.368a9.533,9.533,0,0,1,.432-1.174,5.638,5.638,0,0,1,.581-.993,4.763,4.763,0,0,1,.787-.826,5.6,5.6,0,0,1,1.058-.665,1.13,1.13,0,0,0,.419-.31.76.76,0,0,0,.148-.5.787.787,0,0,0-.258-.594.82.82,0,0,0-.6-.252,1.055,1.055,0,0,0-.406.1,5.2,5.2,0,0,0-.478.226,4.533,4.533,0,0,0-.458.277c-.142.1-.258.181-.355.258a6.093,6.093,0,0,0-1.439,1.523,8.006,8.006,0,0,0-.916,1.89h-17.278a.871.871,0,0,0-.858.845,3.094,3.094,0,0,0,.123.632c.084.323.187.7.316,1.136s.265.9.419,1.406.3.987.445,1.445.271.877.387,1.245.2.632.258.8c.11.355.213.71.3,1.071a9.86,9.86,0,0,0,.335,1.045,1.146,1.146,0,0,0,.31.445.755.755,0,0,0,.51.161h12.181l.852,1.71h-13.891a1.632,1.632,0,0,0-.665.135,1.752,1.752,0,0,0-.542.368,1.686,1.686,0,0,0-.49,1.206h16.968a.848.848,0,0,0,.613-.252.829.829,0,0,0,.258-.606,1.06,1.06,0,0,0-.1-.355c-.064-.168-.155-.361-.258-.574s-.213-.452-.335-.7-.245-.484-.361-.71-.226-.439-.323-.626A3.547,3.547,0,0,0,1543.1,416.659Zm5.084-16.239a3.239,3.239,0,0,1,1.31.271,3.5,3.5,0,0,1,1.832,1.819,3.238,3.238,0,0,1,.271,1.31,3.361,3.361,0,0,1-.265,1.3,3.478,3.478,0,0,1-.716,1.09,3.764,3.764,0,0,1-1.058.755,2.981,2.981,0,0,1-1.277.284,1.3,1.3,0,0,1-.161-.006l-.161-.019c-.09,0-.174.077-.258.232a3.486,3.486,0,0,0-.232.535c-.071.2-.136.394-.187.581s-.084.31-.1.361l-2.265,7.561,1.187,2.4a2.556,2.556,0,0,1-.219,2.639,2.437,2.437,0,0,1-.555.568,2.237,2.237,0,0,1-.71.361,3.418,3.418,0,0,1,.142.987,3.249,3.249,0,0,1-.271,1.316,3.418,3.418,0,0,1-.742,1.078,3.53,3.53,0,0,1-1.09.736,3.241,3.241,0,0,1-1.31.271,3.394,3.394,0,0,1-3.136-2.077,3.273,3.273,0,0,1-.265-1.323,3.473,3.473,0,0,1,.11-.858h-2.781a3.439,3.439,0,0,1,.11.858,3.395,3.395,0,0,1-2.078,3.136,3.385,3.385,0,0,1-2.639-.006,3.5,3.5,0,0,1-1.084-.736,3.583,3.583,0,0,1-.743-1.078,3.247,3.247,0,0,1-.271-1.316,3.484,3.484,0,0,1,.11-.858h-3.516v-1.71a3.434,3.434,0,0,1,.135-.968,3.254,3.254,0,0,1,.4-.871,3.394,3.394,0,0,1,.632-.723,3.543,3.543,0,0,1,.819-.536,1.2,1.2,0,0,1-.1-.206c-.026-.077-.044-.148-.071-.219l-2.568-8.536a2.585,2.585,0,0,1-.11-.736,2.476,2.476,0,0,1,.2-.994,2.545,2.545,0,0,1,.554-.819,2.67,2.67,0,0,1,.82-.555,2.462,2.462,0,0,1,.994-.2H1543a8.949,8.949,0,0,1,1.9-2.574,3.343,3.343,0,0,1,.477-1.013,3.58,3.58,0,0,1,.756-.806,3.5,3.5,0,0,1,.968-.529A3.224,3.224,0,0,1,1548.188,400.42Z" transform="translate(-7389.282 -8027.988)"/>
  </g>
</svg>
