<svg width="152" height="24" viewBox="0 0 152 24" fill="none" xmlns="http://www.w3.org/2000/svg">
<g clip-path="url(#clip0_1_288)">
<path d="M15.6358 8.50329C17.128 7.42879 18.7446 6.72911 20.4855 6.27932C21.1073 6.1169 21.7415 6.00445 22.3881 5.86701C22.4129 5.97946 22.4378 6.02944 22.4503 6.09191C22.6368 8.25341 22.4751 10.3899 21.7788 12.464C21.729 12.6264 21.6793 12.7263 21.4554 12.6888C17.8866 12.1266 14.7032 12.9762 11.9177 15.2751C11.8804 15.3126 11.8307 15.3376 11.7934 15.3626C11.7809 15.3626 11.7685 15.3626 11.7312 15.3751C10.3882 14.2131 8.83383 13.3635 7.09291 12.9012C5.36444 12.439 3.61109 12.389 1.82044 12.7138C1.02459 10.5024 0.875368 8.22842 1.08676 5.892C3.54891 6.26683 5.8121 7.04147 7.87633 8.50329C8.54782 5.87951 9.90324 3.69302 11.7561 1.74393C12.6763 2.70598 13.4597 3.743 14.1436 4.86748C14.8151 5.99196 15.2876 7.20389 15.6358 8.50329Z" fill="#FF6000"/>
<path d="M60.7507 7.4413C62.8896 7.4413 64.9414 7.4413 66.9807 7.4413C68.4605 7.4413 69.9527 7.41631 71.4325 7.47879C72.0915 7.50377 72.7755 7.6662 73.3972 7.89109C74.8646 8.42834 75.735 9.50284 75.9589 11.0771C76.2076 12.7638 75.6977 14.1632 74.305 15.1627C73.7703 15.5375 73.1734 15.8249 72.5516 16.1872C74.2801 17.8865 75.6977 19.8605 77.5132 21.3224C76.22 21.3224 74.8148 21.3598 73.4097 21.3099C72.7506 21.2849 72.2159 20.91 71.7931 20.3728C70.7734 19.0734 69.7289 17.799 68.6595 16.5246C68.5102 16.3497 68.2367 16.2247 68.0004 16.2122C67.1548 16.1747 66.2968 16.1997 65.389 16.1997C65.389 17.0244 65.389 17.799 65.389 18.5736C65.389 19.0234 65.389 19.4732 65.389 19.9105C65.3766 20.5102 65.5134 21.0225 66.1103 21.3473C64.9165 21.2724 63.6854 21.6847 62.5663 20.9475C61.8077 20.4478 61.3974 19.8106 61.4098 18.8485C61.4347 15.7624 61.4222 12.6889 61.4098 9.6028C61.3974 8.87814 61.3103 8.14098 60.7507 7.4413ZM65.4263 10.19V13.5385C66.4958 13.5385 67.5403 13.551 68.5724 13.5385C69.2439 13.526 69.9278 13.5385 70.5993 13.451C71.5195 13.3261 72.0294 12.7263 72.0418 11.8518C72.0542 10.9147 71.5817 10.265 70.6118 10.215C68.8957 10.1276 67.1797 10.19 65.4263 10.19Z" fill="#FF6000"/>
<path d="M42.2344 21.3972C42.5328 20.9849 42.8934 20.6351 43.0924 20.1978C44.8706 16.4121 46.6115 12.6138 48.3649 8.81558C48.5638 8.37829 48.7752 7.94099 48.3276 7.46621H54.8436C54.8809 7.87852 54.8063 8.30332 54.9555 8.62817C56.7461 12.5513 58.5492 16.4745 60.3772 20.3727C60.5513 20.7475 60.8995 21.0349 61.173 21.3598C61.1108 21.3598 60.9989 21.3847 60.8746 21.3847C59.6186 21.3847 58.3751 21.3723 57.1192 21.3972C56.8332 21.3972 56.6715 21.3098 56.5596 21.0349C56.2487 20.3102 55.913 19.5856 55.5524 18.8734C55.4777 18.7235 55.2415 18.5736 55.0798 18.5736C52.8166 18.5486 50.5659 18.5486 48.3027 18.5736C48.1286 18.5736 47.8799 18.7485 47.8053 18.9109C47.4447 19.6106 47.1338 20.3477 46.7856 21.0599C46.7234 21.1973 46.5494 21.3723 46.425 21.3723C45.0074 21.4097 43.5898 21.3972 42.2344 21.3972ZM53.9234 15.4125C53.1648 13.8258 52.456 12.3265 51.6975 10.7397C50.9389 12.3389 50.2301 13.8383 49.4716 15.4125H53.9234Z" fill="#FF6000"/>
<path d="M130.114 21.3972C130.412 20.9849 130.773 20.6351 130.972 20.1978C132.75 16.4121 134.491 12.6138 136.244 8.81558C136.443 8.37829 136.655 7.94099 136.207 7.46621H142.723C142.76 7.87852 142.686 8.30332 142.835 8.62817C144.625 12.5513 146.429 16.4745 148.257 20.3727C148.431 20.7475 148.779 21.0349 149.052 21.3598C148.99 21.3598 148.878 21.3847 148.754 21.3847C147.498 21.3847 146.254 21.3723 144.999 21.3972C144.713 21.3972 144.551 21.3098 144.439 21.0349C144.128 20.3102 143.792 19.5856 143.432 18.8734C143.357 18.7235 143.121 18.5736 142.959 18.5736C140.696 18.5486 138.445 18.5486 136.182 18.5736C136.008 18.5736 135.759 18.7485 135.685 18.9109C135.324 19.6106 135.013 20.3477 134.665 21.0599C134.603 21.1973 134.429 21.3723 134.304 21.3723C132.899 21.4097 131.469 21.3972 130.114 21.3972ZM141.815 15.4125C141.057 13.8258 140.348 12.3265 139.589 10.7397C138.831 12.3389 138.122 13.8383 137.363 15.4125H141.815Z" fill="#FF6000"/>
<path d="M106.698 8.14101C106.188 9.29047 105.666 10.4774 105.144 11.6644C102.967 9.86521 100.505 9.92768 97.981 10.365C97.695 10.415 97.409 10.5524 97.1727 10.7148C96.5385 11.1521 96.5758 11.9392 97.2971 12.1766C98.1426 12.464 99.0504 12.5764 99.9457 12.7389C101.363 13.0013 102.793 13.2386 104.211 13.5135C104.547 13.576 104.858 13.7509 105.168 13.8883C107.979 15.2252 107.581 18.4737 106.039 19.8606C104.882 20.9101 103.477 21.3099 101.973 21.4848C99.3488 21.7847 96.8245 21.2474 94.3002 20.6227C93.7655 20.4853 93.2183 20.4478 92.6215 20.3478C92.9075 19.2733 93.2183 18.1239 93.5168 17.0119C96.0287 18.5362 98.7395 18.8485 101.562 18.5862C101.935 18.5487 102.333 18.3863 102.657 18.1863C103.316 17.774 103.303 16.9744 102.607 16.6371C102.072 16.3747 101.463 16.2248 100.866 16.1248C99.3613 15.8624 97.8318 15.6875 96.3271 15.4251C95.8173 15.3377 95.3074 15.1378 94.8225 14.9379C92.037 13.8259 92.1862 10.8647 93.6784 9.27798C94.7852 8.09103 96.2028 7.57877 97.7572 7.36637C100.107 7.05401 102.42 7.41635 104.721 7.87863C105.367 8.01607 106.002 8.05355 106.698 8.14101Z" fill="#FF6000"/>
<path d="M76.1326 7.47881H81.6786C81.2558 8.26595 81.1937 9.07807 81.1937 9.91518C81.1937 11.9642 81.1937 14.0258 81.1937 16.0748C81.1937 17.3367 81.7532 18.0364 82.9843 18.3363C84.0288 18.5862 85.0858 18.5737 86.1055 18.1988C87.0257 17.874 87.4485 17.2493 87.4485 16.2747C87.4609 14.0383 87.4858 11.8018 87.4361 9.56534C87.4236 8.86567 87.2247 8.17849 87.1128 7.47881H92.4723C91.7013 8.04105 91.6764 8.84068 91.664 9.61532C91.6516 11.5019 91.6889 13.3886 91.6516 15.2752C91.6391 16.0623 91.5521 16.8745 91.3531 17.6241C90.893 19.3483 89.7366 20.5103 88.0827 21.085C85.6205 21.9471 83.1211 21.9596 80.6589 21.1225C78.3833 20.3478 77.1647 18.6611 77.0403 16.2872C76.9284 14.2257 76.9906 12.1516 76.9657 10.0776C76.9657 9.67779 76.9657 9.27798 76.916 8.89066C76.8911 8.3659 76.7419 7.85364 76.1326 7.47881Z" fill="#FF6000"/>
<path d="M115.229 7.47881H120.775C120.352 8.26595 120.29 9.07807 120.29 9.91518C120.29 11.9642 120.29 14.0258 120.29 16.0748C120.29 17.3367 120.849 18.0364 122.08 18.3363C123.125 18.5862 124.182 18.5737 125.201 18.1988C126.122 17.874 126.544 17.2493 126.544 16.2747C126.557 14.0383 126.582 11.8018 126.532 9.56534C126.52 8.86567 126.321 8.17849 126.209 7.47881H131.568C130.797 8.04105 130.772 8.84068 130.76 9.61532C130.748 11.5019 130.785 13.3886 130.748 15.2752C130.735 16.0623 130.648 16.8745 130.449 17.6241C129.989 19.3483 128.833 20.5103 127.179 21.085C124.716 21.9471 122.217 21.9596 119.755 21.1225C117.479 20.3478 116.261 18.6611 116.136 16.2872C116.024 14.2257 116.087 12.1516 116.062 10.0776C116.062 9.67779 116.062 9.27798 116.012 8.89066C115.975 8.3659 115.838 7.85364 115.229 7.47881Z" fill="#FF6000"/>
<path d="M41.7121 7.47872H46.7483C46.5618 7.77858 46.3628 8.06594 46.2136 8.3658C44.4105 12.2515 42.6074 16.1247 40.8043 20.0104C40.6054 20.4477 40.4188 20.91 40.8789 21.3723H34.1889C34.5992 20.8725 34.4127 20.3977 34.1889 19.9104C32.3609 15.9998 30.5454 12.0891 28.7174 8.17839C28.5931 7.92851 28.4065 7.70361 28.2325 7.45373H33.2935C32.8583 7.97848 33.0075 8.46576 33.2438 8.95303C34.6117 11.8517 35.9795 14.7503 37.3474 17.649C37.3847 17.7365 37.4469 17.8114 37.5339 17.9613C38.0437 16.8993 38.5287 15.8873 39.0137 14.8753C39.9587 12.8512 40.9038 10.8272 41.8489 8.8156C42.0478 8.39079 42.1225 7.9535 41.7121 7.47872Z" fill="#FF6000"/>
<path d="M7.88875 22.3593C5.00381 21.6221 1.78312 17.0118 2.06913 14.0507C5.30225 13.5009 8.18719 14.2506 10.7861 16.3621C9.24418 18.0863 8.28667 20.0729 7.88875 22.3593Z" fill="#FF6000"/>
<path d="M9.21945 22.8716C9.60494 22.9715 9.96556 23.0465 10.3386 23.0965C10.5624 23.1215 10.7738 23.1464 11.0101 23.1589L11.1469 23.1714C11.7313 23.1714 12.3158 23.1839 12.9002 23.1215C17.0536 22.6967 20.5105 19.5106 21.3064 15.3751C21.3934 14.9503 21.4183 14.513 21.468 14.0882C15.3997 12.8512 9.85364 17.2617 9.21945 22.8716Z" fill="#FF6000"/>
<path d="M111.249 17.9364C110.241 17.9364 109.421 18.6736 109.421 19.5856C109.421 20.4977 110.241 21.2349 111.249 21.2349C112.256 21.2349 113.077 20.4977 113.077 19.5856C113.077 18.686 112.256 17.9364 111.249 17.9364Z" fill="#FF6000"/>
<path d="M108.337 10.9908C107.67 10.7683 107.012 10.4512 106.541 9.92872C106.473 9.85385 106.408 9.76974 106.393 9.66991C106.379 9.57009 106.436 9.4533 106.535 9.43634C106.604 9.42449 106.672 9.46185 106.732 9.49922C107.342 9.87949 107.864 10.3836 108.381 10.8837C108.367 10.9057 108.353 10.9279 108.337 10.9908Z" fill="#FECA2C"/>
<path d="M108.262 11.0938C107.687 11.0793 107.115 10.9728 106.574 10.7794C106.414 10.7222 106.251 10.654 106.134 10.5302C106.072 10.4644 106.026 10.3584 106.082 10.2872C106.134 10.2219 106.234 10.2321 106.316 10.2498C107.021 10.403 107.706 10.6453 108.351 10.969C108.322 11.0086 108.292 11.0483 108.262 11.0938Z" fill="#FECA2C"/>
<path d="M108.19 11.21C107.734 11.4021 107.243 11.5088 106.748 11.5232C106.478 11.531 106.191 11.5064 105.968 11.3514C105.901 11.3041 105.835 11.2289 105.854 11.1483C105.871 11.0693 105.959 11.0297 106.038 11.0114C106.2 10.9739 106.367 10.9759 106.533 10.9798C107.115 10.9934 107.696 11.0272 108.276 11.0811C108.231 11.1099 108.195 11.1531 108.19 11.21Z" fill="#FECA2C"/>
<path d="M108.398 10.9147C107.833 10.5035 107.389 9.92707 107.136 9.27516C107.088 9.15176 107.047 9.02449 107.032 8.89295C107.024 8.82843 107.026 8.75425 107.074 8.7104C107.12 8.66876 107.193 8.67124 107.248 8.7002C107.303 8.72929 107.343 8.7792 107.38 8.8287C107.713 9.26868 107.963 9.76464 108.211 10.2577C108.28 10.3946 108.349 10.5314 108.417 10.6683C108.435 10.7033 108.453 10.7404 108.452 10.7797C108.45 10.819 108.422 10.8602 108.398 10.9147Z" fill="#FECA2C"/>
<path d="M108.482 10.7988C108.17 10.2896 107.967 9.71321 107.893 9.12046C107.867 8.91281 107.857 8.7002 107.903 8.49599C107.916 8.43698 107.943 8.36969 108.002 8.35577C108.046 8.34543 108.092 8.37121 108.119 8.40733C108.145 8.4436 108.157 8.48841 108.168 8.53212C108.353 9.27378 108.49 10.0279 108.566 10.7884C108.534 10.7863 108.502 10.7841 108.482 10.7988Z" fill="#FECA2C"/>
<path d="M112.973 11.1131C113.38 10.3585 114.076 9.79663 114.823 9.37774C115.105 9.21973 115.419 9.07523 115.74 9.11563C115.837 9.1279 115.948 9.17313 115.968 9.26909C115.984 9.34217 115.94 9.41415 115.891 9.47123C115.757 9.62952 115.579 9.74396 115.401 9.85082C115.1 10.0319 114.79 10.1983 114.48 10.3647C113.984 10.6311 113.488 10.8975 112.973 11.1131Z" fill="#FECA2C"/>
<path d="M112.842 11.0094C113.107 10.3087 113.513 9.66192 114.03 9.11963C114.251 8.88771 114.5 8.66986 114.802 8.56273C114.89 8.53129 115.005 8.51654 115.065 8.5892C115.131 8.66903 115.08 8.78844 115.023 8.8753C114.471 9.72438 113.566 10.2891 112.98 11.1148C112.957 11.0649 112.91 11.0272 112.842 11.0094Z" fill="#FECA2C"/>
<path d="M112.794 10.8662C112.899 10.3803 113.004 9.89246 113.175 9.42545C113.315 9.04228 113.517 8.65483 113.866 8.4447C113.938 8.40154 114.029 8.36666 114.103 8.40595C114.162 8.43684 114.191 8.50675 114.191 8.57265C114.19 8.63856 114.166 8.70185 114.142 8.76279C113.836 9.51452 113.372 10.1893 112.911 10.8572C112.897 10.8778 112.881 10.8994 112.858 10.9078C112.834 10.9162 112.787 10.9031 112.794 10.8662Z" fill="#FECA2C"/>
<path d="M112.984 11.1215C113.591 10.6774 114.283 10.3509 115.012 10.1657C115.372 10.0742 115.752 10.0172 116.113 10.1062C116.182 10.1234 116.262 10.1583 116.274 10.229C116.284 10.2893 116.238 10.3436 116.192 10.3835C116.085 10.4758 115.96 10.5435 115.83 10.6006C115.547 10.7262 115.244 10.8036 114.943 10.8802C114.431 11.011 113.918 11.1417 113.405 11.2711C113.327 11.2907 113.246 11.3103 113.168 11.2937C113.09 11.2772 113.015 11.2125 112.984 11.1215Z" fill="#FECA2C"/>
<path d="M113.025 11.2977C113.751 10.9963 114.55 10.9173 115.336 10.9063C115.683 10.9015 116.049 10.9143 116.346 11.0937C116.394 11.1225 116.445 11.1692 116.433 11.2238C116.421 11.2775 116.357 11.2984 116.303 11.3085C115.904 11.3836 115.496 11.3896 115.09 11.3954C114.544 11.4031 113.998 11.4109 113.452 11.4187C113.338 11.4202 113.222 11.4218 113.11 11.4001C113.08 11.3943 113.048 11.386 113.025 11.3656C113.001 11.3452 112.989 11.3122 113.025 11.2977Z" fill="#FECA2C"/>
<path d="M111.013 9.17933C110.477 8.60492 110.101 7.88242 109.939 7.11373C109.894 6.90332 109.867 6.67637 109.953 6.47948C109.992 6.39027 110.073 6.30244 110.17 6.31416C110.26 6.32505 110.317 6.41605 110.356 6.49864C110.762 7.34468 110.831 8.31702 111.204 9.17795C111.144 9.14983 111.075 9.14238 111.013 9.17933Z" fill="#FECA2C"/>
<path d="M111.194 9.16651C110.85 8.43974 110.672 7.63534 110.677 6.83149C110.679 6.58027 110.702 6.31746 110.836 6.10499C110.866 6.05659 110.908 6.00792 110.965 6.00089C111.053 5.99 111.118 6.08127 111.152 6.16331C111.311 6.54566 111.286 6.97516 111.278 7.38894C111.268 7.9213 111.289 8.45435 111.341 8.98423C111.345 9.0267 111.349 9.07275 111.326 9.10915C111.304 9.14555 111.244 9.16058 111.194 9.16651Z" fill="#FECA2C"/>
<path d="M111.346 9.19932C111.215 8.45008 111.228 7.67546 111.385 6.93117C111.432 6.71139 111.494 6.48664 111.637 6.31333C111.698 6.2397 111.79 6.17255 111.882 6.19833C111.984 6.22674 112.023 6.34931 112.037 6.45438C112.089 6.87092 111.946 7.28029 111.862 7.69159C111.766 8.15708 111.678 8.40995 111.564 8.83297C111.533 8.94604 111.465 9.14983 111.346 9.19932Z" fill="#FECA2C"/>
<path d="M111.453 9.09964C111.616 8.44525 111.779 7.7888 112.023 7.1602C112.112 6.93297 112.218 6.69995 112.411 6.55117C112.489 6.49106 112.595 6.44625 112.685 6.48775C112.774 6.52925 112.809 6.63928 112.811 6.73759C112.815 6.98591 112.678 7.2119 112.546 7.42217C112.188 7.98983 111.83 8.55762 111.453 9.09964Z" fill="#FECA2C"/>
<path d="M110.876 9.26937C110.536 9.02408 110.197 8.773 109.903 8.4731C109.61 8.17321 109.362 7.82023 109.234 7.42079C109.217 7.36881 109.202 7.31435 109.21 7.26044C109.218 7.20652 109.254 7.15316 109.308 7.14186C109.36 7.13083 109.412 7.16144 109.455 7.19343C109.626 7.32014 109.761 7.48753 109.892 7.65505C110.288 8.16204 110.661 8.68696 111.031 9.21339C110.968 9.232 110.906 9.25062 110.876 9.26937Z" fill="#FECA2C"/>
<path d="M111.955 14.663C111.857 14.4363 111.913 14.165 112.048 13.9584C112.183 13.7519 112.388 13.6009 112.6 13.4753C112.813 13.3497 113.038 13.2446 113.241 13.1045C113.736 12.763 114.082 12.2119 114.174 11.6172C114.232 12.0016 114.259 12.4127 114.088 12.7618C113.953 13.0371 113.71 13.2426 113.46 13.4197C113.21 13.5969 112.944 13.7567 112.731 13.9777C112.519 14.1988 112.363 14.4981 112.397 14.8027C112.256 14.7575 112.114 14.7124 111.955 14.663Z" fill="#A4C700"/>
<path d="M109.572 14.3918C108.797 13.613 108.323 12.5407 108.27 11.4428C109.107 12.3552 109.966 13.3043 110.361 14.478C110.07 14.4652 109.781 14.4219 109.572 14.3918Z" fill="#A4C700"/>
<path d="M111.079 14.3003C110.58 13.2461 110.654 11.9418 111.268 10.9504C111.527 10.5317 111.871 10.173 112.182 9.79125C112.493 9.4096 112.779 8.98975 112.892 8.51033C112.77 9.57712 112.623 10.6563 112.208 11.6466C112.009 12.1205 111.751 12.5683 111.564 13.0468C111.376 13.5252 111.26 14.0501 111.363 14.5537C111.263 14.4481 111.163 14.3423 111.079 14.3003Z" fill="#A4C700"/>
<path d="M110.24 14.5362C109.777 14.3437 109.46 13.8939 109.308 13.4159C109.157 12.9378 109.148 12.428 109.144 11.9265C109.14 11.425 109.138 10.916 109 10.4338C109.504 10.9966 109.835 11.6936 110.091 12.4041C110.348 13.1145 110.538 13.848 110.8 14.5562C110.603 14.5163 110.4 14.5082 110.24 14.5362Z" fill="#A4C700"/>
<path d="M110.24 14.5631C110.237 14.5631 110.233 14.5625 110.23 14.5611C109.8 14.3826 109.455 13.9681 109.283 13.424C109.192 13.1375 109.144 12.8213 109.126 12.3989C109.126 12.3841 109.137 12.3716 109.152 12.3709C109.167 12.3703 109.18 12.3819 109.18 12.3968C109.197 12.8142 109.245 13.1259 109.334 13.4077C109.502 13.9367 109.836 14.3389 110.25 14.5113C110.264 14.517 110.271 14.5327 110.265 14.5465C110.261 14.5568 110.251 14.5631 110.24 14.5631Z" fill="#718124"/>
<path d="M111.546 14.4307C111.545 14.4307 111.543 14.4306 111.542 14.4304C111.512 14.4281 111.49 14.4021 111.493 14.3725C111.584 13.2162 112.04 12.0867 112.778 11.1919C112.797 11.1688 112.831 11.1655 112.854 11.1845C112.877 11.2034 112.88 11.2374 112.861 11.2604C112.137 12.1383 111.689 13.2466 111.6 14.381C111.598 14.4092 111.574 14.4307 111.546 14.4307Z" fill="#5D6B19"/>
<path d="M111.153 14.4792C111.128 14.4792 111.105 14.4618 111.1 14.4365C110.928 13.6259 111.045 12.7862 111.157 11.9742L111.168 11.8985C111.292 10.9974 111.378 10.1879 111.162 9.40463C111.154 9.37581 111.171 9.34617 111.2 9.33831C111.229 9.33045 111.258 9.34727 111.266 9.37595C111.487 10.1791 111.401 11.0002 111.274 11.9132L111.264 11.9889C111.153 12.7918 111.038 13.622 111.205 14.4141C111.212 14.4432 111.193 14.4718 111.164 14.478C111.16 14.4788 111.156 14.4792 111.153 14.4792Z" fill="#5D6B19"/>
<path d="M110.431 14.5418C110.404 14.5418 110.381 14.5217 110.378 14.4944C110.217 13.1496 109.523 11.887 108.474 11.0304C108.451 11.0115 108.448 10.9776 108.466 10.9546C108.485 10.9315 108.519 10.9281 108.542 10.947C109.613 11.8211 110.32 13.1095 110.485 14.4816C110.488 14.5111 110.467 14.538 110.438 14.5414C110.435 14.5417 110.433 14.5418 110.431 14.5418Z" fill="#5D6B19"/>
<path d="M111.322 14.5221C111.192 13.9089 111.435 13.2319 111.925 12.8411C112.445 12.426 113.167 12.3444 113.705 11.9519C113.608 12.2877 113.378 12.5687 113.131 12.8164C112.884 13.0639 112.613 13.2901 112.402 13.5682C112.19 13.8463 112.039 14.192 112.08 14.5392C111.842 14.525 111.604 14.5109 111.322 14.5221Z" fill="#A4C700"/>
<path d="M112.08 14.5661C112.08 14.5661 112.079 14.5661 112.079 14.5661C111.845 14.5523 111.604 14.5378 111.323 14.549C111.31 14.5494 111.298 14.5406 111.296 14.5276C111.217 14.1582 111.27 13.7593 111.444 13.4046C111.45 13.3912 111.466 13.3857 111.48 13.3922C111.493 13.3988 111.499 13.4149 111.492 13.4283C111.327 13.7653 111.275 14.1429 111.344 14.4944C111.605 14.4852 111.832 14.4976 112.05 14.5104C112.024 14.2055 112.141 13.8666 112.38 13.552C112.389 13.5401 112.406 13.5378 112.418 13.5469C112.43 13.5558 112.432 13.5728 112.423 13.5846C112.184 13.899 112.071 14.237 112.107 14.536C112.108 14.5439 112.105 14.5519 112.1 14.5577C112.095 14.5631 112.088 14.5661 112.08 14.5661Z" fill="#718124"/>
<path d="M110.821 14.403C110.389 14.1582 110.084 13.7274 109.917 13.2601C109.751 12.7928 109.712 12.2891 109.72 11.793C109.729 11.222 109.798 10.6525 109.785 10.0816C109.773 9.5108 109.672 8.92577 109.371 8.44056C109.94 8.89847 110.248 9.61352 110.396 10.3293C110.543 11.045 110.552 11.7814 110.644 12.5064C110.736 13.2314 110.922 13.9697 111.371 14.5464C111.166 14.565 110.967 14.4861 110.821 14.403Z" fill="#A4C700"/>
<path d="M111.309 14.5762C111.151 14.5762 110.983 14.526 110.807 14.4264C110.401 14.1957 110.076 13.7847 109.892 13.269C109.746 12.8616 109.683 12.3924 109.693 11.7926C109.695 11.687 109.698 11.5721 109.705 11.4414C109.706 11.4267 109.718 11.4152 109.733 11.4159C109.748 11.4166 109.759 11.4293 109.759 11.444C109.752 11.5742 109.748 11.6885 109.747 11.7934C109.737 12.3866 109.799 12.8497 109.943 13.251C110.122 13.7545 110.439 14.1553 110.834 14.3795C110.954 14.4476 111.132 14.5244 111.319 14.5221C111.025 14.129 110.821 13.6317 110.696 13.0038C110.693 12.9891 110.703 12.9749 110.718 12.972C110.732 12.9691 110.746 12.9787 110.749 12.9933C110.877 13.6347 111.087 14.1373 111.393 14.5298C111.399 14.5377 111.4 14.5482 111.396 14.5571C111.392 14.5662 111.383 14.5724 111.374 14.5733C111.352 14.5752 111.331 14.5762 111.309 14.5762Z" fill="#718124"/>
<path d="M107.215 20.7288C107.858 18.5409 108.599 16.3818 109.434 14.2601C110.432 14.1225 111.472 14.1402 112.478 14.3484C113.403 16.3732 114.121 18.492 114.654 20.7323C113.611 21.5752 112.257 21.845 110.916 21.8745C109.575 21.9039 108.255 21.6928 107.215 20.7288Z" fill="#918FFF"/>
<path d="M114.43 20.6119C115.029 19.0332 115.545 17.4229 115.975 15.7899C115.671 15.6336 115.412 15.4964 115.154 15.359C114.586 16.248 114.005 17.1019 113.435 17.9606C113.761 18.8396 114.087 19.7186 114.43 20.6119Z" fill="#918FFF"/>
<path d="M114.724 14.6673C114.823 14.4144 115.391 14.4006 115.994 14.6363C116.597 14.872 117.005 15.2682 116.907 15.5211C116.808 15.7739 116.123 16.0985 115.521 15.8627C114.918 15.6269 114.625 14.9203 114.724 14.6673Z" fill="#918FFF"/>
<path d="M108.183 15.9773C108.294 16.1211 108.521 16.1349 108.677 16.0422C108.834 15.9496 108.931 15.6247 108.977 15.4489C109.093 15.009 108.94 14.6685 108.621 14.3441C107.471 13.1813 105.415 14.4772 105.665 15.9987C105.713 17.2144 108.171 18.5041 106.899 19.5247C106.423 19.8985 107.063 20.1151 107.432 19.6855C108.128 18.8206 107.793 17.936 107.044 17.2181C104.811 15.1952 107.584 13.3773 108.519 14.9855C108.748 15.6948 108.059 15.7035 108.183 15.9773Z" fill="#918FFF"/>
<path d="M108.758 16.07C108.754 16.07 108.751 16.0694 108.748 16.0683C108.734 16.0632 108.727 16.0478 108.732 16.0337C108.834 15.7556 108.939 15.4739 109.044 15.1968C109.049 15.1828 109.064 15.1758 109.078 15.1812C109.092 15.1864 109.099 15.2019 109.094 15.2158C108.989 15.4928 108.884 15.7742 108.783 16.0523C108.779 16.0632 108.768 16.07 108.758 16.07Z" fill="#5F5CFF"/>
<path d="M107.539 19.6812C107.537 19.6812 107.534 19.6808 107.531 19.68C107.517 19.6757 107.509 19.6605 107.514 19.6463C107.612 19.3302 107.713 19.01 107.815 18.6947C107.82 18.6806 107.835 18.6727 107.849 18.6774C107.863 18.682 107.871 18.6972 107.867 18.7114C107.764 19.0264 107.663 19.3463 107.565 19.6623C107.561 19.6739 107.551 19.6812 107.539 19.6812Z" fill="#5F5CFF"/>
<path d="M114.545 20.3142C114.533 20.3142 114.522 20.3061 114.519 20.2938C114.276 19.323 113.993 18.3643 113.679 17.4442C113.674 17.4302 113.682 17.4149 113.696 17.41C113.71 17.4052 113.725 17.4128 113.73 17.4268C114.045 18.3483 114.328 19.3084 114.572 20.2807C114.575 20.2952 114.566 20.3098 114.552 20.3134C114.55 20.314 114.548 20.3142 114.545 20.3142Z" fill="#5F5CFF"/>
<path d="M115.934 15.971C115.933 15.971 115.933 15.971 115.933 15.971C115.784 15.9672 115.642 15.9393 115.511 15.8878C115.33 15.8171 115.166 15.7021 115.025 15.5461C115.015 15.5351 115.016 15.5182 115.027 15.5081C115.038 15.4982 115.055 15.499 115.065 15.51C115.201 15.6598 115.357 15.7699 115.53 15.8376C115.656 15.8869 115.792 15.9135 115.934 15.9171C115.949 15.9175 115.961 15.9297 115.96 15.9446C115.96 15.9594 115.948 15.971 115.934 15.971Z" fill="#5F5CFF"/>
<path d="M116.428 15.7472C116.191 15.7472 115.908 15.6873 115.626 15.5772C115.076 15.3621 114.679 15.012 114.682 14.7448C114.682 14.7299 114.695 14.7186 114.709 14.7182C114.724 14.7183 114.736 14.7304 114.736 14.7453C114.733 14.987 115.124 15.3231 115.646 15.527C115.934 15.6398 116.223 15.6986 116.46 15.6929C116.685 15.6873 116.838 15.6212 116.881 15.5113C116.887 15.4975 116.902 15.4906 116.916 15.496C116.93 15.5015 116.937 15.5171 116.932 15.5308C116.88 15.6639 116.712 15.7407 116.461 15.7468C116.45 15.747 116.439 15.7472 116.428 15.7472Z" fill="#5F5CFF"/>
<path d="M115.278 14.6106C115.271 14.5982 115.261 14.5884 115.248 14.5811C115.245 14.5796 115.242 14.5782 115.238 14.5768C115.229 14.5717 115.218 14.5693 115.207 14.5697C115.195 14.5693 115.185 14.5717 115.175 14.5768C115.171 14.5777 115.168 14.5791 115.165 14.5811C115.165 14.5813 115.164 14.5815 115.164 14.5817C115.152 14.5889 115.142 14.5987 115.135 14.6109C115.127 14.6237 115.124 14.6374 115.124 14.6521C115.124 14.6669 115.127 14.6807 115.135 14.6934C115.142 14.7057 115.152 14.7155 115.164 14.7227C115.164 14.7229 115.165 14.7231 115.165 14.7233C115.176 14.7302 115.194 14.7353 115.207 14.7346C115.214 14.7337 115.221 14.7327 115.229 14.7317C115.235 14.729 115.242 14.7262 115.248 14.7233C115.261 14.716 115.271 14.7062 115.278 14.6938C115.285 14.6809 115.289 14.667 115.289 14.6521C115.289 14.6373 115.285 14.6235 115.278 14.6106Z" fill="#5F5CFF"/>
<path d="M115.596 14.6909C115.591 14.676 115.584 14.6631 115.573 14.6521C115.562 14.6413 115.549 14.6338 115.534 14.6297C115.519 14.6255 115.503 14.6255 115.488 14.6297C115.473 14.6338 115.46 14.6413 115.449 14.6521C115.438 14.6631 115.431 14.676 115.427 14.6909C115.426 14.6924 115.425 14.694 115.425 14.6957C115.421 14.7108 115.421 14.7258 115.425 14.7409C115.429 14.7554 115.436 14.7679 115.447 14.7784C115.457 14.789 115.47 14.7963 115.484 14.8004C115.499 14.8044 115.514 14.8044 115.529 14.8004C115.531 14.7997 115.533 14.7991 115.534 14.7986C115.549 14.7944 115.562 14.7869 115.573 14.7759C115.584 14.7651 115.591 14.7522 115.596 14.7373C115.6 14.7218 115.6 14.7063 115.596 14.6909Z" fill="#5F5CFF"/>
<path d="M115.397 14.9289C115.393 14.9144 115.386 14.9019 115.375 14.8912C115.37 14.8868 115.364 14.8824 115.358 14.878C115.345 14.8703 115.33 14.8664 115.315 14.8664C115.303 14.8659 115.292 14.8684 115.282 14.8737C115.272 14.8771 115.263 14.8829 115.255 14.8912C115.247 14.8989 115.241 14.9081 115.237 14.9186C115.232 14.9288 115.23 14.9397 115.23 14.9515C115.231 14.959 115.232 14.9665 115.233 14.9741C115.237 14.9884 115.244 15.0009 115.255 15.0116C115.261 15.016 115.266 15.0204 115.272 15.0248C115.285 15.0325 115.3 15.0364 115.315 15.0364C115.327 15.0369 115.338 15.0344 115.348 15.0291C115.358 15.0257 115.368 15.0199 115.375 15.0116C115.383 15.0039 115.389 14.9947 115.393 14.9841C115.398 14.974 115.401 14.9631 115.4 14.9515C115.399 14.9439 115.398 14.9364 115.397 14.9289Z" fill="#5F5CFF"/>
<path d="M115.069 14.843C115.069 14.8423 115.069 14.8417 115.068 14.8412C115.064 14.8297 115.05 14.8177 115.04 14.8117C115.033 14.8079 115.024 14.8052 115.017 14.8021C115.006 14.7988 114.996 14.7984 114.985 14.8008C114.975 14.8012 114.965 14.8043 114.956 14.8101C114.951 14.8142 114.946 14.8183 114.94 14.8224C114.933 14.8295 114.927 14.8379 114.924 14.8478C114.92 14.8538 114.919 14.8605 114.919 14.8676C114.916 14.878 114.917 14.8885 114.92 14.8989C114.923 14.9053 114.925 14.9116 114.928 14.9178C114.935 14.9296 114.944 14.939 114.956 14.9461C114.957 14.9465 114.958 14.9469 114.958 14.9473C114.962 14.9495 114.965 14.9504 114.969 14.9523C114.979 14.9573 114.989 14.9596 115 14.9592C115.007 14.9583 115.014 14.9573 115.021 14.9563C115.021 14.9563 115.021 14.9562 115.022 14.9562C115.022 14.956 115.023 14.9558 115.024 14.9557C115.037 14.9521 115.048 14.9455 115.057 14.936C115.065 14.929 115.07 14.9208 115.073 14.9113C115.078 14.9022 115.08 14.8923 115.08 14.8817C115.08 14.8678 115.076 14.8549 115.069 14.843Z" fill="#5F5CFF"/>
<path d="M115.605 15.2585C115.601 15.2438 115.594 15.231 115.583 15.2202C115.577 15.2157 115.571 15.2112 115.565 15.2067C115.552 15.1989 115.537 15.1949 115.522 15.1948C115.51 15.1944 115.498 15.1968 115.488 15.2023C115.477 15.2058 115.468 15.2117 115.46 15.2202C115.452 15.2281 115.446 15.2374 115.442 15.2482C115.437 15.2585 115.434 15.2696 115.435 15.2816L115.438 15.3046C115.442 15.3193 115.449 15.3321 115.46 15.3429C115.466 15.3474 115.472 15.3519 115.478 15.3564C115.491 15.3643 115.506 15.3683 115.522 15.3683C115.533 15.3687 115.545 15.3663 115.555 15.3608C115.566 15.3573 115.575 15.3514 115.583 15.3429C115.591 15.335 115.597 15.3257 115.601 15.3149C115.606 15.3046 115.609 15.2935 115.608 15.2816L115.605 15.2585Z" fill="#5F5CFF"/>
<path d="M115.822 15.0324C115.817 15.0239 115.811 15.0171 115.803 15.012C115.796 15.0056 115.788 15.0012 115.778 14.999C115.771 14.9972 115.765 14.9964 115.758 14.9966C115.757 14.9964 115.756 14.9962 115.754 14.996C115.741 14.9961 115.728 14.9995 115.716 15.0063C115.705 15.0131 115.696 15.0221 115.69 15.0334C115.683 15.0451 115.679 15.0578 115.679 15.0714C115.679 15.085 115.683 15.0977 115.69 15.1093C115.696 15.1207 115.705 15.1297 115.716 15.1364C115.74 15.1499 115.77 15.1503 115.793 15.1364C115.798 15.1329 115.804 15.1287 115.809 15.124C115.809 15.1239 115.809 15.1237 115.809 15.1235C115.809 15.1235 115.809 15.1235 115.809 15.1234C115.813 15.1184 115.817 15.1134 115.821 15.1084C115.821 15.1083 115.821 15.1082 115.821 15.1081C115.821 15.108 115.821 15.1079 115.821 15.1077C115.824 15.1018 115.827 15.0958 115.829 15.0896C115.831 15.0833 115.832 15.0743 115.832 15.0692C115.832 15.0561 115.828 15.0438 115.822 15.0324Z" fill="#5F5CFF"/>
<path d="M116.08 14.8259C116.076 14.8116 116.069 14.7992 116.059 14.7886C116.053 14.7842 116.047 14.7798 116.042 14.7755C116.029 14.7679 116.014 14.764 115.999 14.7639C115.988 14.7635 115.977 14.7659 115.967 14.7713C115.956 14.7747 115.947 14.7804 115.94 14.7886C115.931 14.7963 115.926 14.8053 115.922 14.8158C115.917 14.8258 115.915 14.8366 115.915 14.8482C115.916 14.8556 115.917 14.8631 115.918 14.8707C115.922 14.8849 115.929 14.8973 115.94 14.9078C115.945 14.9122 115.951 14.9166 115.957 14.921C115.97 14.9286 115.984 14.9324 115.999 14.9324C116.011 14.9329 116.022 14.9305 116.032 14.9253C116.042 14.9219 116.051 14.916 116.059 14.9078C116.067 14.9001 116.073 14.8911 116.076 14.8807C116.081 14.8706 116.084 14.8598 116.083 14.8482C116.082 14.8407 116.081 14.8333 116.08 14.8259Z" fill="#5F5CFF"/>
<path d="M116.007 15.2389C116.005 15.2389 116.005 15.2428 116.007 15.2428C116.009 15.2428 116.009 15.2389 116.007 15.2389Z" fill="#5F5CFF"/>
<path d="M116.037 15.2843C116.035 15.2741 116.03 15.2652 116.023 15.2577C116.018 15.2491 116.011 15.2424 116.001 15.2374C115.999 15.2367 115.998 15.2359 115.996 15.2351C115.99 15.2315 115.984 15.2289 115.977 15.2272C115.976 15.227 115.976 15.2269 115.975 15.2268C115.974 15.2266 115.973 15.2264 115.973 15.2263L115.974 15.2265C115.974 15.2265 115.973 15.2265 115.973 15.2265C115.966 15.2242 115.958 15.223 115.95 15.223C115.942 15.224 115.935 15.225 115.927 15.226C115.913 15.23 115.9 15.2373 115.89 15.2479C115.881 15.2556 115.875 15.2647 115.872 15.2752C115.867 15.2854 115.864 15.2964 115.865 15.308C115.864 15.3197 115.867 15.3306 115.872 15.3408C115.875 15.3513 115.881 15.3604 115.89 15.3681C115.9 15.3787 115.913 15.386 115.927 15.3901C115.934 15.3921 115.955 15.3938 115.951 15.3934C115.952 15.3935 115.953 15.3935 115.953 15.3935C115.953 15.3935 115.954 15.3935 115.954 15.3934C115.954 15.3934 115.954 15.3934 115.955 15.3934C115.966 15.3938 115.977 15.3914 115.987 15.3861C115.991 15.3849 115.994 15.3834 115.997 15.3818C116.003 15.3774 116.009 15.373 116.015 15.3686C116.019 15.3629 116.023 15.3571 116.028 15.3513C116.028 15.3512 116.028 15.3512 116.028 15.3512C116.028 15.351 116.028 15.3508 116.028 15.3506C116.032 15.3441 116.035 15.3368 116.037 15.3299C116.037 15.3296 116.037 15.3292 116.037 15.3288C116.041 15.3119 116.042 15.3011 116.037 15.2843Z" fill="#5F5CFF"/>
<path d="M116.294 15.0765C116.291 15.0663 116.285 15.0575 116.277 15.0501C116.277 15.0496 116.277 15.0491 116.276 15.0485C116.275 15.0474 116.274 15.0463 116.273 15.0452C116.263 15.0347 116.25 15.0275 116.236 15.0234C116.221 15.0194 116.206 15.0194 116.191 15.0234C116.176 15.0275 116.164 15.0347 116.154 15.0452C116.145 15.0529 116.139 15.0619 116.136 15.0724C116.131 15.0825 116.128 15.0934 116.129 15.1051C116.129 15.1203 116.133 15.1346 116.14 15.1478C116.148 15.1605 116.158 15.1706 116.171 15.1781C116.184 15.1858 116.198 15.1896 116.213 15.1896C116.215 15.1898 116.216 15.1899 116.217 15.19C116.218 15.1901 116.219 15.1902 116.219 15.1903C116.227 15.1893 116.234 15.1883 116.241 15.1874C116.252 15.1848 116.261 15.1799 116.269 15.1726C116.272 15.1709 116.275 15.1687 116.278 15.1661C116.286 15.1587 116.291 15.1499 116.294 15.1398C116.297 15.1368 116.298 15.1335 116.299 15.13C116.3 15.1228 116.301 15.1155 116.301 15.1081C116.302 15.0969 116.3 15.0864 116.294 15.0765Z" fill="#5F5CFF"/>
<path d="M116.386 15.4314C116.382 15.4182 116.375 15.4067 116.366 15.3971C116.356 15.3874 116.344 15.3807 116.331 15.377C116.317 15.3733 116.303 15.3733 116.29 15.377C116.284 15.3792 116.278 15.3814 116.272 15.3837C116.258 15.3878 116.245 15.3952 116.234 15.4059C116.223 15.4168 116.216 15.4295 116.212 15.4443C116.208 15.4596 116.208 15.475 116.212 15.4903C116.216 15.505 116.223 15.5178 116.234 15.5286C116.245 15.5394 116.258 15.5468 116.272 15.551C116.288 15.5551 116.303 15.5551 116.318 15.551C116.333 15.5468 116.346 15.5394 116.357 15.5286C116.367 15.5178 116.375 15.505 116.379 15.4903C116.381 15.4845 116.383 15.4787 116.386 15.4729C116.389 15.4591 116.389 15.4452 116.386 15.4314Z" fill="#5F5CFF"/>
<path d="M116.544 15.2252C116.539 15.2175 116.533 15.2115 116.526 15.207C116.525 15.2068 116.525 15.2066 116.525 15.2064C116.523 15.2053 116.521 15.2044 116.518 15.2038C116.516 15.2027 116.514 15.2018 116.512 15.2012C116.508 15.2005 116.503 15.1999 116.498 15.1992C116.489 15.1993 116.48 15.2017 116.472 15.2063C116.472 15.2066 116.471 15.207 116.471 15.2074C116.47 15.2081 116.468 15.2088 116.467 15.2096C116.46 15.2138 116.454 15.2195 116.45 15.2267C116.446 15.234 116.444 15.242 116.444 15.2507C116.444 15.2592 116.446 15.2672 116.45 15.2747C116.454 15.2818 116.46 15.2875 116.467 15.2918L116.471 15.2938C116.471 15.2942 116.472 15.2946 116.472 15.2949C116.478 15.2987 116.485 15.3007 116.492 15.301C116.498 15.3026 116.505 15.3023 116.512 15.3002C116.516 15.2989 116.521 15.2971 116.525 15.2948C116.525 15.2946 116.525 15.2944 116.526 15.2942C116.533 15.2897 116.539 15.2837 116.544 15.2762C116.548 15.2683 116.551 15.2598 116.551 15.2507C116.551 15.2415 116.548 15.233 116.544 15.2252Z" fill="#5F5CFF"/>
<path d="M116.698 15.3421C116.647 15.3421 116.603 15.3854 116.603 15.4364C116.603 15.4875 116.647 15.5306 116.698 15.5306C116.749 15.5306 116.792 15.4873 116.792 15.4364C116.792 15.3852 116.749 15.3421 116.698 15.3421Z" fill="#5F5CFF"/>
<path d="M111.026 21.3817C111.002 21.3817 110.978 21.3816 110.954 21.3814C109.643 21.3696 108.372 21.0316 107.279 20.4041C107.215 20.367 107.192 20.2847 107.229 20.2202C107.266 20.1557 107.349 20.1335 107.413 20.1704C109.539 21.3907 112.259 21.4319 114.512 20.2781C114.578 20.2442 114.659 20.2704 114.693 20.3366C114.727 20.4029 114.701 20.484 114.635 20.5179C113.53 21.0836 112.284 21.3817 111.026 21.3817Z" fill="#5F5CFF"/>
<path d="M108.276 11.108C108.275 11.108 108.274 11.108 108.274 11.1079L107.503 11.0482C107.489 11.0471 107.478 11.0341 107.479 11.0194C107.48 11.0045 107.493 10.9934 107.508 10.9945L108.278 11.0542C108.293 11.0553 108.304 11.0683 108.302 11.0832C108.301 11.0973 108.29 11.108 108.276 11.108Z" fill="#DD6460"/>
<path d="M108.351 10.9959C108.347 10.9959 108.344 10.9952 108.341 10.9939L107.255 10.5388C107.241 10.5331 107.235 10.5173 107.24 10.5035C107.246 10.4899 107.262 10.4834 107.276 10.4892L108.361 10.9442C108.375 10.9499 108.382 10.9657 108.376 10.9794C108.371 10.9897 108.362 10.9959 108.351 10.9959Z" fill="#DD6460"/>
<path d="M108.381 10.9106C108.374 10.9106 108.367 10.9082 108.362 10.9033L107.664 10.2464C107.653 10.2362 107.652 10.2191 107.663 10.2082C107.673 10.1974 107.69 10.1969 107.701 10.2071L108.399 10.864C108.41 10.8742 108.411 10.8913 108.4 10.9022C108.395 10.9078 108.388 10.9106 108.381 10.9106Z" fill="#DD6460"/>
<path d="M108.452 10.8066C108.442 10.8066 108.432 10.801 108.427 10.7912L108.12 10.1393C108.114 10.1259 108.119 10.1098 108.133 10.1034C108.146 10.0971 108.162 10.1029 108.169 10.1164L108.476 10.7681C108.482 10.7817 108.477 10.7976 108.463 10.804C108.459 10.8057 108.456 10.8066 108.452 10.8066Z" fill="#DD6460"/>
<path d="M108.535 10.5845C108.666 10.7211 108.684 10.9522 108.576 11.1079C108.468 11.2634 108.244 11.3264 108.075 11.2385C108.223 11.0185 108.371 10.7985 108.535 10.5845Z" fill="#5D6B19"/>
<path d="M111.032 9.24028C111.023 9.24028 111.015 9.23628 111.01 9.22897L110.349 8.30116C110.341 8.28903 110.343 8.27235 110.355 8.26366C110.368 8.25498 110.384 8.25787 110.393 8.27L111.054 9.19767C111.062 9.2098 111.059 9.22663 111.047 9.23531C111.042 9.23862 111.037 9.24028 111.032 9.24028Z" fill="#DD6460"/>
<path d="M111.153 9.1934C111.142 9.1934 111.131 9.18554 111.127 9.1734L110.697 7.56736C110.693 7.55302 110.701 7.53813 110.716 7.53441C110.73 7.53055 110.745 7.53896 110.749 7.55343L111.179 9.15948C111.183 9.17382 111.175 9.18857 111.16 9.19243C111.158 9.19307 111.156 9.1934 111.153 9.1934Z" fill="#DD6460"/>
<path d="M111.291 9.13562C111.276 9.13562 111.264 9.1239 111.264 9.10915L111.244 7.6261C111.243 7.61121 111.255 7.59907 111.27 7.5988C111.27 7.5988 111.27 7.5988 111.271 7.5988C111.285 7.5988 111.297 7.61065 111.297 7.62541L111.318 9.10832C111.318 9.12321 111.306 9.13549 111.292 9.13562C111.291 9.13562 111.291 9.13562 111.291 9.13562Z" fill="#DD6460"/>
<path d="M111.477 9.08171C111.475 9.08171 111.472 9.08139 111.47 9.08075C111.455 9.07689 111.447 9.06199 111.451 9.04766L111.889 7.44864C111.893 7.4343 111.908 7.42589 111.922 7.42975C111.936 7.43375 111.945 7.44851 111.941 7.46285L111.503 9.06186C111.5 9.07385 111.489 9.08171 111.477 9.08171Z" fill="#DD6460"/>
<path d="M111.55 8.96369C111.579 9.10915 111.565 9.26771 111.485 9.39291C111.406 9.51797 111.253 9.60125 111.108 9.5745C111.02 9.55851 110.943 9.50584 110.884 9.43938C110.825 9.37292 110.783 9.29308 110.743 9.20801C111.014 9.11756 111.29 9.04338 111.55 8.96369Z" fill="#5D6B19"/>
<path d="M112.892 10.9325C112.887 10.9325 112.882 10.9312 112.877 10.9285C112.865 10.9206 112.861 10.9041 112.869 10.8914L113.905 9.21518C113.913 9.2025 113.93 9.19864 113.942 9.2065C113.955 9.21435 113.959 9.2309 113.951 9.24359L112.915 10.9197C112.909 10.9279 112.901 10.9325 112.892 10.9325Z" fill="#DD6460"/>
<path d="M112.973 11.0483C112.966 11.0483 112.959 11.0456 112.954 11.0402C112.943 11.0296 112.944 11.0125 112.954 11.0021L114.36 9.63021C114.37 9.61987 114.387 9.62014 114.398 9.63076C114.408 9.64137 114.408 9.65847 114.397 9.66881L112.992 11.0406C112.987 11.0458 112.98 11.0483 112.973 11.0483Z" fill="#DD6460"/>
<path d="M113.038 11.1207C113.028 11.1207 113.019 11.1153 113.014 11.106C113.007 11.0927 113.013 11.0764 113.026 11.0697L114.653 10.2414C114.666 10.2347 114.682 10.2399 114.689 10.2532C114.696 10.2665 114.69 10.2827 114.677 10.2894L113.051 11.1178C113.047 11.1197 113.042 11.1207 113.038 11.1207Z" fill="#DD6460"/>
<path d="M113.168 11.3208C113.156 11.3208 113.145 11.3122 113.142 11.2998C113.138 11.2853 113.147 11.2709 113.162 11.2675L114.745 10.9031C114.759 10.8998 114.774 10.9088 114.777 10.9233C114.78 10.9379 114.771 10.9522 114.757 10.9557L113.174 11.3199C113.172 11.3205 113.17 11.3208 113.168 11.3208Z" fill="#DD6460"/>
<path d="M113.304 11.4195C113.173 11.488 113.021 11.5222 112.883 11.4683C112.744 11.4144 112.634 11.2866 112.614 11.1393C112.593 10.9922 112.672 10.8106 112.82 10.7477C113.013 10.9434 113.173 11.1665 113.304 11.4195Z" fill="#5D6B19"/>
</g>
<defs>
<clipPath id="clip0_1_288">
<rect width="152" height="24" fill="white"/>
</clipPath>
</defs>
</svg>
