<svg width="669" height="200" xmlns="http://www.w3.org/2000/svg"><g fill="none"><path d="M647.05 199.21H22.08c-11.635 0-21.165-9.514-21.165-21.163V21.944C.915 10.304 10.433.777 22.08.777h624.967c11.64 0 21.172 9.52 21.172 21.167v156.103c.002 11.642-9.511 21.162-21.17 21.162z" fill="#fff"/><path d="M75.245 39.217c-24.295 0-26.9 5.97-26.9 21.863v86.089c0 15.907 2.937 21.855 26.9 21.855 23.054 0 25.745-6.466 25.745-21.855v-86.09c.003-15.37-2.691-21.862-25.745-21.862z" fill="#FFF100"/><path d="M108.608 105.83c0-2.038-.061-2.78-.061-4.293 0-7.772 1.079-12.513 11.467-12.513 10.37 0 12.009-3.593 12.009-10.718V52.851c0-7.186 5.157-12.014 10.96-12.828 8.733-1.221 36.624 3.833 40.027 33.016.986 21.247-16.348 30.487-16.348 30.487s18.851 9.562 18.062 31.583c-.836 23.795-26.364 36.367-43.032 33.021-7.417-1.48-9.672-7.104-9.672-12.312v-28.032c0-7.212-1.288-9.812-11.812-9.812-10.536-.003-11.6-4.87-11.6-12.144z" fill="#72BE44"/><path d="M411.548 111.327v41.12h-12.837v-41.12h-20.385v41.12h-11.964v-41.12h-20.614v53.834h86.589l-.047-53.834zm78.182 7.097c-1.884-2.556-4.494-4.622-7.785-6.207-3.273-1.602-7.557-2.407-12.828-2.407-5.4 0-9.917.84-13.587 2.503-3.66 1.701-6.579 3.882-8.77 6.597-2.2 2.699-3.757 5.747-4.728 9.151-.93 3.394-1.408 6.821-1.408 10.258 0 3.572.404 7.034 1.205 10.395.808 3.357 2.274 6.362 4.365 8.988 2.134 2.645 5.052 4.746 8.731 6.315 3.691 1.578 8.463 2.344 14.29 2.344 3.735 0 7.76-.397 12.06-1.198a41.957 41.957 0 0012.207-4.293l-3.945-12.067a51.307 51.307 0 01-8.19 2.248c-2.83.563-5.547.831-8.173.831-4.228 0-7.274-.83-9.14-2.474-1.883-1.625-2.799-4.415-2.799-8.386h33.423v-4.475c0-3.154-.352-6.322-1.03-9.555-.711-3.184-2.004-6.08-3.898-8.568zm-28.196 14.397c.098-2.41.715-4.569 1.894-6.469 1.164-1.914 3.07-2.855 5.78-2.855 1.391 0 2.549.243 3.42.714.857.486 1.569 1.133 2.092 1.99.527.84.866 1.811 1.076 2.934.243 1.158.355 2.376.355 3.68h-14.617v.006zm164.549-21.591h-33.7c-2.564 0-5.003.347-7.347 1.031-2.344.715-4.382 1.765-6.137 3.236-1.76 1.468-3.161 3.29-4.228 5.479-1.048 2.215-1.585 4.772-1.585 7.697 0 3.637.89 6.709 2.698 9.198 1.789 2.474 4.147 4.136 7.065 4.93-.224.453-4.462 6.684-5.043 7.55-.565.873-9.198 14.273-9.198 14.273 2.038.637 4.114 1.118 6.168 1.359 2.101.25 3.833.378 5.206.378 3.446 0 6.053-.71 7.841-2.134 1.786-1.42 3.434-3.41 4.889-5.972l7.244-12.716h5.481v8.542c.073 4.037 1.076 7.053 3.007 9.121 1.924 2.045 5.416 3.063 10.477 3.063 2.092 0 4.438-.25 6.957-.719.089 0 .187-.049.276-.082l-.07-54.235zm-20.646 23.134h-5.624c-1.797 0-3.34-.422-4.648-1.202-1.286-.803-1.9-2.127-1.9-3.952 0-1.749.504-3.161 1.527-4.233 1.027-1.034 2.596-1.592 4.716-1.592h5.932v10.98h-.003zm-311.013 5.365v-.126h-.443v-28.276H273.4l-.033 53.836h19.958c1.603-2.278 19.476-27.524 19.476-27.524h.465v16.015c0 1.842.196 3.507.602 5.04a9.298 9.298 0 002.162 3.995c1.025 1.132 2.41 2.021 4.148 2.675 1.76.672 3.997.987 6.728.987 2.092 0 4.394-.219 6.866-.712.126 0 .145-.042.243-.056v-54.272h-19.857a62599.72 62599.72 0 00-19.734 28.418zm246.532-7.999h-16.675v-20.508H503.6l-.15 53.939h20.832v-22.25h16.675v11.413c0 4.008.946 7.025 2.919 9.079 1.914 2.052 5.43 3.07 10.552 3.07 2.124 0 4.426-.236 6.975-.712.077-.017.175-.033.264-.063v-54.466h-20.71v20.499h-.002zM266.55 111.327c-1.783 0-20.896-.049-20.896-.049l-16.556 26.506 14.651 23.856c1.16 1.763 2.582 2.989 4.216 3.726 1.663.736 4.013 1.05 7.079.988.735 0 1.62-.063 2.607-.168a38.322 38.322 0 003.268-.453 79.309 79.309 0 003.327-.582 17.475 17.475 0 002.946-.866l-18.176-27.976 17.534-24.982zm-59.196-.097v53.93h20.866l-.046-53.93zm243.6-11.363c2.11 0 4.424-.235 6.92-.707.089-.033.089-.049.222-.08V44.83H438.25c-1.45 2.145-19.74 28.408-19.74 28.408v-.098h-.43V44.83H397.5l-.031 53.83h19.957l19.433-27.5h.509v16.01c0 1.82.21 3.492.614 5.03a9.2 9.2 0 002.117 3.998c1.05 1.134 2.425 2.012 4.172 2.675 1.746.663 3.985.994 6.683.994zm-195.168-5.416c3.695-2.806 5.554-6.746 5.554-11.777 0-1.09-.129-2.276-.397-3.52-.245-1.24-.67-2.443-1.233-3.612-.586-1.167-1.421-2.227-2.481-3.173-1.07-.94-2.393-1.713-4.002-2.306 2.419-1.216 4.09-2.883 5.038-4.919.95-2.045 1.448-3.95 1.448-5.703 0-4.599-1.558-8.208-4.67-10.806-3.111-2.596-7.913-3.878-14.438-3.878H207.36V98.67h33.692c6.133-.003 11.042-1.408 14.733-4.219zM227.13 56.815h8.23c1.68 0 2.878.403 3.608 1.193.745.821 1.1 1.872 1.1 3.193 0 1.366-.411 2.477-1.256 3.278-.836.821-1.886 1.216-3.12 1.216h-8.553v-8.88h-.009zm9.193 29.468h-9.193v-9.968h9.193c1.784 0 3.065.488 3.892 1.475.852.98 1.265 2.173 1.265 3.565 0 1.475-.453 2.642-1.375 3.553-.89.91-2.18 1.375-3.782 1.375zm45.976 11.241c3.707 1.557 8.476 2.343 14.31 2.343 3.752 0 7.758-.408 12.053-1.209a40.856 40.856 0 0012.186-4.279l-3.957-12.053a52.088 52.088 0 01-8.147 2.243c-2.83.563-5.537.827-8.161.827-4.256 0-7.293-.827-9.163-2.46-1.863-1.637-2.797-4.434-2.797-8.375h33.414v-4.5c0-3.129-.341-6.31-1.02-9.511-.703-3.238-2.008-6.112-3.895-8.6-1.912-2.526-4.526-4.62-7.787-6.21-3.278-1.625-7.567-2.426-12.84-2.426-5.388 0-9.931.869-13.61 2.521-3.642 1.69-6.572 3.885-8.731 6.572-2.202 2.717-3.775 5.78-4.753 9.154-.91 3.41-1.401 6.823-1.401 10.25 0 3.586.427 7.062 1.219 10.405.803 3.362 2.24 6.36 4.36 8.997 2.134 2.638 5.017 4.723 8.72 6.31zm8.532-37.654c1.151-1.888 3.087-2.866 5.78-2.866 1.399 0 2.536.25 3.42.719a5.675 5.675 0 012.078 1.98 9.554 9.554 0 011.1 2.964c.189 1.135.331 2.36.331 3.658h-14.595c.077-2.409.684-4.543 1.886-6.455zm60.186 26.364c1.641-3.544 2.675-7.461 3.138-11.78.436-4.328.646-8.948.646-13.911v-3.299h9.973l.098 41.416h20.71V44.748h-49.198v18.718c0 3.597-.126 6.604-.375 9.053-.264 2.449-.862 4.578-1.723 6.37-.871 1.789-2.141 3.43-3.761 4.868-1.634 1.466-3.817 3.007-6.541 4.62l6.926 13.57c5.397-1.585 9.7-3.73 12.88-6.41 3.186-2.666 5.595-5.785 7.227-9.303zM575.81 99.816c2.661 0 5.442-.245 8.318-.768V62.67c0-3.58-.518-6.605-1.569-9.107-1.067-2.491-2.577-4.47-4.575-5.965-1.957-1.508-4.364-2.587-7.163-3.238-2.813-.67-5.983-.985-9.49-.985-2.105 0-4.28.086-6.47.292a59.26 59.26 0 00-6.51.852 76.02 76.02 0 00-6.263 1.415c-1.982.571-3.8 1.16-5.425 1.827l3.072 12.287c2.255-.74 4.93-1.31 8.02-1.753 3.057-.449 5.87-.654 8.429-.654 3.275 0 5.537.633 6.733 1.903 1.228 1.281 1.828 3.128 1.828 5.537v1.753l-14.582 1.317c-3.863.453-7.064 1.155-9.538 2.199-2.468 1.018-4.47 2.204-5.928 3.61-1.461 1.381-2.481 2.945-3.065 4.652a16.966 16.966 0 00-.87 5.44c0 1.54.242 3.228.711 5.079.477 1.863 1.375 3.579 2.692 5.143 1.303 1.58 3.08 2.897 5.309 3.948 2.239 1.083 5.108 1.606 8.602 1.606.743 0 1.78-.063 3.073-.175 1.31-.112 2.778-.395 4.372-.869 1.623-.476 3.329-1.232 5.1-2.234 1.796-1.034 3.552-2.426 5.205-4.172l.112.11c.147 2.995 1.18 4.975 3.088 5.916 1.86.952 4.158 1.412 6.784 1.412zm-11.299-15.338a12.027 12.027 0 01-3.37 2.234c-1.261.558-2.475.83-3.631.83-2.064 0-3.502-.53-4.326-1.588-.847-1.044-1.277-2.543-1.277-4.431 0-1.233.418-2.358 1.203-3.41.819-1.01 2.161-1.654 4.085-1.952l7.323-1.011v9.328h-.007zm-54.295 14.505c1.648.754 4.01 1.066 7.061.999.761 0 1.618-.066 2.629-.166a52.789 52.789 0 003.243-.437c1.132-.182 2.245-.396 3.33-.604 1.1-.215 2.093-.523 2.973-.878L511.259 69.96l17.532-24.988c-1.765 0-20.896-.05-20.896-.05L491.357 71.46l14.638 23.814c1.172 1.753 2.58 2.986 4.22 3.71zM490.442 44.83H469.61v53.945h20.88z" fill="#626366"/></g></svg>