<svg width="338" height="84" viewBox="0 0 338 84" fill="none" xmlns="http://www.w3.org/2000/svg">
<path d="M26.3953 1.27242C9.55328 1.27242 0 0 0 0C0.136931 7.1477 0.164202 6.82742 0.164202 20.3778L0.163041 52.2457C0.163041 69.694 11.0624 83.3111 28.4371 83.3111H309.726C327.101 83.3111 338 69.694 338 52.2457V1.3374C338.001 1.33682 52.8961 1.27242 26.3953 1.27242Z" fill="#E42313"/>
<path d="M78.381 52.4619C77.7996 52.4619 77.2061 52.361 76.6189 52.1875C77.1834 52.397 77.7793 52.5072 78.3926 52.5136V52.4614H78.3677H78.381V52.4619Z" fill="white"/>
<path d="M78.0886 32.5079C78.1495 32.5021 78.2099 32.4945 78.2656 32.4875C78.2099 32.4945 78.1501 32.5021 78.0886 32.5079Z" fill="white"/>
<path d="M254.998 11.5962C255.01 11.5997 255.017 11.6133 255.025 11.6215C255.038 11.6239 255.048 11.6309 255.058 11.6362L254.998 11.5962Z" fill="white"/>
<path d="M242.85 31.8712L242.841 31.8664C242.838 31.8603 242.832 31.8579 242.832 31.8579L242.85 31.8712Z" fill="white"/>
<path d="M122.798 48.3435C121.097 50.6464 118.591 53.7866 112.529 53.7866C109.666 53.7866 107.376 52.0662 107.376 49.0247C114.686 49.7158 125.965 45.8469 125.965 33.8747C125.965 27.6495 121.919 21.6106 112.816 21.6106C103.959 21.6106 93.4985 30.4612 93.4985 45.9287C93.4985 60.3761 104.109 63.7669 111.005 63.7669C119.402 63.7669 126.279 59.3892 126.279 51.7987C126.279 48.2768 123.839 48.3662 122.798 48.3435ZM108.455 34.1793C110.521 32.1166 113.338 32.2268 114.649 33.5288V33.5358C116.057 34.9492 116.083 37.6832 114.031 39.7412C111.994 41.7708 108.548 42.5889 107.067 41.1047C105.674 39.6676 106.448 36.1909 108.455 34.1793Z" fill="white"/>
<path d="M163.833 48.7456L164.845 28.2396C164.845 24.7426 162.475 22.4258 158.291 22.4258C155.056 22.4258 150.409 24.2152 150.409 24.2152C150.8 26.8169 150.606 28.5204 150.678 37.3594C148.941 37.91 145.52 38.1439 143.631 38.2251C143.474 35.1494 143.631 31.7893 143.631 28.239C143.631 25.1598 141.494 22.6248 137.235 22.6248C134 22.6248 129.185 24.2146 129.185 24.2146C129.655 27.2915 129.641 29.306 129.641 33.7238C129.641 40.5947 129.501 50.6476 129.501 57.9125C129.501 60.3273 131.595 63.1843 135.84 63.1843C141.321 63.1843 143.943 59.5783 143.943 57.8991C143.943 55.6891 143.873 50.2994 143.873 47.6966C145.68 47.6966 148.264 47.6681 150.476 47.7975L150.637 56.7091C150.873 61.37 153.791 63.1843 157.033 63.1843C162.391 63.1843 165.96 59.8835 165.96 55.1315C164.466 54.7393 163.909 53.3172 163.833 48.7456Z" fill="white"/>
<path d="M226.922 42.3662L226.921 42.1794C226.921 42.1794 235.394 40.4596 235.394 32.7039C235.394 17.711 209.967 23.4772 202.692 23.3989C203.491 26.5559 203.088 43.0869 203.088 52.9546C203.088 64.7174 209.285 63.3782 222.158 63.3782C230.215 63.3782 235.939 58.136 235.939 52.0913C235.938 42.6354 226.922 42.3662 226.922 42.3662ZM217.887 31.0595C218.269 30.5164 219.062 30.2582 219.52 30.264C221.299 30.2948 222.843 32.6847 222.843 35.2116C222.843 37.3601 221.732 39.229 219.898 39.229C219.338 39.229 218.485 39.117 217.944 38.5606C216.926 37.5504 217.507 31.602 217.887 31.0595ZM220.156 55.5047C219.529 55.5047 218.628 55.0266 218.483 54.6947C218.338 54.364 218.262 47.9676 218.628 47.4304C218.995 46.8931 219.911 46.4399 220.422 46.509C224.268 46.9668 225.503 55.5047 220.156 55.5047Z" fill="white"/>
<path d="M57.09 23.0612C50.8155 23.0612 45.6899 22.3191 38.3687 22.3191C30.1627 22.3191 24.0199 26.163 24.0199 32.969C24.0199 37.9055 28.7226 43.2748 35.0882 43.2748C35.08 43.3508 35.08 43.446 35.08 43.446C29.8273 43.446 25.377 46.6517 25.377 50.8345C25.377 53.8214 23.7101 55.6224 22.2764 55.6926C22.2764 58.3999 24.7423 63.4188 30.8276 63.4188C35.3376 63.4188 38.0507 59.0695 38.0507 53.9381C38.0507 49.3358 39.6022 47.2476 43.1143 47.2325L43.2605 56.6506C43.2605 61.3091 46.8225 63.1223 50.0647 63.1223C55.7126 63.1223 59.6395 59.7489 59.6395 56.5154C57.0784 56.5154 56.7193 49.0428 56.6931 41.9293C56.6705 35.566 57.09 28.1857 57.09 23.0612ZM42.8497 38.2374C41.9057 38.6522 41.1886 38.7346 40.5979 38.5205C36.9274 37.1744 38.2875 29.96 41.6609 29.96C42.5915 29.96 42.9281 30.1445 43.2042 30.6319C43.4822 31.1204 43.4183 33.1726 43.4183 35.6397C43.4189 36.9638 43.1114 38.0935 42.8497 38.2374Z" fill="white"/>
<path d="M313.113 48.8918C313.113 44.318 313.912 40.1885 313.912 35.1639C313.912 31.3269 313.015 23.1313 304.466 23.1313C296.431 23.1313 293.319 28.4449 293.319 28.4449L293.274 28.4473C293.274 28.4473 289.785 22.7356 282.868 22.7356C276.51 22.7356 273.289 29.5996 273.289 29.5996L273.131 29.6176C273.131 29.6176 273.359 22.9201 267.204 22.9201C263.19 22.9201 261.049 24.5053 261.049 24.5053C261.049 24.5053 261.573 26.9248 261.573 29.8949C261.573 31.0646 261.761 50.564 261.761 57.8225C261.761 60.2409 263.852 63.0967 268.098 63.0967C273.574 63.0967 276.206 59.4906 276.206 57.8115C276.206 57.0508 276.26 42.268 275.964 37.6832C275.821 35.523 277.224 33.8653 278.747 33.9048C279.962 33.9355 281.606 35.2056 281.606 36.908C281.767 51.2579 281.002 50.5431 281.002 57.7981C281.002 60.213 282.852 63.0665 287.092 63.0665C292.576 63.0665 294.998 59.4628 294.998 57.7813C294.998 56.7706 294.899 54.8553 294.792 52.8315C294.736 46.3539 294.421 42.8645 294.632 37.5996C294.947 32.626 300.19 33.4157 300.114 37.2869L299.923 55.457L299.917 56.8657C300.15 61.5197 303.072 63.334 306.313 63.334C311.67 63.334 315.236 60.036 315.236 55.2881C313.746 54.8971 313.113 53.4657 313.113 48.8918Z" fill="white"/>
<path d="M253.581 49.5813C253.581 45.4867 254.263 36.6181 254.373 35.1641C253.473 35.4959 252.529 35.7657 251.519 35.9427C247.24 36.6941 243.006 35.2256 240.094 32.3198C240.571 37.1327 240.288 48.6506 240.288 55.5639C240.288 60.6478 243.549 63.329 246.784 63.329C252.149 63.329 255.713 60.0235 255.713 55.2773C254.289 54.9031 253.581 54.3066 253.581 49.5813Z" fill="white"/>
<path d="M255.511 12.028C251.641 9.69381 244.399 13.2656 241.07 18.8038C237.691 24.4122 239.724 30.1123 243.305 32.2678L243.282 32.2498C247.102 34.5561 252.871 33.5495 256.245 27.9376C259.583 22.4052 259.484 14.4168 255.451 11.9909L255.511 12.028Z" fill="white"/>
<path d="M191.953 37.0046C196.052 37.7641 199.802 36.1639 199.802 31.9898C199.802 26.5775 193.837 23.0916 188.917 23.0916C177.08 23.0916 168.467 33.0266 168.467 47.463C168.467 59.4422 177.806 64.7471 185.975 64.7471C195.034 64.7471 199.802 59.676 199.802 54.045C199.802 49.2855 195.248 49.8727 195.248 49.8727C195.248 49.8727 192.599 53.4967 189.047 53.4967C183.609 53.4967 181.551 49.5518 181.551 44.6664C181.551 38.6431 185.003 33.2227 188.737 33.2227C191.256 33.2227 191.942 35.2842 191.953 37.0046Z" fill="white"/>
<path d="M83.9441 36.823C88.0427 37.5825 91.7927 35.9822 91.7927 31.8081C91.7927 26.3959 85.8275 22.9099 80.9078 22.9099C69.0702 22.9099 60.4563 32.845 60.4563 47.2814C60.4563 59.2605 69.7966 64.5655 77.9661 64.5655C87.025 64.5655 91.7927 59.4944 91.7927 53.8634C91.7927 49.1038 87.2391 49.691 87.2391 49.691C87.2391 49.691 84.5899 53.3151 81.0372 53.3151C75.6 53.3151 73.542 49.3702 73.542 44.4847C73.542 38.4615 76.9937 33.0411 80.7279 33.0411C83.2472 33.0417 83.9331 35.1026 83.9441 36.823Z" fill="white"/>
</svg>
