<svg id="Слой_1" data-name="Слой 1" xmlns="http://www.w3.org/2000/svg" xmlns:xlink="http://www.w3.org/1999/xlink" viewBox="0 0 250.14 298.51"><defs><style>.cls-1{fill:none;clip-rule:evenodd;}.cls-2{fill:#6c8b41;}.cls-2,.cls-4,.cls-5{fill-rule:evenodd;}.cls-3{clip-path:url(#clip-path);}.cls-4{fill:#5d633d;}.cls-5{fill:#49633c;}</style><clipPath id="clip-path"><path class="cls-1" d="M94.31,176.75c10.36,2.56,16.37,7.63,19.37,16.63.38,1.12,2,1.12,2.13-.63l-.63-6.5c-.05-1.83,1-2.5,2.13-1.12l1.75,2.12c.73,1,1.62.63,1.37-.87q-.15-5.91-7.12-7.75l-5.63-2.13Q101.59,174.16,94.31,176.75Zm36.24,35a39.76,39.76,0,0,1-4,8.77q-13.4,22.42-30.5,6-13.11-12.15-26.5-8,20-20.75,34.5-15.75,7.43,3.94,10.75,4.25l-7.69-6.92C63,187.31,30.81,148.34,30.81,102.25,30.81,45.78,79.05,0,138.56,0S246.31,45.78,246.31,102.25c0,47.45-34.06,87.35-80.25,98.89.92,2,2.33,3,4.25,2.86q19.49-5,37.75-19-4.11,12.39-28,26-23.94,12.63-33.75,29.75-11.17,20.38-5.75,46-19.11-26.4-9.5-59.25,2.44-7.38,6.43-9.38a7,7,0,0,1,1.22-.48l.6-.14a20.25,20.25,0,0,0,2.67-1.59c5.49-3.54,10.3-10,16.33-21.41,3.87-6,12.18-14.07,21.25-22.62q-18.47,9.54-29.63,22.25l-8.12,8.12q5.17-23.44,3.37-43.5l7.5-13.5q3.7-4.83,8.13-4.75,12.44.27,20.62-4.5,22.73-15.6,24.13-45.62-7.26,6.33-21.5,9.25-30.17,7.26-31.25,37-5.81,3.66-8.38,15.25-.75-6.12-2.87-18.5-1.89-9.13.5-23c10.12-1,19-10.13,20.87-20.5,2.63-19,.63-17.88-10.37-28.88q-9.63-11.37-2-17.75c1-.67,1.08-1,.12-1.12q-6.68,1.2-14,12.5l-2.75,4.25c-14,14.75-12.62,41.87,3.88,51.12q-3.26,14.72,0,34.5a59.63,59.63,0,0,0-7.38-12.25Q126.62,105.81,99.31,99q-15.89-1.38-18.75-7c-1.67-1.15-2.25-1-1.75.63L84.06,115q9.87,30.58,45,25.5,15.45,9.52,7.75,47Zm40.88-82.48-12.75,4.88c3.83-12.92,14-21.38,30.13-24.38A37.3,37.3,0,0,1,171.43,129.25Zm-74.25-12-4.12-8.5c14.12,1.13,29.75,16,31,25.5Q105.87,131.75,97.18,117.25Zm48.25-49.62,4.38,10.87q5.7,15-7.25,26c-.46-3.56-1.5-6.25-2.25-10.37C139.41,88.3,141.43,80.25,145.43,67.63Z"/></clipPath></defs><title>1Монтажная область 2</title><path class="cls-2" d="M246.31,102.25C246.31,45.78,198.07,0,138.56,0S30.81,45.78,30.81,102.25c0,46.09,32.14,85.06,76.31,97.83l7.69,6.92q-3.32-.3-10.75-4.25-14.52-5-34.5,15.75,13.39-4.14,26.5,8,17.1,16.42,30.5-6a39.76,39.76,0,0,0,4-8.77l6.26-24.23q7.69-37.47-7.75-47-35.13,5.1-45-25.5L78.81,92.63c-.5-1.58.08-1.78,1.75-.63q2.86,5.63,18.75,7,27.3,6.81,31.12,33.25a59.63,59.63,0,0,1,7.38,12.25q-3.26-19.78,0-34.5c-16.5-9.25-17.88-36.37-3.88-51.12l2.75-4.25q7.32-11.3,14-12.5c1,.07.92.45-.12,1.12q-7.63,6.39,2,17.75c11,11,13,9.88,10.37,28.88-1.87,10.37-10.75,19.5-20.87,20.5q-2.4,13.86-.5,23,2.12,12.38,2.87,18.5,2.58-11.59,8.38-15.25,1.09-29.75,31.25-37,14.24-2.92,21.5-9.25-1.41,30-24.13,45.62-8.18,4.77-20.62,4.5-4.42-.08-8.13,4.75l-7.5,13.5q1.81,20.06-3.37,43.5l8.12-8.12q11.17-12.72,29.63-22.25c-9.07,8.55-17.38,16.62-21.25,22.62-6,11.39-10.84,17.87-16.33,21.41a20.25,20.25,0,0,1-2.67,1.59l-.6.14a7,7,0,0,0-1.22.48q-4,2-6.43,9.38-9.61,32.85,9.5,59.25-5.43-25.62,5.75-46,9.81-17.12,33.75-29.75,23.9-13.62,28-26-18.26,14-37.75,19c-1.92.14-3.33-.82-4.25-2.86C212.25,189.6,246.31,149.7,246.31,102.25ZM107.68,176.5l5.63,2.13q7,1.85,7.12,7.75c.25,1.5-.64,1.9-1.37.87l-1.75-2.12c-1.13-1.38-2.18-.71-2.13,1.12l.63,6.5c-.13,1.75-1.75,1.75-2.13.63-3-9-9-14.07-19.37-16.63Q101.59,174.17,107.68,176.5Z"/><path class="cls-2" d="M188.81,109.75c-16.09,3-26.3,11.46-30.13,24.38l12.75-4.88A37.3,37.3,0,0,0,188.81,109.75Z"/><path class="cls-2" d="M93.06,108.75l4.12,8.5q8.68,14.5,26.88,17C122.81,124.75,107.18,109.88,93.06,108.75Z"/><path class="cls-2" d="M149.81,78.5l-4.38-10.87c-4,12.62-6,20.67-5.12,26.5.75,4.12,1.79,6.81,2.25,10.37Q155.52,93.48,149.81,78.5Z"/><g class="cls-3"><path class="cls-4" d="M155.68,79.72l3.56,10.58q4.59,14.53-8.93,24.12c-.21-3.4-1.05-6-1.5-10C148.32,98.88,150.87,91.4,155.68,79.72Z"/><path class="cls-4" d="M104.74,123.48q7.56,14.29,25.3,17.86c-.58-9.07-14.94-24.18-28.78-26.18Z"/><path class="cls-4" d="M177,139.74l-12.89,3.77c4.65-12,15.29-19.3,31.35-21.07A36.24,36.24,0,0,1,177,139.74Z"/><path class="cls-4" d="M129.81,220.5l9.12-27.94q10.17-34.93-4.4-45-34.95,2.5-42.56-27.1L88.34,99q-.59-2.28,1.77-.47,2.43,5.51,18,7.86,26.43,8.25,28.36,33.52A55,55,0,0,1,142.87,152Q141,133,145.25,119.31c-15.61-9.85-15.1-35.6-.29-48.63l3-3.84q8-10.2,14.65-10.9c.93.13.86.49-.21,1.05q-8,5.53.75,16.93c10.08,11.14,12.13,10.2,8.23,28-2.56,9.69-11.93,17.74-22,18q-3.32,13-2.08,21.73,1.24,11.87,1.56,17.69,3.35-10.79,9.3-13.87,3.12-28.07,33.33-32.94,14.22-1.81,21.81-7.33-3.45,28.31-26.91,41.57-8.38,4-20.62,2.89-4.35-.36-8.33,4l-8.31,12.28q.39,19.1-6.32,40.93l8.56-7.15c7.91-7.52-7.41,15.56-15.59,17.3Z"/></g><path class="cls-5" d="M33,279.44A9.87,9.87,0,0,0,25.9,282a9,9,0,0,0-2.7,6.8,10,10,0,0,0,1.12,4.83A8.05,8.05,0,0,0,27.77,297a11.66,11.66,0,0,0,5.59,1.24,11.42,11.42,0,0,0,7.85-2.6l-2.44-3.08a7.18,7.18,0,0,1-5.41,2.05,5.71,5.71,0,0,1-3.71-1.15,5,5,0,0,1-1.76-3.22H42.41a4.34,4.34,0,0,0,.2-1.4A9.16,9.16,0,0,0,40,282,9.58,9.58,0,0,0,33,279.44ZM28,287a4.8,4.8,0,0,1,1.72-2.9,5.32,5.32,0,0,1,3.36-1A4.59,4.59,0,0,1,37.85,287Z"/><path class="cls-5" d="M123.9,279.47c-3.34,0-4.7.28-8.44,2.06l2,3.5a11.42,11.42,0,0,1,6.29-1.65,3.92,3.92,0,0,1,3.74,3.79h-4.71c-.42.05-.84,0-1.2.06s-1,.16-1.68.31a12.55,12.55,0,0,0-1.59.5,11.1,11.1,0,0,0-1.42.83,5.11,5.11,0,0,0-1.18,1,4.46,4.46,0,0,0-.74,1.33,5,5,0,0,0-.28,1.71,4.71,4.71,0,0,0,1.82,3.84,7.41,7.41,0,0,0,4.76,1.46,9.6,9.6,0,0,0,4-.83,7.73,7.73,0,0,0,2.24-1.48V298h4.6v-8.95C132.32,285,131.54,279.5,123.9,279.47Zm2,14.41a5.94,5.94,0,0,1-3.6,1.09,4,4,0,0,1-2-.59,2.46,2.46,0,0,1-.81-1.83,2,2,0,0,1,1.44-1.94,11.43,11.43,0,0,1,1.9-.48h4.71v1.13A3.37,3.37,0,0,1,125.86,293.88Z"/><path class="cls-5" d="M241.9,279.47c-3.34,0-4.7.28-8.44,2.06l2,3.5a11.42,11.42,0,0,1,6.29-1.65,3.92,3.92,0,0,1,3.74,3.79h-4.71c-.42.05-.84,0-1.2.06s-1.05.16-1.68.31a12.55,12.55,0,0,0-1.59.5,11.1,11.1,0,0,0-1.42.83,5.11,5.11,0,0,0-1.18,1,4.46,4.46,0,0,0-.74,1.33,5,5,0,0,0-.28,1.71,4.71,4.71,0,0,0,1.82,3.84,7.41,7.41,0,0,0,4.76,1.46,9.6,9.6,0,0,0,4-.83,7.73,7.73,0,0,0,2.24-1.48V298h4.6v-8.95C250.32,285,249.54,279.5,241.9,279.47Zm2,14.41a5.94,5.94,0,0,1-3.6,1.09,4,4,0,0,1-2-.59,2.46,2.46,0,0,1-.81-1.83,2,2,0,0,1,1.44-1.94,11.43,11.43,0,0,1,1.9-.48h4.71v1.13A3.37,3.37,0,0,1,243.86,293.88Z"/><path class="cls-5" d="M177.28,279.47c-3.34,0-4.7.28-8.44,2.06l2,3.5a11.41,11.41,0,0,1,6.28-1.65,3.93,3.93,0,0,1,3.75,3.79h-4.71c-.43.05-.85,0-1.2.06s-1.06.16-1.68.31a12.23,12.23,0,0,0-1.6.5,11,11,0,0,0-1.41.83,5.11,5.11,0,0,0-1.18,1,4.26,4.26,0,0,0-.74,1.33,5,5,0,0,0-.29,1.71,4.69,4.69,0,0,0,1.83,3.84,7.39,7.39,0,0,0,4.76,1.46,9.55,9.55,0,0,0,4-.83,7.92,7.92,0,0,0,2.25-1.48V298h4.6v-8.95C185.7,285,184.91,279.5,177.28,279.47Zm2,14.41a6,6,0,0,1-3.61,1.09,4.1,4.1,0,0,1-2-.59,2.45,2.45,0,0,1-.8-1.83,2,2,0,0,1,1.44-1.94,11.16,11.16,0,0,1,1.9-.48h4.71v1.13A3.36,3.36,0,0,1,179.24,293.88Z"/><path class="cls-5" d="M47.87,291.44c-.31,2.31-1.67,2.66-2.19,2.66H44.5v4c.65.08,1.9.12,2.51.12a4.17,4.17,0,0,0,2.74-.64A6.12,6.12,0,0,0,51.68,295a20.26,20.26,0,0,0,.94-5.44l.25-5.88h6.57v14.4h4.78V279.7H48.47A96.43,96.43,0,0,1,47.87,291.44Z"/><polygon class="cls-5" points="231 279.45 225.56 279.45 220.43 286.81 217.21 286.83 217.21 279.45 212.05 279.45 212.05 297.91 217.21 297.91 217.21 290.75 220.12 290.75 225.27 297.91 231.04 297.91 224.25 288.44 231 279.45"/><path class="cls-5" d="M204.38,288.46a4.67,4.67,0,0,0,2.14-1.57,4.13,4.13,0,0,0,.78-2.52,3.92,3.92,0,0,0-2-3.6,10.76,10.76,0,0,0-5.58-1.2h-9.23v18.27h9.89a9.22,9.22,0,0,0,5.36-1.35,4.39,4.39,0,0,0,1.92-3.83,4.11,4.11,0,0,0-.85-2.65A4.81,4.81,0,0,0,204.38,288.46Zm-9.1-5.61h4.65a3.12,3.12,0,0,1,1.95.52,1.78,1.78,0,0,1,.67,1.49,1.85,1.85,0,0,1-.65,1.58,3.53,3.53,0,0,1-2.1.49h-4.52Zm6.91,10.79a3.54,3.54,0,0,1-2.12.55h-4.79v-4.14h4.66a3.76,3.76,0,0,1,2.22.56,1.78,1.78,0,0,1,.8,1.54A1.73,1.73,0,0,1,202.19,293.64Z"/><path class="cls-5" d="M147.87,291.31c-.31,2.32-1.67,2.66-2.19,2.66H144.5v4a24,24,0,0,0,2.51.13,4.17,4.17,0,0,0,2.74-.64,6.18,6.18,0,0,0,1.93-2.56,20.26,20.26,0,0,0,.94-5.44l.25-5.88h6.57V298h4.78V279.57H148.47A96.23,96.23,0,0,1,147.87,291.31Z"/><polygon class="cls-5" points="105.69 286.67 97.05 286.67 97.05 279.7 91.87 279.7 91.87 297.85 97.05 297.85 97.05 290.6 105.69 290.6 105.69 297.85 110.63 297.85 110.63 279.7 105.69 279.7 105.69 286.67"/><path class="cls-5" d="M78.28,279.44a9.87,9.87,0,0,0-7.13,2.6,9,9,0,0,0-2.7,6.8,10,10,0,0,0,1.12,4.83A8.05,8.05,0,0,0,73,297a11.66,11.66,0,0,0,5.59,1.24,11.42,11.42,0,0,0,7.85-2.6L84,292.56a7.18,7.18,0,0,1-5.41,2.05,5.71,5.71,0,0,1-3.71-1.15,5,5,0,0,1-1.76-3.22H87.66a4.34,4.34,0,0,0,.2-1.4A9.16,9.16,0,0,0,85.25,282,9.58,9.58,0,0,0,78.28,279.44ZM73.2,287a4.8,4.8,0,0,1,1.72-2.9,5.32,5.32,0,0,1,3.36-1A4.59,4.59,0,0,1,83.1,287Z"/><path class="cls-5" d="M15.33,285.65a7.29,7.29,0,0,0,3.08-2.14,4.91,4.91,0,0,0,1.08-3.17,5.71,5.71,0,0,0-3-5,15.32,15.32,0,0,0-8.12-1.89,14.46,14.46,0,0,0-7.14,1.91l-.3.16,1.49,3.95s.89-.52,1.41-.81a8.81,8.81,0,0,1,4.38-1,7.2,7.2,0,0,1,3.89.89,2.76,2.76,0,0,1,1.39,2.43A2.31,2.31,0,0,1,12.26,283a5.82,5.82,0,0,1-3.11.73h-4v3.92h4a7.49,7.49,0,0,1,3.83.82,2.52,2.52,0,0,1,1.39,2.26,2.8,2.8,0,0,1-1.62,2.57,9.37,9.37,0,0,1-4.53.9,10.33,10.33,0,0,1-4.73-1,7.21,7.21,0,0,1-1.52-1l-2,3.91.49.25a17.62,17.62,0,0,0,7.73,2.21,17.16,17.16,0,0,0,8.85-2q3.34-2,3.35-5.27a5,5,0,0,0-1.31-3.49A7.84,7.84,0,0,0,15.33,285.65Z"/></svg>