<svg id="Слой_1" data-name="Слой 1" xmlns="http://www.w3.org/2000/svg" viewBox="0 0 67.5 67.5"><defs><style>.cls-1{fill:none;stroke:#1d1d1b;stroke-miterlimit:3.86;stroke-width:2px;}</style></defs><title>1Монтажная область 2</title><circle class="cls-1" cx="33.75" cy="33.75" r="32.75"/><line class="cls-1" x1="33.75" y1="66.5" x2="33.75" y2="1"/><line class="cls-1" x1="1.12" y1="33.75" x2="66.37" y2="33.75"/><path class="cls-1" d="M10.09,56.4a41.51,41.51,0,0,1,47.31,0"/><path class="cls-1" d="M33.75,1A41.29,41.29,0,0,1,49.68,33.8,41.63,41.63,0,0,1,33.74,66.5"/><path class="cls-1" d="M33.74,66.5A41.61,41.61,0,0,1,33.75,1"/><path class="cls-1" d="M57.4,11.1a41.37,41.37,0,0,1-23.65,7.4A41.25,41.25,0,0,1,10.1,11.1"/></svg>